<ttFont>
    <TTGlyph name=".notdef" xMin="50" yMin="0" xMax="450" yMax="533">
      <contour>
        <pt x="50" y="0" on="1"/>
        <pt x="50" y="533" on="1"/>
        <pt x="450" y="533" on="1"/>
        <pt x="450" y="0" on="1"/>
      </contour>
      <contour>
        <pt x="100" y="50" on="1"/>
        <pt x="400" y="50" on="1"/>
        <pt x="400" y="483" on="1"/>
        <pt x="100" y="483" on="1"/>
      </contour>
    </TTGlyph>
    <TTGlyph name="A" xMin="-8" yMin="0" xMax="555" yMax="585">
      <contour>
        <pt x="336" y="0" on="1"/>
        <pt x="336" y="21" on="1"/>
        <pt x="382" y="21" on="0"/>
        <pt x="394" y="33" on="1"/>
        <pt x="338" y="186" on="1"/>
        <pt x="146" y="186" on="1"/>
        <pt x="94" y="39" on="1"/>
        <pt x="104" y="21" on="0"/>
        <pt x="156" y="21" on="1"/>
        <pt x="156" y="0" on="1"/>
        <pt x="-8" y="0" on="1"/>
        <pt x="-8" y="21" on="1"/>
        <pt x="48" y="21" on="0"/>
        <pt x="55" y="42" on="1"/>
        <pt x="249" y="585" on="1"/>
        <pt x="297" y="585" on="1"/>
        <pt x="491" y="42" on="1"/>
        <pt x="498" y="21" on="0"/>
        <pt x="555" y="21" on="1"/>
        <pt x="555" y="0" on="1"/>
      </contour>
      <contour>
        <pt x="241" y="452" on="1"/>
        <pt x="158" y="219" on="1"/>
        <pt x="326" y="219" on="1"/>
      </contour>
    </TTGlyph>
    <TTGlyph name="AE" xMin="-22" yMin="0" xMax="740" yMax="585">
      <contour>
        <pt x="142" y="0" on="1"/>
        <pt x="-22" y="0" on="1"/>
        <pt x="-22" y="21" on="1"/>
        <pt x="29" y="21" on="0"/>
        <pt x="41" y="41" on="1"/>
        <pt x="328" y="553" on="1"/>
        <pt x="316" y="564" on="0"/>
        <pt x="271" y="564" on="1"/>
        <pt x="271" y="585" on="1"/>
        <pt x="695" y="585" on="1"/>
        <pt x="695" y="488" on="1"/>
        <pt x="674" y="488" on="1"/>
        <pt x="674" y="542" on="0"/>
        <pt x="654" y="551" on="1"/>
        <pt x="447" y="551" on="1"/>
        <pt x="447" y="321" on="1"/>
        <pt x="587" y="321" on="1"/>
        <pt x="607" y="330" on="0"/>
        <pt x="607" y="384" on="1"/>
        <pt x="628" y="384" on="1"/>
        <pt x="628" y="224" on="1"/>
        <pt x="607" y="224" on="1"/>
        <pt x="607" y="278" on="0"/>
        <pt x="587" y="287" on="1"/>
        <pt x="447" y="287" on="1"/>
        <pt x="447" y="34" on="1"/>
        <pt x="675" y="34" on="1"/>
        <pt x="700" y="45" on="0"/>
        <pt x="720" y="97" on="1"/>
        <pt x="740" y="97" on="1"/>
        <pt x="716" y="0" on="1"/>
        <pt x="292" y="0" on="1"/>
        <pt x="292" y="21" on="1"/>
        <pt x="346" y="21" on="0"/>
        <pt x="355" y="41" on="1"/>
        <pt x="355" y="186" on="1"/>
        <pt x="162" y="186" on="1"/>
        <pt x="80" y="39" on="1"/>
        <pt x="90" y="21" on="0"/>
        <pt x="142" y="21" on="1"/>
      </contour>
      <contour>
        <pt x="181" y="219" on="1"/>
        <pt x="355" y="219" on="1"/>
        <pt x="355" y="530" on="1"/>
      </contour>
    </TTGlyph>
    <TTGlyph name="Aacute" xMin="-8" yMin="0" xMax="555" yMax="782">
      <component glyphName="uni02CA" x="203" y="120" flags="0x1004"/>
      <component glyphName="A" x="0" y="0" flags="0x1204"/>
    </TTGlyph>
    <TTGlyph name="Abreve" xMin="-8" yMin="0" xMax="555" yMax="754">
      <contour>
        <pt x="276" y="630" on="1"/>
        <pt x="215" y="630" on="0"/>
        <pt x="150" y="711" on="0"/>
        <pt x="150" y="754" on="1"/>
        <pt x="178" y="754" on="1"/>
        <pt x="178" y="734" on="0"/>
        <pt x="229" y="702" on="0"/>
        <pt x="323" y="702" on="0"/>
        <pt x="374" y="733" on="0"/>
        <pt x="374" y="754" on="1"/>
        <pt x="402" y="754" on="1"/>
        <pt x="402" y="710" on="0"/>
        <pt x="338" y="630" on="0"/>
      </contour>
      <contour>
        <pt x="336" y="0" on="1"/>
        <pt x="336" y="21" on="1"/>
        <pt x="382" y="21" on="0"/>
        <pt x="394" y="33" on="1"/>
        <pt x="338" y="186" on="1"/>
        <pt x="146" y="186" on="1"/>
        <pt x="94" y="39" on="1"/>
        <pt x="104" y="21" on="0"/>
        <pt x="156" y="21" on="1"/>
        <pt x="156" y="0" on="1"/>
        <pt x="-8" y="0" on="1"/>
        <pt x="-8" y="21" on="1"/>
        <pt x="48" y="21" on="0"/>
        <pt x="55" y="42" on="1"/>
        <pt x="249" y="585" on="1"/>
        <pt x="297" y="585" on="1"/>
        <pt x="491" y="42" on="1"/>
        <pt x="498" y="21" on="0"/>
        <pt x="555" y="21" on="1"/>
        <pt x="555" y="0" on="1"/>
      </contour>
      <contour>
        <pt x="241" y="452" on="1"/>
        <pt x="158" y="219" on="1"/>
        <pt x="326" y="219" on="1"/>
      </contour>
    </TTGlyph>
    <TTGlyph name="Acircumflex" xMin="-8" yMin="0" xMax="555" yMax="782">
      <component glyphName="circumflex" x="97" y="120" flags="0x1004"/>
      <component glyphName="A" x="0" y="0" flags="0x1204"/>
    </TTGlyph>
    <TTGlyph name="Adieresis" xMin="-8" yMin="0" xMax="555" yMax="718">
      <component glyphName="dieresis" x="75" y="120" flags="0x1004"/>
      <component glyphName="A" x="0" y="0" flags="0x1204"/>
    </TTGlyph>
    <TTGlyph name="Adotbelow" xMin="-7" yMin="-153" xMax="556" yMax="585">
      <contour>
        <pt x="198" y="-123" on="0"/>
        <pt x="198" y="-81" on="0"/>
        <pt x="228" y="-51" on="0"/>
        <pt x="270" y="-51" on="0"/>
        <pt x="300" y="-81" on="0"/>
        <pt x="300" y="-123" on="0"/>
        <pt x="270" y="-153" on="0"/>
        <pt x="228" y="-153" on="0"/>
      </contour>
      <contour>
        <pt x="337" y="0" on="1"/>
        <pt x="337" y="21" on="1"/>
        <pt x="383" y="21" on="0"/>
        <pt x="395" y="33" on="1"/>
        <pt x="339" y="186" on="1"/>
        <pt x="147" y="186" on="1"/>
        <pt x="95" y="39" on="1"/>
        <pt x="105" y="21" on="0"/>
        <pt x="157" y="21" on="1"/>
        <pt x="157" y="0" on="1"/>
        <pt x="-7" y="0" on="1"/>
        <pt x="-7" y="21" on="1"/>
        <pt x="48" y="21" on="0"/>
        <pt x="56" y="42" on="1"/>
        <pt x="250" y="585" on="1"/>
        <pt x="298" y="585" on="1"/>
        <pt x="492" y="42" on="1"/>
        <pt x="500" y="21" on="0"/>
        <pt x="556" y="21" on="1"/>
        <pt x="556" y="0" on="1"/>
      </contour>
      <contour>
        <pt x="242" y="452" on="1"/>
        <pt x="159" y="219" on="1"/>
        <pt x="327" y="219" on="1"/>
      </contour>
    </TTGlyph>
    <TTGlyph name="Agrave" xMin="-8" yMin="0" xMax="555" yMax="782">
      <component glyphName="uni02CB" x="62" y="120" flags="0x1004"/>
      <component glyphName="A" x="0" y="0" flags="0x1204"/>
    </TTGlyph>
    <TTGlyph name="Alphalatin" xMin="46" yMin="-10" xMax="608" yMax="595">
      <contour>
        <pt x="545" y="595" on="1"/>
        <pt x="545" y="41" on="1"/>
        <pt x="554" y="21" on="0"/>
        <pt x="608" y="21" on="1"/>
        <pt x="608" y="0" on="1"/>
        <pt x="455" y="0" on="1"/>
        <pt x="455" y="17" on="1"/>
        <pt x="390" y="-10" on="0"/>
        <pt x="315" y="-10" on="1"/>
        <pt x="287" y="-10" on="0"/>
        <pt x="226" y="2" on="0"/>
        <pt x="148" y="41" on="0"/>
        <pt x="88" y="104" on="0"/>
        <pt x="46" y="217" on="0"/>
        <pt x="46" y="290" on="1"/>
        <pt x="46" y="362" on="0"/>
        <pt x="86" y="473" on="0"/>
        <pt x="147" y="538" on="0"/>
        <pt x="228" y="580" on="0"/>
        <pt x="301" y="595" on="0"/>
        <pt x="337" y="595" on="1"/>
        <pt x="396" y="595" on="0"/>
        <pt x="474" y="567" on="1"/>
        <pt x="521" y="595" on="0"/>
      </contour>
      <contour>
        <pt x="455" y="49" on="1"/>
        <pt x="455" y="542" on="1"/>
        <pt x="394" y="561" on="0"/>
        <pt x="343" y="561" on="1"/>
        <pt x="322" y="561" on="0"/>
        <pt x="280" y="553" on="0"/>
        <pt x="219" y="521" on="0"/>
        <pt x="174" y="467" on="0"/>
        <pt x="141" y="361" on="0"/>
        <pt x="141" y="290" on="1"/>
        <pt x="141" y="213" on="0"/>
        <pt x="183" y="100" on="0"/>
        <pt x="246" y="47" on="0"/>
        <pt x="302" y="24" on="0"/>
        <pt x="325" y="24" on="1"/>
        <pt x="394" y="24" on="0"/>
      </contour>
    </TTGlyph>
    <TTGlyph name="Amacron" xMin="-8" yMin="0" xMax="555" yMax="678">
      <contour>
        <pt x="138" y="678" on="1"/>
        <pt x="402" y="678" on="1"/>
        <pt x="402" y="634" on="1"/>
        <pt x="138" y="634" on="1"/>
      </contour>
      <contour>
        <pt x="336" y="0" on="1"/>
        <pt x="336" y="21" on="1"/>
        <pt x="382" y="21" on="0"/>
        <pt x="394" y="33" on="1"/>
        <pt x="338" y="186" on="1"/>
        <pt x="146" y="186" on="1"/>
        <pt x="94" y="39" on="1"/>
        <pt x="104" y="21" on="0"/>
        <pt x="156" y="21" on="1"/>
        <pt x="156" y="0" on="1"/>
        <pt x="-8" y="0" on="1"/>
        <pt x="-8" y="21" on="1"/>
        <pt x="48" y="21" on="0"/>
        <pt x="55" y="42" on="1"/>
        <pt x="249" y="585" on="1"/>
        <pt x="297" y="585" on="1"/>
        <pt x="491" y="42" on="1"/>
        <pt x="498" y="21" on="0"/>
        <pt x="555" y="21" on="1"/>
        <pt x="555" y="0" on="1"/>
      </contour>
      <contour>
        <pt x="241" y="452" on="1"/>
        <pt x="158" y="219" on="1"/>
        <pt x="326" y="219" on="1"/>
      </contour>
    </TTGlyph>
    <TTGlyph name="Aogonek" xMin="-8" yMin="-200" xMax="605" yMax="585">
      <contour>
        <pt x="241" y="452" on="1"/>
        <pt x="158" y="219" on="1"/>
        <pt x="326" y="219" on="1"/>
      </contour>
      <contour>
        <pt x="336" y="0" on="1"/>
        <pt x="336" y="21" on="1"/>
        <pt x="382" y="21" on="0"/>
        <pt x="394" y="33" on="1"/>
        <pt x="338" y="186" on="1"/>
        <pt x="146" y="186" on="1"/>
        <pt x="94" y="39" on="1"/>
        <pt x="104" y="21" on="0"/>
        <pt x="156" y="21" on="1"/>
        <pt x="156" y="0" on="1"/>
        <pt x="-8" y="0" on="1"/>
        <pt x="-8" y="21" on="1"/>
        <pt x="48" y="21" on="0"/>
        <pt x="55" y="42" on="1"/>
        <pt x="249" y="585" on="1"/>
        <pt x="297" y="585" on="1"/>
        <pt x="491" y="42" on="1"/>
        <pt x="498" y="21" on="0"/>
        <pt x="555" y="21" on="1"/>
        <pt x="555" y="0" on="1"/>
        <pt x="502" y="0" on="1"/>
        <pt x="475" y="-34" on="0"/>
        <pt x="475" y="-59" on="1"/>
        <pt x="475" y="-108" on="0"/>
        <pt x="529" y="-166" on="0"/>
        <pt x="563" y="-166" on="1"/>
        <pt x="569" y="-166" on="0"/>
        <pt x="585" y="-158" on="0"/>
        <pt x="590" y="-154" on="1"/>
        <pt x="594" y="-150" on="1"/>
        <pt x="605" y="-168" on="1"/>
        <pt x="603" y="-172" on="0"/>
        <pt x="593" y="-182" on="0"/>
        <pt x="552" y="-200" on="0"/>
        <pt x="526" y="-200" on="1"/>
        <pt x="477" y="-200" on="0"/>
        <pt x="426" y="-149" on="0"/>
        <pt x="426" y="-103" on="1"/>
        <pt x="426" y="-45" on="0"/>
        <pt x="474" y="0" on="1"/>
      </contour>
    </TTGlyph>
    <TTGlyph name="Aring" xMin="-8" yMin="0" xMax="555" yMax="779">
      <component glyphName="ring" x="162" y="120" flags="0x1004"/>
      <component glyphName="A" x="0" y="0" flags="0x1204"/>
    </TTGlyph>
    <TTGlyph name="Atilde" xMin="-8" yMin="0" xMax="555" yMax="732">
      <component glyphName="tilde" x="67" y="120" flags="0x1004"/>
      <component glyphName="A" x="0" y="0" flags="0x1204"/>
    </TTGlyph>
    <TTGlyph name="B" xMin="42" yMin="0" xMax="522" yMax="585">
      <contour>
        <pt x="197" y="290" on="1"/>
        <pt x="197" y="34" on="1"/>
        <pt x="282" y="34" on="1"/>
        <pt x="422" y="34" on="0"/>
        <pt x="422" y="170" on="1"/>
        <pt x="422" y="217" on="0"/>
        <pt x="352" y="290" on="0"/>
        <pt x="270" y="290" on="1"/>
      </contour>
      <contour>
        <pt x="197" y="551" on="1"/>
        <pt x="197" y="319" on="1"/>
        <pt x="238" y="319" on="1"/>
        <pt x="378" y="319" on="0"/>
        <pt x="378" y="446" on="1"/>
        <pt x="378" y="551" on="0"/>
        <pt x="226" y="551" on="1"/>
      </contour>
      <contour>
        <pt x="42" y="0" on="1"/>
        <pt x="42" y="21" on="1"/>
        <pt x="96" y="21" on="0"/>
        <pt x="105" y="41" on="1"/>
        <pt x="105" y="544" on="1"/>
        <pt x="96" y="564" on="0"/>
        <pt x="42" y="564" on="1"/>
        <pt x="42" y="585" on="1"/>
        <pt x="226" y="585" on="1"/>
        <pt x="351" y="585" on="0"/>
        <pt x="478" y="503" on="0"/>
        <pt x="478" y="447" on="1"/>
        <pt x="478" y="345" on="0"/>
        <pt x="372" y="309" on="1"/>
        <pt x="447" y="292" on="0"/>
        <pt x="522" y="215" on="0"/>
        <pt x="522" y="171" on="1"/>
        <pt x="522" y="95" on="0"/>
        <pt x="401" y="0" on="0"/>
        <pt x="282" y="0" on="1"/>
      </contour>
    </TTGlyph>
    <TTGlyph name="C" xMin="42" yMin="-10" xMax="536" yMax="595">
      <contour>
        <pt x="346" y="561" on="1"/>
        <pt x="260" y="561" on="0"/>
        <pt x="146" y="419" on="0"/>
        <pt x="146" y="306" on="1"/>
        <pt x="146" y="174" on="0"/>
        <pt x="266" y="24" on="0"/>
        <pt x="350" y="24" on="1"/>
        <pt x="400" y="24" on="0"/>
        <pt x="498" y="93" on="0"/>
        <pt x="512" y="132" on="1"/>
        <pt x="536" y="120" on="1"/>
        <pt x="513" y="65" on="0"/>
        <pt x="414" y="-10" on="0"/>
        <pt x="330" y="-10" on="1"/>
        <pt x="197" y="-10" on="0"/>
        <pt x="42" y="163" on="0"/>
        <pt x="42" y="284" on="1"/>
        <pt x="42" y="424" on="0"/>
        <pt x="221" y="595" on="0"/>
        <pt x="345" y="595" on="1"/>
        <pt x="374" y="595" on="0"/>
        <pt x="450" y="565" on="0"/>
        <pt x="456" y="565" on="1"/>
        <pt x="468" y="565" on="0"/>
        <pt x="468" y="585" on="1"/>
        <pt x="491" y="585" on="1"/>
        <pt x="501" y="458" on="1"/>
        <pt x="479" y="458" on="1"/>
        <pt x="472" y="503" on="0"/>
        <pt x="407" y="561" on="0"/>
      </contour>
    </TTGlyph>
    <TTGlyph name="Cacute" xMin="42" yMin="-10" xMax="536" yMax="782">
      <contour>
        <pt x="405" y="782" on="1"/>
        <pt x="511" y="782" on="1"/>
        <pt x="357" y="620" on="1"/>
        <pt x="331" y="620" on="1"/>
      </contour>
      <contour>
        <pt x="346" y="561" on="1"/>
        <pt x="260" y="561" on="0"/>
        <pt x="146" y="419" on="0"/>
        <pt x="146" y="306" on="1"/>
        <pt x="146" y="174" on="0"/>
        <pt x="266" y="24" on="0"/>
        <pt x="350" y="24" on="1"/>
        <pt x="400" y="24" on="0"/>
        <pt x="498" y="93" on="0"/>
        <pt x="512" y="132" on="1"/>
        <pt x="536" y="120" on="1"/>
        <pt x="513" y="65" on="0"/>
        <pt x="414" y="-10" on="0"/>
        <pt x="330" y="-10" on="1"/>
        <pt x="197" y="-10" on="0"/>
        <pt x="42" y="163" on="0"/>
        <pt x="42" y="284" on="1"/>
        <pt x="42" y="424" on="0"/>
        <pt x="221" y="595" on="0"/>
        <pt x="345" y="595" on="1"/>
        <pt x="374" y="595" on="0"/>
        <pt x="450" y="565" on="0"/>
        <pt x="456" y="565" on="1"/>
        <pt x="468" y="565" on="0"/>
        <pt x="468" y="585" on="1"/>
        <pt x="491" y="585" on="1"/>
        <pt x="501" y="458" on="1"/>
        <pt x="479" y="458" on="1"/>
        <pt x="472" y="503" on="0"/>
        <pt x="407" y="561" on="0"/>
      </contour>
    </TTGlyph>
    <TTGlyph name="Ccaron" xMin="42" yMin="-10" xMax="536" yMax="782">
      <contour>
        <pt x="320" y="620" on="1"/>
        <pt x="226" y="782" on="1"/>
        <pt x="252" y="782" on="1"/>
        <pt x="345" y="695" on="1"/>
        <pt x="438" y="782" on="1"/>
        <pt x="464" y="782" on="1"/>
        <pt x="370" y="620" on="1"/>
      </contour>
      <contour>
        <pt x="346" y="561" on="1"/>
        <pt x="260" y="561" on="0"/>
        <pt x="146" y="419" on="0"/>
        <pt x="146" y="306" on="1"/>
        <pt x="146" y="174" on="0"/>
        <pt x="266" y="24" on="0"/>
        <pt x="350" y="24" on="1"/>
        <pt x="400" y="24" on="0"/>
        <pt x="498" y="93" on="0"/>
        <pt x="512" y="132" on="1"/>
        <pt x="536" y="120" on="1"/>
        <pt x="513" y="65" on="0"/>
        <pt x="414" y="-10" on="0"/>
        <pt x="330" y="-10" on="1"/>
        <pt x="197" y="-10" on="0"/>
        <pt x="42" y="163" on="0"/>
        <pt x="42" y="284" on="1"/>
        <pt x="42" y="424" on="0"/>
        <pt x="221" y="595" on="0"/>
        <pt x="345" y="595" on="1"/>
        <pt x="374" y="595" on="0"/>
        <pt x="450" y="565" on="0"/>
        <pt x="456" y="565" on="1"/>
        <pt x="468" y="565" on="0"/>
        <pt x="468" y="585" on="1"/>
        <pt x="491" y="585" on="1"/>
        <pt x="501" y="458" on="1"/>
        <pt x="479" y="458" on="1"/>
        <pt x="472" y="503" on="0"/>
        <pt x="407" y="561" on="0"/>
      </contour>
    </TTGlyph>
    <TTGlyph name="Ccedilla" xMin="44" yMin="-198" xMax="537" yMax="595">
      <contour>
        <pt x="348" y="561" on="1"/>
        <pt x="347" y="562" on="1"/>
        <pt x="261" y="562" on="0"/>
        <pt x="147" y="420" on="0"/>
        <pt x="147" y="307" on="1"/>
        <pt x="147" y="175" on="0"/>
        <pt x="267" y="25" on="0"/>
        <pt x="351" y="25" on="1"/>
        <pt x="401" y="25" on="0"/>
        <pt x="499" y="94" on="0"/>
        <pt x="513" y="133" on="1"/>
        <pt x="537" y="121" on="1"/>
        <pt x="485" y="-4" on="0"/>
        <pt x="343" y="-9" on="1"/>
        <pt x="331" y="-54" on="1"/>
        <pt x="363" y="-54" on="0"/>
        <pt x="431" y="-87" on="0"/>
        <pt x="431" y="-121" on="1"/>
        <pt x="431" y="-198" on="0"/>
        <pt x="321" y="-198" on="1"/>
        <pt x="288" y="-198" on="0"/>
        <pt x="247" y="-191" on="1"/>
        <pt x="247" y="-174" on="1"/>
        <pt x="265" y="-176" on="0"/>
        <pt x="272" y="-176" on="1"/>
        <pt x="310" y="-176" on="0"/>
        <pt x="344" y="-147" on="0"/>
        <pt x="344" y="-129" on="1"/>
        <pt x="344" y="-85" on="0"/>
        <pt x="283" y="-85" on="1"/>
        <pt x="305" y="-8" on="1"/>
        <pt x="224" y="-2" on="0"/>
        <pt x="103" y="84" on="0"/>
        <pt x="44" y="210" on="0"/>
        <pt x="44" y="284" on="1"/>
        <pt x="44" y="424" on="0"/>
        <pt x="223" y="595" on="0"/>
        <pt x="347" y="595" on="1"/>
        <pt x="376" y="595" on="0"/>
        <pt x="452" y="565" on="0"/>
        <pt x="458" y="565" on="1"/>
        <pt x="470" y="565" on="0"/>
        <pt x="470" y="585" on="1"/>
        <pt x="493" y="585" on="1"/>
        <pt x="503" y="458" on="1"/>
        <pt x="481" y="458" on="1"/>
        <pt x="474" y="503" on="0"/>
        <pt x="409" y="561" on="0"/>
      </contour>
    </TTGlyph>
    <TTGlyph name="Ccircumflex" xMin="42" yMin="-10" xMax="536" yMax="782">
      <contour>
        <pt x="369" y="782" on="1"/>
        <pt x="463" y="620" on="1"/>
        <pt x="437" y="620" on="1"/>
        <pt x="344" y="707" on="1"/>
        <pt x="251" y="620" on="1"/>
        <pt x="225" y="620" on="1"/>
        <pt x="319" y="782" on="1"/>
      </contour>
      <contour>
        <pt x="346" y="561" on="1"/>
        <pt x="260" y="561" on="0"/>
        <pt x="146" y="419" on="0"/>
        <pt x="146" y="306" on="1"/>
        <pt x="146" y="174" on="0"/>
        <pt x="266" y="24" on="0"/>
        <pt x="350" y="24" on="1"/>
        <pt x="400" y="24" on="0"/>
        <pt x="498" y="93" on="0"/>
        <pt x="512" y="132" on="1"/>
        <pt x="536" y="120" on="1"/>
        <pt x="513" y="65" on="0"/>
        <pt x="414" y="-10" on="0"/>
        <pt x="330" y="-10" on="1"/>
        <pt x="197" y="-10" on="0"/>
        <pt x="42" y="163" on="0"/>
        <pt x="42" y="284" on="1"/>
        <pt x="42" y="424" on="0"/>
        <pt x="221" y="595" on="0"/>
        <pt x="345" y="595" on="1"/>
        <pt x="374" y="595" on="0"/>
        <pt x="450" y="565" on="0"/>
        <pt x="456" y="565" on="1"/>
        <pt x="468" y="565" on="0"/>
        <pt x="468" y="585" on="1"/>
        <pt x="491" y="585" on="1"/>
        <pt x="501" y="458" on="1"/>
        <pt x="479" y="458" on="1"/>
        <pt x="472" y="503" on="0"/>
        <pt x="407" y="561" on="0"/>
      </contour>
    </TTGlyph>
    <TTGlyph name="Cdotaccent" xMin="42" yMin="-10" xMax="536" yMax="723">
      <contour>
        <pt x="293" y="651" on="0"/>
        <pt x="293" y="693" on="0"/>
        <pt x="323" y="723" on="0"/>
        <pt x="365" y="723" on="0"/>
        <pt x="395" y="693" on="0"/>
        <pt x="395" y="651" on="0"/>
        <pt x="365" y="621" on="0"/>
        <pt x="323" y="621" on="0"/>
      </contour>
      <contour>
        <pt x="346" y="561" on="1"/>
        <pt x="260" y="561" on="0"/>
        <pt x="146" y="419" on="0"/>
        <pt x="146" y="306" on="1"/>
        <pt x="146" y="174" on="0"/>
        <pt x="266" y="24" on="0"/>
        <pt x="350" y="24" on="1"/>
        <pt x="400" y="24" on="0"/>
        <pt x="498" y="93" on="0"/>
        <pt x="512" y="132" on="1"/>
        <pt x="536" y="120" on="1"/>
        <pt x="513" y="65" on="0"/>
        <pt x="414" y="-10" on="0"/>
        <pt x="330" y="-10" on="1"/>
        <pt x="197" y="-10" on="0"/>
        <pt x="42" y="163" on="0"/>
        <pt x="42" y="284" on="1"/>
        <pt x="42" y="424" on="0"/>
        <pt x="221" y="595" on="0"/>
        <pt x="345" y="595" on="1"/>
        <pt x="374" y="595" on="0"/>
        <pt x="450" y="565" on="0"/>
        <pt x="456" y="565" on="1"/>
        <pt x="468" y="565" on="0"/>
        <pt x="468" y="585" on="1"/>
        <pt x="491" y="585" on="1"/>
        <pt x="501" y="458" on="1"/>
        <pt x="479" y="458" on="1"/>
        <pt x="472" y="503" on="0"/>
        <pt x="407" y="561" on="0"/>
      </contour>
    </TTGlyph>
    <TTGlyph name="D" xMin="42" yMin="0" xMax="567" yMax="585">
      <contour>
        <pt x="42" y="0" on="1"/>
        <pt x="42" y="21" on="1"/>
        <pt x="96" y="21" on="0"/>
        <pt x="105" y="41" on="1"/>
        <pt x="105" y="544" on="1"/>
        <pt x="96" y="564" on="0"/>
        <pt x="42" y="564" on="1"/>
        <pt x="42" y="585" on="1"/>
        <pt x="272" y="585" on="1"/>
        <pt x="405" y="585" on="0"/>
        <pt x="567" y="424" on="0"/>
        <pt x="567" y="164" on="0"/>
        <pt x="409" y="0" on="0"/>
        <pt x="284" y="0" on="1"/>
      </contour>
      <contour>
        <pt x="197" y="556" on="1"/>
        <pt x="197" y="34" on="1"/>
        <pt x="284" y="34" on="1"/>
        <pt x="316" y="34" on="0"/>
        <pt x="377" y="63" on="0"/>
        <pt x="433" y="121" on="0"/>
        <pt x="467" y="225" on="0"/>
        <pt x="467" y="293" on="1"/>
        <pt x="467" y="423" on="0"/>
        <pt x="350" y="556" on="0"/>
        <pt x="272" y="556" on="1"/>
      </contour>
    </TTGlyph>
    <TTGlyph name="Dcaron" xMin="42" yMin="0" xMax="567" yMax="782">
      <contour>
        <pt x="244" y="620" on="1"/>
        <pt x="150" y="782" on="1"/>
        <pt x="176" y="782" on="1"/>
        <pt x="269" y="695" on="1"/>
        <pt x="362" y="782" on="1"/>
        <pt x="388" y="782" on="1"/>
        <pt x="294" y="620" on="1"/>
      </contour>
      <contour>
        <pt x="42" y="0" on="1"/>
        <pt x="42" y="21" on="1"/>
        <pt x="96" y="21" on="0"/>
        <pt x="105" y="41" on="1"/>
        <pt x="105" y="544" on="1"/>
        <pt x="96" y="564" on="0"/>
        <pt x="42" y="564" on="1"/>
        <pt x="42" y="585" on="1"/>
        <pt x="272" y="585" on="1"/>
        <pt x="405" y="585" on="0"/>
        <pt x="567" y="424" on="0"/>
        <pt x="567" y="164" on="0"/>
        <pt x="409" y="0" on="0"/>
        <pt x="284" y="0" on="1"/>
      </contour>
      <contour>
        <pt x="197" y="556" on="1"/>
        <pt x="197" y="34" on="1"/>
        <pt x="284" y="34" on="1"/>
        <pt x="316" y="34" on="0"/>
        <pt x="377" y="63" on="0"/>
        <pt x="433" y="121" on="0"/>
        <pt x="467" y="225" on="0"/>
        <pt x="467" y="293" on="1"/>
        <pt x="467" y="423" on="0"/>
        <pt x="350" y="556" on="0"/>
        <pt x="272" y="556" on="1"/>
      </contour>
    </TTGlyph>
    <TTGlyph name="Dcroat" xMin="35" yMin="0" xMax="567" yMax="585">
      <contour>
        <pt x="197" y="275" on="1"/>
        <pt x="197" y="34" on="1"/>
        <pt x="284" y="34" on="1"/>
        <pt x="316" y="34" on="0"/>
        <pt x="377" y="63" on="0"/>
        <pt x="433" y="121" on="0"/>
        <pt x="467" y="225" on="0"/>
        <pt x="467" y="293" on="1"/>
        <pt x="467" y="423" on="0"/>
        <pt x="350" y="556" on="0"/>
        <pt x="272" y="556" on="1"/>
        <pt x="197" y="556" on="1"/>
        <pt x="197" y="309" on="1"/>
        <pt x="299" y="309" on="1"/>
        <pt x="299" y="275" on="1"/>
      </contour>
      <contour>
        <pt x="42" y="0" on="1"/>
        <pt x="42" y="21" on="1"/>
        <pt x="96" y="21" on="0"/>
        <pt x="105" y="41" on="1"/>
        <pt x="105" y="275" on="1"/>
        <pt x="35" y="275" on="1"/>
        <pt x="35" y="309" on="1"/>
        <pt x="105" y="309" on="1"/>
        <pt x="105" y="544" on="1"/>
        <pt x="96" y="564" on="0"/>
        <pt x="42" y="564" on="1"/>
        <pt x="42" y="585" on="1"/>
        <pt x="272" y="585" on="1"/>
        <pt x="405" y="585" on="0"/>
        <pt x="567" y="424" on="0"/>
        <pt x="567" y="164" on="0"/>
        <pt x="409" y="0" on="0"/>
        <pt x="284" y="0" on="1"/>
      </contour>
    </TTGlyph>
    <TTGlyph name="E" xMin="42" yMin="0" xMax="490" yMax="585">
      <contour>
        <pt x="42" y="0" on="1"/>
        <pt x="42" y="21" on="1"/>
        <pt x="96" y="21" on="0"/>
        <pt x="105" y="41" on="1"/>
        <pt x="105" y="544" on="1"/>
        <pt x="96" y="564" on="0"/>
        <pt x="42" y="564" on="1"/>
        <pt x="42" y="585" on="1"/>
        <pt x="445" y="585" on="1"/>
        <pt x="445" y="488" on="1"/>
        <pt x="424" y="488" on="1"/>
        <pt x="424" y="542" on="0"/>
        <pt x="404" y="551" on="1"/>
        <pt x="197" y="551" on="1"/>
        <pt x="197" y="321" on="1"/>
        <pt x="337" y="321" on="1"/>
        <pt x="357" y="330" on="0"/>
        <pt x="357" y="384" on="1"/>
        <pt x="378" y="384" on="1"/>
        <pt x="378" y="224" on="1"/>
        <pt x="357" y="224" on="1"/>
        <pt x="357" y="278" on="0"/>
        <pt x="337" y="287" on="1"/>
        <pt x="197" y="287" on="1"/>
        <pt x="197" y="34" on="1"/>
        <pt x="425" y="34" on="1"/>
        <pt x="450" y="45" on="0"/>
        <pt x="470" y="97" on="1"/>
        <pt x="490" y="97" on="1"/>
        <pt x="466" y="0" on="1"/>
      </contour>
    </TTGlyph>
    <TTGlyph name="Eacute" xMin="42" yMin="0" xMax="490" yMax="782">
      <component glyphName="uni02CA" x="195" y="120" flags="0x1004"/>
      <component glyphName="E" x="0" y="0" flags="0x1204"/>
    </TTGlyph>
    <TTGlyph name="Ebreve" xMin="42" yMin="0" xMax="490" yMax="754">
      <contour>
        <pt x="268" y="630" on="1"/>
        <pt x="207" y="630" on="0"/>
        <pt x="142" y="711" on="0"/>
        <pt x="142" y="754" on="1"/>
        <pt x="170" y="754" on="1"/>
        <pt x="170" y="734" on="0"/>
        <pt x="221" y="702" on="0"/>
        <pt x="315" y="702" on="0"/>
        <pt x="366" y="733" on="0"/>
        <pt x="366" y="754" on="1"/>
        <pt x="394" y="754" on="1"/>
        <pt x="394" y="710" on="0"/>
        <pt x="330" y="630" on="0"/>
      </contour>
      <contour>
        <pt x="42" y="0" on="1"/>
        <pt x="42" y="21" on="1"/>
        <pt x="96" y="21" on="0"/>
        <pt x="105" y="41" on="1"/>
        <pt x="105" y="544" on="1"/>
        <pt x="96" y="564" on="0"/>
        <pt x="42" y="564" on="1"/>
        <pt x="42" y="585" on="1"/>
        <pt x="445" y="585" on="1"/>
        <pt x="445" y="488" on="1"/>
        <pt x="424" y="488" on="1"/>
        <pt x="424" y="542" on="0"/>
        <pt x="404" y="551" on="1"/>
        <pt x="197" y="551" on="1"/>
        <pt x="197" y="321" on="1"/>
        <pt x="337" y="321" on="1"/>
        <pt x="357" y="330" on="0"/>
        <pt x="357" y="384" on="1"/>
        <pt x="378" y="384" on="1"/>
        <pt x="378" y="224" on="1"/>
        <pt x="357" y="224" on="1"/>
        <pt x="357" y="278" on="0"/>
        <pt x="337" y="287" on="1"/>
        <pt x="197" y="287" on="1"/>
        <pt x="197" y="34" on="1"/>
        <pt x="425" y="34" on="1"/>
        <pt x="450" y="45" on="0"/>
        <pt x="470" y="97" on="1"/>
        <pt x="490" y="97" on="1"/>
        <pt x="466" y="0" on="1"/>
      </contour>
    </TTGlyph>
    <TTGlyph name="Ecaron" xMin="42" yMin="0" xMax="490" yMax="782">
      <contour>
        <pt x="244" y="620" on="1"/>
        <pt x="150" y="782" on="1"/>
        <pt x="176" y="782" on="1"/>
        <pt x="269" y="695" on="1"/>
        <pt x="362" y="782" on="1"/>
        <pt x="388" y="782" on="1"/>
        <pt x="294" y="620" on="1"/>
      </contour>
      <contour>
        <pt x="42" y="0" on="1"/>
        <pt x="42" y="21" on="1"/>
        <pt x="96" y="21" on="0"/>
        <pt x="105" y="41" on="1"/>
        <pt x="105" y="544" on="1"/>
        <pt x="96" y="564" on="0"/>
        <pt x="42" y="564" on="1"/>
        <pt x="42" y="585" on="1"/>
        <pt x="445" y="585" on="1"/>
        <pt x="445" y="488" on="1"/>
        <pt x="424" y="488" on="1"/>
        <pt x="424" y="542" on="0"/>
        <pt x="404" y="551" on="1"/>
        <pt x="197" y="551" on="1"/>
        <pt x="197" y="321" on="1"/>
        <pt x="337" y="321" on="1"/>
        <pt x="357" y="330" on="0"/>
        <pt x="357" y="384" on="1"/>
        <pt x="378" y="384" on="1"/>
        <pt x="378" y="224" on="1"/>
        <pt x="357" y="224" on="1"/>
        <pt x="357" y="278" on="0"/>
        <pt x="337" y="287" on="1"/>
        <pt x="197" y="287" on="1"/>
        <pt x="197" y="34" on="1"/>
        <pt x="425" y="34" on="1"/>
        <pt x="450" y="45" on="0"/>
        <pt x="470" y="97" on="1"/>
        <pt x="490" y="97" on="1"/>
        <pt x="466" y="0" on="1"/>
      </contour>
    </TTGlyph>
    <TTGlyph name="Ecedilla" xMin="42" yMin="-199" xMax="490" yMax="585">
      <contour>
        <pt x="42" y="0" on="1"/>
        <pt x="42" y="21" on="1"/>
        <pt x="96" y="21" on="0"/>
        <pt x="105" y="41" on="1"/>
        <pt x="105" y="544" on="1"/>
        <pt x="96" y="564" on="0"/>
        <pt x="42" y="564" on="1"/>
        <pt x="42" y="585" on="1"/>
        <pt x="445" y="585" on="1"/>
        <pt x="445" y="488" on="1"/>
        <pt x="424" y="488" on="1"/>
        <pt x="424" y="542" on="0"/>
        <pt x="404" y="551" on="1"/>
        <pt x="197" y="551" on="1"/>
        <pt x="197" y="321" on="1"/>
        <pt x="337" y="321" on="1"/>
        <pt x="357" y="330" on="0"/>
        <pt x="357" y="384" on="1"/>
        <pt x="378" y="384" on="1"/>
        <pt x="378" y="224" on="1"/>
        <pt x="357" y="224" on="1"/>
        <pt x="357" y="278" on="0"/>
        <pt x="337" y="287" on="1"/>
        <pt x="197" y="287" on="1"/>
        <pt x="197" y="34" on="1"/>
        <pt x="425" y="34" on="1"/>
        <pt x="450" y="45" on="0"/>
        <pt x="470" y="97" on="1"/>
        <pt x="490" y="97" on="1"/>
        <pt x="466" y="0" on="1"/>
        <pt x="279" y="0" on="1"/>
        <pt x="264" y="-55" on="1"/>
        <pt x="296" y="-55" on="0"/>
        <pt x="364" y="-88" on="0"/>
        <pt x="364" y="-122" on="1"/>
        <pt x="364" y="-199" on="0"/>
        <pt x="254" y="-199" on="1"/>
        <pt x="221" y="-199" on="0"/>
        <pt x="180" y="-192" on="1"/>
        <pt x="180" y="-175" on="1"/>
        <pt x="198" y="-177" on="0"/>
        <pt x="205" y="-177" on="1"/>
        <pt x="243" y="-177" on="0"/>
        <pt x="277" y="-148" on="0"/>
        <pt x="277" y="-130" on="1"/>
        <pt x="277" y="-86" on="0"/>
        <pt x="216" y="-86" on="1"/>
        <pt x="241" y="0" on="1"/>
      </contour>
    </TTGlyph>
    <TTGlyph name="Ecircumflex" xMin="42" yMin="0" xMax="490" yMax="782">
      <component glyphName="circumflex" x="89" y="120" flags="0x1004"/>
      <component glyphName="E" x="0" y="0" flags="0x1204"/>
    </TTGlyph>
    <TTGlyph name="Edieresis" xMin="42" yMin="0" xMax="490" yMax="718">
      <component glyphName="dieresis" x="67" y="120" flags="0x1004"/>
      <component glyphName="E" x="0" y="0" flags="0x1204"/>
    </TTGlyph>
    <TTGlyph name="Edotaccent" xMin="42" yMin="0" xMax="490" yMax="723">
      <contour>
        <pt x="217" y="651" on="0"/>
        <pt x="217" y="693" on="0"/>
        <pt x="247" y="723" on="0"/>
        <pt x="289" y="723" on="0"/>
        <pt x="319" y="693" on="0"/>
        <pt x="319" y="651" on="0"/>
        <pt x="289" y="621" on="0"/>
        <pt x="247" y="621" on="0"/>
      </contour>
      <contour>
        <pt x="42" y="0" on="1"/>
        <pt x="42" y="21" on="1"/>
        <pt x="96" y="21" on="0"/>
        <pt x="105" y="41" on="1"/>
        <pt x="105" y="544" on="1"/>
        <pt x="96" y="564" on="0"/>
        <pt x="42" y="564" on="1"/>
        <pt x="42" y="585" on="1"/>
        <pt x="445" y="585" on="1"/>
        <pt x="445" y="488" on="1"/>
        <pt x="424" y="488" on="1"/>
        <pt x="424" y="542" on="0"/>
        <pt x="404" y="551" on="1"/>
        <pt x="197" y="551" on="1"/>
        <pt x="197" y="321" on="1"/>
        <pt x="337" y="321" on="1"/>
        <pt x="357" y="330" on="0"/>
        <pt x="357" y="384" on="1"/>
        <pt x="378" y="384" on="1"/>
        <pt x="378" y="224" on="1"/>
        <pt x="357" y="224" on="1"/>
        <pt x="357" y="278" on="0"/>
        <pt x="337" y="287" on="1"/>
        <pt x="197" y="287" on="1"/>
        <pt x="197" y="34" on="1"/>
        <pt x="425" y="34" on="1"/>
        <pt x="450" y="45" on="0"/>
        <pt x="470" y="97" on="1"/>
        <pt x="490" y="97" on="1"/>
        <pt x="466" y="0" on="1"/>
      </contour>
    </TTGlyph>
    <TTGlyph name="Edotbelow" xMin="41" yMin="-153" xMax="489" yMax="585">
      <contour>
        <pt x="208" y="-123" on="0"/>
        <pt x="208" y="-81" on="0"/>
        <pt x="238" y="-51" on="0"/>
        <pt x="280" y="-51" on="0"/>
        <pt x="310" y="-81" on="0"/>
        <pt x="310" y="-123" on="0"/>
        <pt x="280" y="-153" on="0"/>
        <pt x="238" y="-153" on="0"/>
      </contour>
      <contour>
        <pt x="41" y="0" on="1"/>
        <pt x="41" y="21" on="1"/>
        <pt x="95" y="21" on="0"/>
        <pt x="104" y="41" on="1"/>
        <pt x="104" y="544" on="1"/>
        <pt x="95" y="564" on="0"/>
        <pt x="41" y="564" on="1"/>
        <pt x="41" y="585" on="1"/>
        <pt x="444" y="585" on="1"/>
        <pt x="444" y="488" on="1"/>
        <pt x="423" y="488" on="1"/>
        <pt x="423" y="542" on="0"/>
        <pt x="403" y="551" on="1"/>
        <pt x="196" y="551" on="1"/>
        <pt x="196" y="321" on="1"/>
        <pt x="336" y="321" on="1"/>
        <pt x="356" y="330" on="0"/>
        <pt x="356" y="384" on="1"/>
        <pt x="377" y="384" on="1"/>
        <pt x="377" y="224" on="1"/>
        <pt x="356" y="224" on="1"/>
        <pt x="356" y="278" on="0"/>
        <pt x="336" y="287" on="1"/>
        <pt x="196" y="287" on="1"/>
        <pt x="196" y="34" on="1"/>
        <pt x="424" y="34" on="1"/>
        <pt x="449" y="45" on="0"/>
        <pt x="469" y="97" on="1"/>
        <pt x="489" y="97" on="1"/>
        <pt x="465" y="0" on="1"/>
      </contour>
    </TTGlyph>
    <TTGlyph name="Egrave" xMin="42" yMin="0" xMax="490" yMax="782">
      <component glyphName="uni02CB" x="54" y="120" flags="0x1004"/>
      <component glyphName="E" x="0" y="0" flags="0x1204"/>
    </TTGlyph>
    <TTGlyph name="Emacron" xMin="42" yMin="0" xMax="490" yMax="678">
      <contour>
        <pt x="130" y="678" on="1"/>
        <pt x="394" y="678" on="1"/>
        <pt x="394" y="634" on="1"/>
        <pt x="130" y="634" on="1"/>
      </contour>
      <contour>
        <pt x="42" y="0" on="1"/>
        <pt x="42" y="21" on="1"/>
        <pt x="96" y="21" on="0"/>
        <pt x="105" y="41" on="1"/>
        <pt x="105" y="544" on="1"/>
        <pt x="96" y="564" on="0"/>
        <pt x="42" y="564" on="1"/>
        <pt x="42" y="585" on="1"/>
        <pt x="445" y="585" on="1"/>
        <pt x="445" y="488" on="1"/>
        <pt x="424" y="488" on="1"/>
        <pt x="424" y="542" on="0"/>
        <pt x="404" y="551" on="1"/>
        <pt x="197" y="551" on="1"/>
        <pt x="197" y="321" on="1"/>
        <pt x="337" y="321" on="1"/>
        <pt x="357" y="330" on="0"/>
        <pt x="357" y="384" on="1"/>
        <pt x="378" y="384" on="1"/>
        <pt x="378" y="224" on="1"/>
        <pt x="357" y="224" on="1"/>
        <pt x="357" y="278" on="0"/>
        <pt x="337" y="287" on="1"/>
        <pt x="197" y="287" on="1"/>
        <pt x="197" y="34" on="1"/>
        <pt x="425" y="34" on="1"/>
        <pt x="450" y="45" on="0"/>
        <pt x="470" y="97" on="1"/>
        <pt x="490" y="97" on="1"/>
        <pt x="466" y="0" on="1"/>
      </contour>
    </TTGlyph>
    <TTGlyph name="Eng" xMin="42" yMin="-10" xMax="596" yMax="595">
      <contour>
        <pt x="42" y="0" on="1"/>
        <pt x="42" y="21" on="1"/>
        <pt x="96" y="21" on="0"/>
        <pt x="105" y="41" on="1"/>
        <pt x="105" y="544" on="1"/>
        <pt x="96" y="564" on="0"/>
        <pt x="42" y="564" on="1"/>
        <pt x="42" y="585" on="1"/>
        <pt x="197" y="585" on="1"/>
        <pt x="197" y="491" on="1"/>
        <pt x="232" y="540" on="0"/>
        <pt x="324" y="595" on="0"/>
        <pt x="368" y="595" on="1"/>
        <pt x="596" y="595" on="0"/>
        <pt x="596" y="310" on="1"/>
        <pt x="596" y="153" on="0"/>
        <pt x="503" y="-10" on="0"/>
        <pt x="422" y="-10" on="1"/>
        <pt x="374" y="-10" on="0"/>
        <pt x="290" y="26" on="0"/>
        <pt x="290" y="58" on="1"/>
        <pt x="290" y="72" on="0"/>
        <pt x="316" y="94" on="0"/>
        <pt x="332" y="94" on="1"/>
        <pt x="355" y="94" on="0"/>
        <pt x="378" y="50" on="1"/>
        <pt x="385" y="37" on="0"/>
        <pt x="390" y="28" on="0"/>
        <pt x="402" y="20" on="0"/>
        <pt x="412" y="20" on="1"/>
        <pt x="504" y="20" on="0"/>
        <pt x="504" y="282" on="1"/>
        <pt x="504" y="417" on="0"/>
        <pt x="437" y="561" on="0"/>
        <pt x="358" y="561" on="1"/>
        <pt x="315" y="561" on="0"/>
        <pt x="226" y="484" on="0"/>
        <pt x="197" y="426" on="1"/>
        <pt x="197" y="41" on="1"/>
        <pt x="206" y="21" on="0"/>
        <pt x="260" y="21" on="1"/>
        <pt x="260" y="0" on="1"/>
      </contour>
    </TTGlyph>
    <TTGlyph name="Eogonek" xMin="42" yMin="-200" xMax="521" yMax="585">
      <contour>
        <pt x="42" y="0" on="1"/>
        <pt x="42" y="21" on="1"/>
        <pt x="96" y="21" on="0"/>
        <pt x="105" y="41" on="1"/>
        <pt x="105" y="544" on="1"/>
        <pt x="96" y="564" on="0"/>
        <pt x="42" y="564" on="1"/>
        <pt x="42" y="585" on="1"/>
        <pt x="445" y="585" on="1"/>
        <pt x="445" y="488" on="1"/>
        <pt x="424" y="488" on="1"/>
        <pt x="424" y="542" on="0"/>
        <pt x="404" y="551" on="1"/>
        <pt x="197" y="551" on="1"/>
        <pt x="197" y="321" on="1"/>
        <pt x="337" y="321" on="1"/>
        <pt x="357" y="330" on="0"/>
        <pt x="357" y="384" on="1"/>
        <pt x="378" y="384" on="1"/>
        <pt x="378" y="224" on="1"/>
        <pt x="357" y="224" on="1"/>
        <pt x="357" y="278" on="0"/>
        <pt x="337" y="287" on="1"/>
        <pt x="197" y="287" on="1"/>
        <pt x="197" y="34" on="1"/>
        <pt x="425" y="34" on="1"/>
        <pt x="450" y="45" on="0"/>
        <pt x="470" y="97" on="1"/>
        <pt x="490" y="97" on="1"/>
        <pt x="466" y="0" on="1"/>
        <pt x="418" y="0" on="1"/>
        <pt x="391" y="-34" on="0"/>
        <pt x="391" y="-59" on="1"/>
        <pt x="391" y="-108" on="0"/>
        <pt x="445" y="-166" on="0"/>
        <pt x="479" y="-166" on="1"/>
        <pt x="485" y="-166" on="0"/>
        <pt x="501" y="-158" on="0"/>
        <pt x="506" y="-154" on="1"/>
        <pt x="510" y="-150" on="1"/>
        <pt x="521" y="-168" on="1"/>
        <pt x="519" y="-172" on="0"/>
        <pt x="509" y="-182" on="0"/>
        <pt x="468" y="-200" on="0"/>
        <pt x="442" y="-200" on="1"/>
        <pt x="393" y="-200" on="0"/>
        <pt x="342" y="-149" on="0"/>
        <pt x="342" y="-103" on="1"/>
        <pt x="342" y="-45" on="0"/>
        <pt x="390" y="0" on="1"/>
      </contour>
    </TTGlyph>
    <TTGlyph name="Eopen" xMin="47" yMin="-10" xMax="497" yMax="595">
      <contour>
        <pt x="325" y="308" on="1"/>
        <pt x="240" y="308" on="0"/>
        <pt x="151" y="238" on="0"/>
        <pt x="151" y="174" on="1"/>
        <pt x="151" y="103" on="0"/>
        <pt x="237" y="24" on="0"/>
        <pt x="309" y="24" on="1"/>
        <pt x="362" y="24" on="0"/>
        <pt x="459" y="93" on="0"/>
        <pt x="473" y="132" on="1"/>
        <pt x="497" y="120" on="1"/>
        <pt x="486" y="94" on="0"/>
        <pt x="459" y="54" on="0"/>
        <pt x="412" y="13" on="0"/>
        <pt x="337" y="-10" on="0"/>
        <pt x="289" y="-10" on="1"/>
        <pt x="219" y="-10" on="0"/>
        <pt x="117" y="26" on="0"/>
        <pt x="68" y="84" on="0"/>
        <pt x="47" y="136" on="0"/>
        <pt x="47" y="161" on="1"/>
        <pt x="47" y="284" on="0"/>
        <pt x="177" y="324" on="1"/>
        <pt x="61" y="358" on="0"/>
        <pt x="61" y="530" on="0"/>
        <pt x="185" y="595" on="0"/>
        <pt x="301" y="595" on="1"/>
        <pt x="337" y="595" on="0"/>
        <pt x="401" y="565" on="0"/>
        <pt x="405" y="565" on="1"/>
        <pt x="417" y="565" on="0"/>
        <pt x="417" y="585" on="1"/>
        <pt x="440" y="585" on="1"/>
        <pt x="450" y="458" on="1"/>
        <pt x="428" y="458" on="1"/>
        <pt x="422" y="498" on="0"/>
        <pt x="343" y="561" on="0"/>
        <pt x="302" y="561" on="1"/>
        <pt x="233" y="561" on="0"/>
        <pt x="165" y="507" on="0"/>
        <pt x="165" y="466" on="1"/>
        <pt x="165" y="342" on="0"/>
        <pt x="325" y="342" on="1"/>
      </contour>
    </TTGlyph>
    <TTGlyph name="Eth" xMin="14" yMin="-1" xMax="563" yMax="655">
      <contour>
        <pt x="38" y="-1" on="1"/>
        <pt x="38" y="20" on="1"/>
        <pt x="92" y="20" on="0"/>
        <pt x="101" y="40" on="1"/>
        <pt x="101" y="154" on="1"/>
        <pt x="101" y="291" on="0"/>
        <pt x="253" y="447" on="0"/>
        <pt x="426" y="457" on="1"/>
        <pt x="399" y="506" on="0"/>
        <pt x="314" y="555" on="0"/>
        <pt x="268" y="555" on="1"/>
        <pt x="193" y="555" on="1"/>
        <pt x="193" y="470" on="1"/>
        <pt x="153" y="470" on="1"/>
        <pt x="153" y="555" on="1"/>
        <pt x="55" y="555" on="1"/>
        <pt x="35" y="546" on="0"/>
        <pt x="35" y="492" on="1"/>
        <pt x="14" y="492" on="1"/>
        <pt x="14" y="585" on="1"/>
        <pt x="153" y="585" on="1"/>
        <pt x="153" y="655" on="1"/>
        <pt x="193" y="655" on="1"/>
        <pt x="193" y="585" on="1"/>
        <pt x="268" y="585" on="1"/>
        <pt x="401" y="585" on="0"/>
        <pt x="563" y="423" on="0"/>
        <pt x="563" y="163" on="0"/>
        <pt x="405" y="-1" on="0"/>
        <pt x="280" y="-1" on="1"/>
      </contour>
      <contour>
        <pt x="440" y="427" on="1"/>
        <pt x="311" y="419" on="0"/>
        <pt x="193" y="290" on="0"/>
        <pt x="193" y="192" on="1"/>
        <pt x="193" y="33" on="1"/>
        <pt x="280" y="33" on="1"/>
        <pt x="312" y="33" on="0"/>
        <pt x="373" y="62" on="0"/>
        <pt x="429" y="120" on="0"/>
        <pt x="463" y="224" on="0"/>
        <pt x="463" y="292" on="1"/>
        <pt x="463" y="368" on="0"/>
      </contour>
    </TTGlyph>
    <TTGlyph name="Eturned" xMin="17" yMin="0" xMax="465" yMax="585">
      <contour>
        <pt x="465" y="0" on="1"/>
        <pt x="41" y="0" on="1"/>
        <pt x="17" y="97" on="1"/>
        <pt x="37" y="97" on="1"/>
        <pt x="57" y="45" on="0"/>
        <pt x="82" y="34" on="1"/>
        <pt x="310" y="34" on="1"/>
        <pt x="310" y="287" on="1"/>
        <pt x="170" y="287" on="1"/>
        <pt x="150" y="278" on="0"/>
        <pt x="150" y="224" on="1"/>
        <pt x="129" y="224" on="1"/>
        <pt x="129" y="384" on="1"/>
        <pt x="150" y="384" on="1"/>
        <pt x="150" y="330" on="0"/>
        <pt x="170" y="321" on="1"/>
        <pt x="310" y="321" on="1"/>
        <pt x="310" y="551" on="1"/>
        <pt x="103" y="551" on="1"/>
        <pt x="83" y="542" on="0"/>
        <pt x="83" y="488" on="1"/>
        <pt x="62" y="488" on="1"/>
        <pt x="62" y="585" on="1"/>
        <pt x="465" y="585" on="1"/>
        <pt x="465" y="564" on="1"/>
        <pt x="411" y="564" on="0"/>
        <pt x="402" y="544" on="1"/>
        <pt x="402" y="41" on="1"/>
        <pt x="411" y="21" on="0"/>
        <pt x="465" y="21" on="1"/>
      </contour>
    </TTGlyph>
    <TTGlyph name="Euro" xMin="28" yMin="-10" xMax="498" yMax="595">
      <contour>
        <pt x="485" y="540" on="1"/>
        <pt x="485" y="458" on="1"/>
        <pt x="463" y="458" on="1"/>
        <pt x="456" y="503" on="0"/>
        <pt x="391" y="561" on="0"/>
        <pt x="329" y="561" on="1"/>
        <pt x="274" y="561" on="0"/>
        <pt x="202" y="466" on="0"/>
        <pt x="191" y="384" on="1"/>
        <pt x="398" y="384" on="1"/>
        <pt x="382" y="340" on="1"/>
        <pt x="187" y="340" on="1"/>
        <pt x="186" y="329" on="0"/>
        <pt x="186" y="306" on="1"/>
        <pt x="186" y="277" on="0"/>
        <pt x="187" y="264" on="1"/>
        <pt x="380" y="264" on="1"/>
        <pt x="364" y="220" on="1"/>
        <pt x="191" y="220" on="1"/>
        <pt x="203" y="125" on="0"/>
        <pt x="279" y="24" on="0"/>
        <pt x="332" y="24" on="1"/>
        <pt x="427" y="24" on="0"/>
        <pt x="476" y="108" on="1"/>
        <pt x="498" y="92" on="1"/>
        <pt x="496" y="88" on="0"/>
        <pt x="491" y="81" on="1"/>
        <pt x="471" y="49" on="0"/>
        <pt x="444" y="18" on="0"/>
        <pt x="372" y="-10" on="0"/>
        <pt x="316" y="-10" on="1"/>
        <pt x="224" y="-10" on="0"/>
        <pt x="103" y="120" on="0"/>
        <pt x="87" y="220" on="1"/>
        <pt x="28" y="220" on="1"/>
        <pt x="44" y="264" on="1"/>
        <pt x="82" y="264" on="1"/>
        <pt x="82" y="284" on="1"/>
        <pt x="82" y="304" on="0"/>
        <pt x="86" y="340" on="1"/>
        <pt x="44" y="340" on="1"/>
        <pt x="60" y="384" on="1"/>
        <pt x="94" y="384" on="1"/>
        <pt x="118" y="481" on="0"/>
        <pt x="249" y="595" on="0"/>
        <pt x="328" y="595" on="1"/>
        <pt x="359" y="595" on="0"/>
        <pt x="414" y="584" on="0"/>
        <pt x="449" y="568" on="0"/>
        <pt x="474" y="551" on="0"/>
        <pt x="480" y="546" on="1"/>
      </contour>
    </TTGlyph>
    <TTGlyph name="F" xMin="42" yMin="0" xMax="445" yMax="585">
      <contour>
        <pt x="42" y="0" on="1"/>
        <pt x="42" y="21" on="1"/>
        <pt x="96" y="21" on="0"/>
        <pt x="105" y="41" on="1"/>
        <pt x="105" y="544" on="1"/>
        <pt x="96" y="564" on="0"/>
        <pt x="42" y="564" on="1"/>
        <pt x="42" y="585" on="1"/>
        <pt x="445" y="585" on="1"/>
        <pt x="445" y="488" on="1"/>
        <pt x="424" y="488" on="1"/>
        <pt x="424" y="542" on="0"/>
        <pt x="404" y="551" on="1"/>
        <pt x="197" y="551" on="1"/>
        <pt x="197" y="321" on="1"/>
        <pt x="337" y="321" on="1"/>
        <pt x="357" y="330" on="0"/>
        <pt x="357" y="384" on="1"/>
        <pt x="378" y="384" on="1"/>
        <pt x="378" y="224" on="1"/>
        <pt x="357" y="224" on="1"/>
        <pt x="357" y="278" on="0"/>
        <pt x="337" y="287" on="1"/>
        <pt x="197" y="287" on="1"/>
        <pt x="197" y="41" on="1"/>
        <pt x="206" y="21" on="0"/>
        <pt x="260" y="21" on="1"/>
        <pt x="260" y="0" on="1"/>
      </contour>
    </TTGlyph>
    <TTGlyph name="G" xMin="40" yMin="-10" xMax="601" yMax="595">
      <contour>
        <pt x="354" y="561" on="1"/>
        <pt x="268" y="561" on="0"/>
        <pt x="144" y="400" on="0"/>
        <pt x="144" y="286" on="1"/>
        <pt x="144" y="217" on="0"/>
        <pt x="180" y="111" on="0"/>
        <pt x="240" y="52" on="0"/>
        <pt x="306" y="24" on="0"/>
        <pt x="340" y="24" on="1"/>
        <pt x="396" y="24" on="0"/>
        <pt x="446" y="43" on="1"/>
        <pt x="446" y="248" on="1"/>
        <pt x="437" y="268" on="0"/>
        <pt x="383" y="268" on="1"/>
        <pt x="383" y="289" on="1"/>
        <pt x="601" y="289" on="1"/>
        <pt x="601" y="268" on="1"/>
        <pt x="547" y="268" on="0"/>
        <pt x="538" y="248" on="1"/>
        <pt x="538" y="80" on="1"/>
        <pt x="521" y="48" on="0"/>
        <pt x="418" y="-10" on="0"/>
        <pt x="338" y="-10" on="1"/>
        <pt x="204" y="-10" on="0"/>
        <pt x="40" y="164" on="0"/>
        <pt x="40" y="284" on="1"/>
        <pt x="40" y="423" on="0"/>
        <pt x="228" y="595" on="0"/>
        <pt x="353" y="595" on="1"/>
        <pt x="382" y="595" on="0"/>
        <pt x="468" y="565" on="0"/>
        <pt x="474" y="565" on="1"/>
        <pt x="486" y="565" on="0"/>
        <pt x="486" y="585" on="1"/>
        <pt x="509" y="585" on="1"/>
        <pt x="519" y="458" on="1"/>
        <pt x="497" y="458" on="1"/>
        <pt x="491" y="502" on="0"/>
        <pt x="415" y="561" on="0"/>
      </contour>
    </TTGlyph>
    <TTGlyph name="Gamma" xMin="42" yMin="0" xMax="445" yMax="585">
      <contour>
        <pt x="197" y="551" on="1"/>
        <pt x="197" y="41" on="1"/>
        <pt x="206" y="21" on="0"/>
        <pt x="260" y="21" on="1"/>
        <pt x="260" y="0" on="1"/>
        <pt x="42" y="0" on="1"/>
        <pt x="42" y="21" on="1"/>
        <pt x="96" y="21" on="0"/>
        <pt x="105" y="41" on="1"/>
        <pt x="105" y="544" on="1"/>
        <pt x="96" y="564" on="0"/>
        <pt x="42" y="564" on="1"/>
        <pt x="42" y="585" on="1"/>
        <pt x="445" y="585" on="1"/>
        <pt x="445" y="488" on="1"/>
        <pt x="424" y="488" on="1"/>
        <pt x="424" y="542" on="0"/>
        <pt x="404" y="551" on="1"/>
      </contour>
    </TTGlyph>
    <TTGlyph name="Gbreve" xMin="40" yMin="-10" xMax="601" yMax="754">
      <contour>
        <pt x="342" y="630" on="1"/>
        <pt x="281" y="630" on="0"/>
        <pt x="216" y="711" on="0"/>
        <pt x="216" y="754" on="1"/>
        <pt x="244" y="754" on="1"/>
        <pt x="244" y="734" on="0"/>
        <pt x="295" y="702" on="0"/>
        <pt x="389" y="702" on="0"/>
        <pt x="440" y="733" on="0"/>
        <pt x="440" y="754" on="1"/>
        <pt x="468" y="754" on="1"/>
        <pt x="468" y="710" on="0"/>
        <pt x="404" y="630" on="0"/>
      </contour>
      <contour>
        <pt x="354" y="561" on="1"/>
        <pt x="268" y="561" on="0"/>
        <pt x="144" y="400" on="0"/>
        <pt x="144" y="286" on="1"/>
        <pt x="144" y="217" on="0"/>
        <pt x="180" y="111" on="0"/>
        <pt x="240" y="52" on="0"/>
        <pt x="306" y="24" on="0"/>
        <pt x="340" y="24" on="1"/>
        <pt x="396" y="24" on="0"/>
        <pt x="446" y="43" on="1"/>
        <pt x="446" y="248" on="1"/>
        <pt x="437" y="268" on="0"/>
        <pt x="383" y="268" on="1"/>
        <pt x="383" y="289" on="1"/>
        <pt x="601" y="289" on="1"/>
        <pt x="601" y="268" on="1"/>
        <pt x="547" y="268" on="0"/>
        <pt x="538" y="248" on="1"/>
        <pt x="538" y="80" on="1"/>
        <pt x="521" y="48" on="0"/>
        <pt x="418" y="-10" on="0"/>
        <pt x="338" y="-10" on="1"/>
        <pt x="204" y="-10" on="0"/>
        <pt x="40" y="164" on="0"/>
        <pt x="40" y="284" on="1"/>
        <pt x="40" y="423" on="0"/>
        <pt x="228" y="595" on="0"/>
        <pt x="353" y="595" on="1"/>
        <pt x="382" y="595" on="0"/>
        <pt x="468" y="565" on="0"/>
        <pt x="474" y="565" on="1"/>
        <pt x="486" y="565" on="0"/>
        <pt x="486" y="585" on="1"/>
        <pt x="509" y="585" on="1"/>
        <pt x="519" y="458" on="1"/>
        <pt x="497" y="458" on="1"/>
        <pt x="491" y="502" on="0"/>
        <pt x="415" y="561" on="0"/>
      </contour>
    </TTGlyph>
    <TTGlyph name="Gcaron" xMin="40" yMin="-10" xMax="601" yMax="782">
      <contour>
        <pt x="318" y="620" on="1"/>
        <pt x="224" y="782" on="1"/>
        <pt x="250" y="782" on="1"/>
        <pt x="343" y="695" on="1"/>
        <pt x="436" y="782" on="1"/>
        <pt x="462" y="782" on="1"/>
        <pt x="368" y="620" on="1"/>
      </contour>
      <contour>
        <pt x="354" y="561" on="1"/>
        <pt x="268" y="561" on="0"/>
        <pt x="144" y="400" on="0"/>
        <pt x="144" y="286" on="1"/>
        <pt x="144" y="217" on="0"/>
        <pt x="180" y="111" on="0"/>
        <pt x="240" y="52" on="0"/>
        <pt x="306" y="24" on="0"/>
        <pt x="340" y="24" on="1"/>
        <pt x="396" y="24" on="0"/>
        <pt x="446" y="43" on="1"/>
        <pt x="446" y="248" on="1"/>
        <pt x="437" y="268" on="0"/>
        <pt x="383" y="268" on="1"/>
        <pt x="383" y="289" on="1"/>
        <pt x="601" y="289" on="1"/>
        <pt x="601" y="268" on="1"/>
        <pt x="547" y="268" on="0"/>
        <pt x="538" y="248" on="1"/>
        <pt x="538" y="80" on="1"/>
        <pt x="521" y="48" on="0"/>
        <pt x="418" y="-10" on="0"/>
        <pt x="338" y="-10" on="1"/>
        <pt x="204" y="-10" on="0"/>
        <pt x="40" y="164" on="0"/>
        <pt x="40" y="284" on="1"/>
        <pt x="40" y="423" on="0"/>
        <pt x="228" y="595" on="0"/>
        <pt x="353" y="595" on="1"/>
        <pt x="382" y="595" on="0"/>
        <pt x="468" y="565" on="0"/>
        <pt x="474" y="565" on="1"/>
        <pt x="486" y="565" on="0"/>
        <pt x="486" y="585" on="1"/>
        <pt x="509" y="585" on="1"/>
        <pt x="519" y="458" on="1"/>
        <pt x="497" y="458" on="1"/>
        <pt x="491" y="502" on="0"/>
        <pt x="415" y="561" on="0"/>
      </contour>
    </TTGlyph>
    <TTGlyph name="Gcircumflex" xMin="40" yMin="-10" xMax="601" yMax="782">
      <contour>
        <pt x="367" y="782" on="1"/>
        <pt x="461" y="620" on="1"/>
        <pt x="435" y="620" on="1"/>
        <pt x="342" y="707" on="1"/>
        <pt x="249" y="620" on="1"/>
        <pt x="223" y="620" on="1"/>
        <pt x="317" y="782" on="1"/>
      </contour>
      <contour>
        <pt x="354" y="561" on="1"/>
        <pt x="268" y="561" on="0"/>
        <pt x="144" y="400" on="0"/>
        <pt x="144" y="286" on="1"/>
        <pt x="144" y="217" on="0"/>
        <pt x="180" y="111" on="0"/>
        <pt x="240" y="52" on="0"/>
        <pt x="306" y="24" on="0"/>
        <pt x="340" y="24" on="1"/>
        <pt x="396" y="24" on="0"/>
        <pt x="446" y="43" on="1"/>
        <pt x="446" y="248" on="1"/>
        <pt x="437" y="268" on="0"/>
        <pt x="383" y="268" on="1"/>
        <pt x="383" y="289" on="1"/>
        <pt x="601" y="289" on="1"/>
        <pt x="601" y="268" on="1"/>
        <pt x="547" y="268" on="0"/>
        <pt x="538" y="248" on="1"/>
        <pt x="538" y="80" on="1"/>
        <pt x="521" y="48" on="0"/>
        <pt x="418" y="-10" on="0"/>
        <pt x="338" y="-10" on="1"/>
        <pt x="204" y="-10" on="0"/>
        <pt x="40" y="164" on="0"/>
        <pt x="40" y="284" on="1"/>
        <pt x="40" y="423" on="0"/>
        <pt x="228" y="595" on="0"/>
        <pt x="353" y="595" on="1"/>
        <pt x="382" y="595" on="0"/>
        <pt x="468" y="565" on="0"/>
        <pt x="474" y="565" on="1"/>
        <pt x="486" y="565" on="0"/>
        <pt x="486" y="585" on="1"/>
        <pt x="509" y="585" on="1"/>
        <pt x="519" y="458" on="1"/>
        <pt x="497" y="458" on="1"/>
        <pt x="491" y="502" on="0"/>
        <pt x="415" y="561" on="0"/>
      </contour>
    </TTGlyph>
    <TTGlyph name="Gcommaaccent" xMin="40" yMin="-248" xMax="601" yMax="595">
      <contour>
        <pt x="327" y="-125" on="1"/>
        <pt x="276" y="-125" on="0"/>
        <pt x="276" y="-81" on="1"/>
        <pt x="276" y="-63" on="0"/>
        <pt x="297" y="-42" on="0"/>
        <pt x="315" y="-38" on="0"/>
        <pt x="322" y="-38" on="1"/>
        <pt x="360" y="-38" on="0"/>
        <pt x="414" y="-85" on="0"/>
        <pt x="414" y="-125" on="1"/>
        <pt x="414" y="-209" on="0"/>
        <pt x="290" y="-248" on="1"/>
        <pt x="290" y="-220" on="1"/>
        <pt x="315" y="-217" on="0"/>
        <pt x="368" y="-168" on="0"/>
        <pt x="368" y="-137" on="1"/>
        <pt x="368" y="-119" on="0"/>
        <pt x="364" y="-112" on="0"/>
        <pt x="358" y="-112" on="1"/>
        <pt x="355" y="-112" on="0"/>
        <pt x="338" y="-125" on="0"/>
      </contour>
      <contour>
        <pt x="354" y="561" on="1"/>
        <pt x="268" y="561" on="0"/>
        <pt x="144" y="400" on="0"/>
        <pt x="144" y="286" on="1"/>
        <pt x="144" y="217" on="0"/>
        <pt x="180" y="111" on="0"/>
        <pt x="240" y="52" on="0"/>
        <pt x="306" y="24" on="0"/>
        <pt x="340" y="24" on="1"/>
        <pt x="396" y="24" on="0"/>
        <pt x="446" y="43" on="1"/>
        <pt x="446" y="248" on="1"/>
        <pt x="437" y="268" on="0"/>
        <pt x="383" y="268" on="1"/>
        <pt x="383" y="289" on="1"/>
        <pt x="601" y="289" on="1"/>
        <pt x="601" y="268" on="1"/>
        <pt x="547" y="268" on="0"/>
        <pt x="538" y="248" on="1"/>
        <pt x="538" y="80" on="1"/>
        <pt x="521" y="48" on="0"/>
        <pt x="418" y="-10" on="0"/>
        <pt x="338" y="-10" on="1"/>
        <pt x="204" y="-10" on="0"/>
        <pt x="40" y="164" on="0"/>
        <pt x="40" y="284" on="1"/>
        <pt x="40" y="423" on="0"/>
        <pt x="228" y="595" on="0"/>
        <pt x="353" y="595" on="1"/>
        <pt x="382" y="595" on="0"/>
        <pt x="468" y="565" on="0"/>
        <pt x="474" y="565" on="1"/>
        <pt x="486" y="565" on="0"/>
        <pt x="486" y="585" on="1"/>
        <pt x="509" y="585" on="1"/>
        <pt x="519" y="458" on="1"/>
        <pt x="497" y="458" on="1"/>
        <pt x="491" y="502" on="0"/>
        <pt x="415" y="561" on="0"/>
      </contour>
    </TTGlyph>
    <TTGlyph name="Gdotaccent" xMin="40" yMin="-10" xMax="601" yMax="723">
      <contour>
        <pt x="291" y="651" on="0"/>
        <pt x="291" y="693" on="0"/>
        <pt x="321" y="723" on="0"/>
        <pt x="363" y="723" on="0"/>
        <pt x="393" y="693" on="0"/>
        <pt x="393" y="651" on="0"/>
        <pt x="363" y="621" on="0"/>
        <pt x="321" y="621" on="0"/>
      </contour>
      <contour>
        <pt x="354" y="561" on="1"/>
        <pt x="268" y="561" on="0"/>
        <pt x="144" y="400" on="0"/>
        <pt x="144" y="286" on="1"/>
        <pt x="144" y="217" on="0"/>
        <pt x="180" y="111" on="0"/>
        <pt x="240" y="52" on="0"/>
        <pt x="306" y="24" on="0"/>
        <pt x="340" y="24" on="1"/>
        <pt x="396" y="24" on="0"/>
        <pt x="446" y="43" on="1"/>
        <pt x="446" y="248" on="1"/>
        <pt x="437" y="268" on="0"/>
        <pt x="383" y="268" on="1"/>
        <pt x="383" y="289" on="1"/>
        <pt x="601" y="289" on="1"/>
        <pt x="601" y="268" on="1"/>
        <pt x="547" y="268" on="0"/>
        <pt x="538" y="248" on="1"/>
        <pt x="538" y="80" on="1"/>
        <pt x="521" y="48" on="0"/>
        <pt x="418" y="-10" on="0"/>
        <pt x="338" y="-10" on="1"/>
        <pt x="204" y="-10" on="0"/>
        <pt x="40" y="164" on="0"/>
        <pt x="40" y="284" on="1"/>
        <pt x="40" y="423" on="0"/>
        <pt x="228" y="595" on="0"/>
        <pt x="353" y="595" on="1"/>
        <pt x="382" y="595" on="0"/>
        <pt x="468" y="565" on="0"/>
        <pt x="474" y="565" on="1"/>
        <pt x="486" y="565" on="0"/>
        <pt x="486" y="585" on="1"/>
        <pt x="509" y="585" on="1"/>
        <pt x="519" y="458" on="1"/>
        <pt x="497" y="458" on="1"/>
        <pt x="491" y="502" on="0"/>
        <pt x="415" y="561" on="0"/>
      </contour>
    </TTGlyph>
    <TTGlyph name="H" xMin="42" yMin="0" xMax="608" yMax="585">
      <contour>
        <pt x="42" y="0" on="1"/>
        <pt x="42" y="21" on="1"/>
        <pt x="96" y="21" on="0"/>
        <pt x="105" y="41" on="1"/>
        <pt x="105" y="544" on="1"/>
        <pt x="96" y="564" on="0"/>
        <pt x="42" y="564" on="1"/>
        <pt x="42" y="585" on="1"/>
        <pt x="260" y="585" on="1"/>
        <pt x="260" y="564" on="1"/>
        <pt x="206" y="564" on="0"/>
        <pt x="197" y="544" on="1"/>
        <pt x="197" y="321" on="1"/>
        <pt x="453" y="321" on="1"/>
        <pt x="453" y="544" on="1"/>
        <pt x="444" y="564" on="0"/>
        <pt x="390" y="564" on="1"/>
        <pt x="390" y="585" on="1"/>
        <pt x="608" y="585" on="1"/>
        <pt x="608" y="564" on="1"/>
        <pt x="554" y="564" on="0"/>
        <pt x="545" y="544" on="1"/>
        <pt x="545" y="41" on="1"/>
        <pt x="554" y="21" on="0"/>
        <pt x="608" y="21" on="1"/>
        <pt x="608" y="0" on="1"/>
        <pt x="390" y="0" on="1"/>
        <pt x="390" y="21" on="1"/>
        <pt x="444" y="21" on="0"/>
        <pt x="453" y="41" on="1"/>
        <pt x="453" y="287" on="1"/>
        <pt x="197" y="287" on="1"/>
        <pt x="197" y="41" on="1"/>
        <pt x="206" y="21" on="0"/>
        <pt x="260" y="21" on="1"/>
        <pt x="260" y="0" on="1"/>
      </contour>
    </TTGlyph>
    <TTGlyph name="Hbar" xMin="42" yMin="0" xMax="608" yMax="585">
      <contour>
        <pt x="42" y="0" on="1"/>
        <pt x="42" y="21" on="1"/>
        <pt x="96" y="21" on="0"/>
        <pt x="105" y="41" on="1"/>
        <pt x="105" y="403" on="1"/>
        <pt x="70" y="403" on="1"/>
        <pt x="70" y="437" on="1"/>
        <pt x="105" y="437" on="1"/>
        <pt x="105" y="544" on="1"/>
        <pt x="96" y="564" on="0"/>
        <pt x="42" y="564" on="1"/>
        <pt x="42" y="585" on="1"/>
        <pt x="260" y="585" on="1"/>
        <pt x="260" y="564" on="1"/>
        <pt x="206" y="564" on="0"/>
        <pt x="197" y="544" on="1"/>
        <pt x="197" y="437" on="1"/>
        <pt x="453" y="437" on="1"/>
        <pt x="453" y="544" on="1"/>
        <pt x="444" y="564" on="0"/>
        <pt x="390" y="564" on="1"/>
        <pt x="390" y="585" on="1"/>
        <pt x="608" y="585" on="1"/>
        <pt x="608" y="564" on="1"/>
        <pt x="554" y="564" on="0"/>
        <pt x="545" y="544" on="1"/>
        <pt x="545" y="437" on="1"/>
        <pt x="578" y="437" on="1"/>
        <pt x="578" y="403" on="1"/>
        <pt x="545" y="403" on="1"/>
        <pt x="545" y="41" on="1"/>
        <pt x="554" y="21" on="0"/>
        <pt x="608" y="21" on="1"/>
        <pt x="608" y="0" on="1"/>
        <pt x="390" y="0" on="1"/>
        <pt x="390" y="21" on="1"/>
        <pt x="444" y="21" on="0"/>
        <pt x="453" y="41" on="1"/>
        <pt x="453" y="287" on="1"/>
        <pt x="197" y="287" on="1"/>
        <pt x="197" y="41" on="1"/>
        <pt x="206" y="21" on="0"/>
        <pt x="260" y="21" on="1"/>
        <pt x="260" y="0" on="1"/>
      </contour>
      <contour>
        <pt x="453" y="403" on="1"/>
        <pt x="197" y="403" on="1"/>
        <pt x="197" y="321" on="1"/>
        <pt x="453" y="321" on="1"/>
      </contour>
    </TTGlyph>
    <TTGlyph name="Hcircumflex" xMin="42" yMin="0" xMax="608" yMax="782">
      <contour>
        <pt x="351" y="782" on="1"/>
        <pt x="445" y="620" on="1"/>
        <pt x="419" y="620" on="1"/>
        <pt x="326" y="707" on="1"/>
        <pt x="233" y="620" on="1"/>
        <pt x="207" y="620" on="1"/>
        <pt x="301" y="782" on="1"/>
      </contour>
      <contour>
        <pt x="42" y="0" on="1"/>
        <pt x="42" y="21" on="1"/>
        <pt x="96" y="21" on="0"/>
        <pt x="105" y="41" on="1"/>
        <pt x="105" y="544" on="1"/>
        <pt x="96" y="564" on="0"/>
        <pt x="42" y="564" on="1"/>
        <pt x="42" y="585" on="1"/>
        <pt x="260" y="585" on="1"/>
        <pt x="260" y="564" on="1"/>
        <pt x="206" y="564" on="0"/>
        <pt x="197" y="544" on="1"/>
        <pt x="197" y="321" on="1"/>
        <pt x="453" y="321" on="1"/>
        <pt x="453" y="544" on="1"/>
        <pt x="444" y="564" on="0"/>
        <pt x="390" y="564" on="1"/>
        <pt x="390" y="585" on="1"/>
        <pt x="608" y="585" on="1"/>
        <pt x="608" y="564" on="1"/>
        <pt x="554" y="564" on="0"/>
        <pt x="545" y="544" on="1"/>
        <pt x="545" y="41" on="1"/>
        <pt x="554" y="21" on="0"/>
        <pt x="608" y="21" on="1"/>
        <pt x="608" y="0" on="1"/>
        <pt x="390" y="0" on="1"/>
        <pt x="390" y="21" on="1"/>
        <pt x="444" y="21" on="0"/>
        <pt x="453" y="41" on="1"/>
        <pt x="453" y="287" on="1"/>
        <pt x="197" y="287" on="1"/>
        <pt x="197" y="41" on="1"/>
        <pt x="206" y="21" on="0"/>
        <pt x="260" y="21" on="1"/>
        <pt x="260" y="0" on="1"/>
      </contour>
    </TTGlyph>
    <TTGlyph name="I" xMin="42" yMin="0" xMax="260" yMax="585">
      <contour>
        <pt x="42" y="0" on="1"/>
        <pt x="42" y="21" on="1"/>
        <pt x="96" y="21" on="0"/>
        <pt x="105" y="41" on="1"/>
        <pt x="105" y="544" on="1"/>
        <pt x="96" y="564" on="0"/>
        <pt x="42" y="564" on="1"/>
        <pt x="42" y="585" on="1"/>
        <pt x="260" y="585" on="1"/>
        <pt x="260" y="564" on="1"/>
        <pt x="206" y="564" on="0"/>
        <pt x="197" y="544" on="1"/>
        <pt x="197" y="41" on="1"/>
        <pt x="206" y="21" on="0"/>
        <pt x="260" y="21" on="1"/>
        <pt x="260" y="0" on="1"/>
      </contour>
    </TTGlyph>
    <TTGlyph name="IJ" xMin="42" yMin="-10" xMax="661" yMax="585">
      <contour>
        <pt x="598" y="172" on="1"/>
        <pt x="598" y="137" on="0"/>
        <pt x="582" y="77" on="0"/>
        <pt x="547" y="22" on="0"/>
        <pt x="479" y="-10" on="0"/>
        <pt x="432" y="-10" on="1"/>
        <pt x="361" y="-10" on="0"/>
        <pt x="282" y="47" on="0"/>
        <pt x="282" y="80" on="1"/>
        <pt x="282" y="103" on="0"/>
        <pt x="306" y="130" on="0"/>
        <pt x="325" y="130" on="1"/>
        <pt x="343" y="130" on="0"/>
        <pt x="370" y="112" on="0"/>
        <pt x="370" y="95" on="1"/>
        <pt x="370" y="61" on="0"/>
        <pt x="345" y="53" on="1"/>
        <pt x="372" y="26" on="0"/>
        <pt x="422" y="26" on="1"/>
        <pt x="445" y="26" on="0"/>
        <pt x="477" y="43" on="0"/>
        <pt x="495" y="70" on="0"/>
        <pt x="504" y="121" on="0"/>
        <pt x="506" y="168" on="0"/>
        <pt x="506" y="208" on="1"/>
        <pt x="506" y="544" on="1"/>
        <pt x="497" y="564" on="0"/>
        <pt x="443" y="564" on="1"/>
        <pt x="443" y="585" on="1"/>
        <pt x="661" y="585" on="1"/>
        <pt x="661" y="564" on="1"/>
        <pt x="607" y="564" on="0"/>
        <pt x="598" y="544" on="1"/>
      </contour>
      <contour>
        <pt x="42" y="0" on="1"/>
        <pt x="42" y="21" on="1"/>
        <pt x="96" y="21" on="0"/>
        <pt x="105" y="41" on="1"/>
        <pt x="105" y="544" on="1"/>
        <pt x="96" y="564" on="0"/>
        <pt x="42" y="564" on="1"/>
        <pt x="42" y="585" on="1"/>
        <pt x="260" y="585" on="1"/>
        <pt x="260" y="564" on="1"/>
        <pt x="206" y="564" on="0"/>
        <pt x="197" y="544" on="1"/>
        <pt x="197" y="41" on="1"/>
        <pt x="206" y="21" on="0"/>
        <pt x="260" y="21" on="1"/>
        <pt x="260" y="0" on="1"/>
      </contour>
    </TTGlyph>
    <TTGlyph name="Iacute" xMin="42" yMin="0" xMax="316" yMax="782">
      <component glyphName="uni02CA" x="76" y="120" flags="0x1004"/>
      <component glyphName="I" x="0" y="0" flags="0x1204"/>
    </TTGlyph>
    <TTGlyph name="Ibreve" xMin="23" yMin="0" xMax="275" yMax="754">
      <contour>
        <pt x="149" y="630" on="1"/>
        <pt x="88" y="630" on="0"/>
        <pt x="23" y="711" on="0"/>
        <pt x="23" y="754" on="1"/>
        <pt x="51" y="754" on="1"/>
        <pt x="51" y="734" on="0"/>
        <pt x="102" y="702" on="0"/>
        <pt x="196" y="702" on="0"/>
        <pt x="247" y="733" on="0"/>
        <pt x="247" y="754" on="1"/>
        <pt x="275" y="754" on="1"/>
        <pt x="275" y="710" on="0"/>
        <pt x="211" y="630" on="0"/>
      </contour>
      <contour>
        <pt x="42" y="0" on="1"/>
        <pt x="42" y="21" on="1"/>
        <pt x="96" y="21" on="0"/>
        <pt x="105" y="41" on="1"/>
        <pt x="105" y="544" on="1"/>
        <pt x="96" y="564" on="0"/>
        <pt x="42" y="564" on="1"/>
        <pt x="42" y="585" on="1"/>
        <pt x="260" y="585" on="1"/>
        <pt x="260" y="564" on="1"/>
        <pt x="206" y="564" on="0"/>
        <pt x="197" y="544" on="1"/>
        <pt x="197" y="41" on="1"/>
        <pt x="206" y="21" on="0"/>
        <pt x="260" y="21" on="1"/>
        <pt x="260" y="0" on="1"/>
      </contour>
    </TTGlyph>
    <TTGlyph name="Icircumflex" xMin="30" yMin="0" xMax="268" yMax="782">
      <component glyphName="circumflex" x="-30" y="120" flags="0x1004"/>
      <component glyphName="I" x="0" y="0" flags="0x1204"/>
    </TTGlyph>
    <TTGlyph name="Idieresis" xMin="8" yMin="0" xMax="290" yMax="718">
      <component glyphName="dieresis" x="-52" y="120" flags="0x1004"/>
      <component glyphName="I" x="0" y="0" flags="0x1204"/>
    </TTGlyph>
    <TTGlyph name="Idotaccent" xMin="42" yMin="0" xMax="260" yMax="723">
      <contour>
        <pt x="98" y="651" on="0"/>
        <pt x="98" y="693" on="0"/>
        <pt x="128" y="723" on="0"/>
        <pt x="170" y="723" on="0"/>
        <pt x="200" y="693" on="0"/>
        <pt x="200" y="651" on="0"/>
        <pt x="170" y="621" on="0"/>
        <pt x="128" y="621" on="0"/>
      </contour>
      <contour>
        <pt x="42" y="0" on="1"/>
        <pt x="42" y="21" on="1"/>
        <pt x="96" y="21" on="0"/>
        <pt x="105" y="41" on="1"/>
        <pt x="105" y="544" on="1"/>
        <pt x="96" y="564" on="0"/>
        <pt x="42" y="564" on="1"/>
        <pt x="42" y="585" on="1"/>
        <pt x="260" y="585" on="1"/>
        <pt x="260" y="564" on="1"/>
        <pt x="206" y="564" on="0"/>
        <pt x="197" y="544" on="1"/>
        <pt x="197" y="41" on="1"/>
        <pt x="206" y="21" on="0"/>
        <pt x="260" y="21" on="1"/>
        <pt x="260" y="0" on="1"/>
      </contour>
    </TTGlyph>
    <TTGlyph name="Idotbelow" xMin="41" yMin="-153" xMax="259" yMax="585">
      <contour>
        <pt x="97" y="-123" on="0"/>
        <pt x="97" y="-81" on="0"/>
        <pt x="127" y="-51" on="0"/>
        <pt x="169" y="-51" on="0"/>
        <pt x="199" y="-81" on="0"/>
        <pt x="199" y="-123" on="0"/>
        <pt x="169" y="-153" on="0"/>
        <pt x="127" y="-153" on="0"/>
      </contour>
      <contour>
        <pt x="41" y="0" on="1"/>
        <pt x="41" y="21" on="1"/>
        <pt x="95" y="21" on="0"/>
        <pt x="104" y="41" on="1"/>
        <pt x="104" y="544" on="1"/>
        <pt x="95" y="564" on="0"/>
        <pt x="41" y="564" on="1"/>
        <pt x="41" y="585" on="1"/>
        <pt x="259" y="585" on="1"/>
        <pt x="259" y="564" on="1"/>
        <pt x="205" y="564" on="0"/>
        <pt x="196" y="544" on="1"/>
        <pt x="196" y="41" on="1"/>
        <pt x="205" y="21" on="0"/>
        <pt x="259" y="21" on="1"/>
        <pt x="259" y="0" on="1"/>
      </contour>
    </TTGlyph>
    <TTGlyph name="Igrave" xMin="-5" yMin="0" xMax="260" yMax="782">
      <component glyphName="uni02CB" x="-65" y="120" flags="0x1004"/>
      <component glyphName="I" x="0" y="0" flags="0x1204"/>
    </TTGlyph>
    <TTGlyph name="Imacron" xMin="18" yMin="0" xMax="282" yMax="678">
      <contour>
        <pt x="18" y="678" on="1"/>
        <pt x="282" y="678" on="1"/>
        <pt x="282" y="634" on="1"/>
        <pt x="18" y="634" on="1"/>
      </contour>
      <contour>
        <pt x="42" y="0" on="1"/>
        <pt x="42" y="21" on="1"/>
        <pt x="96" y="21" on="0"/>
        <pt x="105" y="41" on="1"/>
        <pt x="105" y="544" on="1"/>
        <pt x="96" y="564" on="0"/>
        <pt x="42" y="564" on="1"/>
        <pt x="42" y="585" on="1"/>
        <pt x="260" y="585" on="1"/>
        <pt x="260" y="564" on="1"/>
        <pt x="206" y="564" on="0"/>
        <pt x="197" y="544" on="1"/>
        <pt x="197" y="41" on="1"/>
        <pt x="206" y="21" on="0"/>
        <pt x="260" y="21" on="1"/>
        <pt x="260" y="0" on="1"/>
      </contour>
    </TTGlyph>
    <TTGlyph name="Iogonek" xMin="42" yMin="-200" xMax="316" yMax="585">
      <contour>
        <pt x="42" y="0" on="1"/>
        <pt x="42" y="21" on="1"/>
        <pt x="96" y="21" on="0"/>
        <pt x="105" y="41" on="1"/>
        <pt x="105" y="544" on="1"/>
        <pt x="96" y="564" on="0"/>
        <pt x="42" y="564" on="1"/>
        <pt x="42" y="585" on="1"/>
        <pt x="260" y="585" on="1"/>
        <pt x="260" y="564" on="1"/>
        <pt x="206" y="564" on="0"/>
        <pt x="197" y="544" on="1"/>
        <pt x="197" y="41" on="1"/>
        <pt x="206" y="21" on="0"/>
        <pt x="260" y="21" on="1"/>
        <pt x="260" y="0" on="1"/>
        <pt x="213" y="0" on="1"/>
        <pt x="186" y="-34" on="0"/>
        <pt x="186" y="-59" on="1"/>
        <pt x="186" y="-108" on="0"/>
        <pt x="240" y="-166" on="0"/>
        <pt x="274" y="-166" on="1"/>
        <pt x="280" y="-166" on="0"/>
        <pt x="296" y="-158" on="0"/>
        <pt x="300" y="-154" on="1"/>
        <pt x="305" y="-150" on="1"/>
        <pt x="316" y="-168" on="1"/>
        <pt x="314" y="-172" on="0"/>
        <pt x="304" y="-182" on="0"/>
        <pt x="263" y="-200" on="0"/>
        <pt x="237" y="-200" on="1"/>
        <pt x="188" y="-200" on="0"/>
        <pt x="137" y="-149" on="0"/>
        <pt x="137" y="-103" on="1"/>
        <pt x="137" y="-45" on="0"/>
        <pt x="185" y="0" on="1"/>
      </contour>
    </TTGlyph>
    <TTGlyph name="Iotalatin" xMin="31" yMin="-8" xMax="274" yMax="585">
      <contour>
        <pt x="186" y="585" on="1"/>
        <pt x="186" y="84" on="1"/>
        <pt x="186" y="52" on="0"/>
        <pt x="207" y="22" on="0"/>
        <pt x="222" y="22" on="1"/>
        <pt x="235" y="22" on="0"/>
        <pt x="256" y="36" on="0"/>
        <pt x="256" y="46" on="1"/>
        <pt x="274" y="46" on="1"/>
        <pt x="274" y="18" on="0"/>
        <pt x="233" y="-8" on="0"/>
        <pt x="182" y="-8" on="1"/>
        <pt x="94" y="-8" on="0"/>
        <pt x="94" y="112" on="1"/>
        <pt x="94" y="544" on="1"/>
        <pt x="85" y="564" on="0"/>
        <pt x="31" y="564" on="1"/>
        <pt x="31" y="585" on="1"/>
      </contour>
    </TTGlyph>
    <TTGlyph name="Istroke" xMin="32" yMin="0" xMax="296" yMax="585">
      <contour>
        <pt x="60" y="0" on="1"/>
        <pt x="60" y="21" on="1"/>
        <pt x="114" y="21" on="0"/>
        <pt x="123" y="41" on="1"/>
        <pt x="123" y="277" on="1"/>
        <pt x="32" y="277" on="1"/>
        <pt x="32" y="311" on="1"/>
        <pt x="123" y="311" on="1"/>
        <pt x="123" y="544" on="1"/>
        <pt x="114" y="564" on="0"/>
        <pt x="60" y="564" on="1"/>
        <pt x="60" y="585" on="1"/>
        <pt x="278" y="585" on="1"/>
        <pt x="278" y="564" on="1"/>
        <pt x="224" y="564" on="0"/>
        <pt x="215" y="544" on="1"/>
        <pt x="215" y="311" on="1"/>
        <pt x="296" y="311" on="1"/>
        <pt x="296" y="277" on="1"/>
        <pt x="215" y="277" on="1"/>
        <pt x="215" y="41" on="1"/>
        <pt x="224" y="21" on="0"/>
        <pt x="278" y="21" on="1"/>
        <pt x="278" y="0" on="1"/>
      </contour>
    </TTGlyph>
    <TTGlyph name="Itilde" xMin="0" yMin="0" xMax="301" yMax="732">
      <contour>
        <pt x="224" y="620" on="1"/>
        <pt x="202" y="620" on="0"/>
        <pt x="83" y="679" on="0"/>
        <pt x="69" y="679" on="1"/>
        <pt x="41" y="679" on="0"/>
        <pt x="19" y="650" on="0"/>
        <pt x="19" y="620" on="1"/>
        <pt x="0" y="620" on="1"/>
        <pt x="0" y="732" on="0"/>
        <pt x="76" y="732" on="1"/>
        <pt x="98" y="732" on="0"/>
        <pt x="218" y="673" on="0"/>
        <pt x="232" y="673" on="1"/>
        <pt x="260" y="673" on="0"/>
        <pt x="282" y="702" on="0"/>
        <pt x="282" y="732" on="1"/>
        <pt x="301" y="732" on="1"/>
        <pt x="301" y="620" on="0"/>
      </contour>
      <contour>
        <pt x="42" y="0" on="1"/>
        <pt x="42" y="21" on="1"/>
        <pt x="96" y="21" on="0"/>
        <pt x="105" y="41" on="1"/>
        <pt x="105" y="544" on="1"/>
        <pt x="96" y="564" on="0"/>
        <pt x="42" y="564" on="1"/>
        <pt x="42" y="585" on="1"/>
        <pt x="260" y="585" on="1"/>
        <pt x="260" y="564" on="1"/>
        <pt x="206" y="564" on="0"/>
        <pt x="197" y="544" on="1"/>
        <pt x="197" y="41" on="1"/>
        <pt x="206" y="21" on="0"/>
        <pt x="260" y="21" on="1"/>
        <pt x="260" y="0" on="1"/>
      </contour>
    </TTGlyph>
    <TTGlyph name="J" xMin="7" yMin="-10" xMax="386" yMax="585">
      <contour>
        <pt x="323" y="172" on="1"/>
        <pt x="323" y="137" on="0"/>
        <pt x="307" y="77" on="0"/>
        <pt x="272" y="22" on="0"/>
        <pt x="204" y="-10" on="0"/>
        <pt x="157" y="-10" on="1"/>
        <pt x="86" y="-10" on="0"/>
        <pt x="7" y="47" on="0"/>
        <pt x="7" y="80" on="1"/>
        <pt x="7" y="103" on="0"/>
        <pt x="31" y="130" on="0"/>
        <pt x="50" y="130" on="1"/>
        <pt x="68" y="130" on="0"/>
        <pt x="95" y="112" on="0"/>
        <pt x="95" y="95" on="1"/>
        <pt x="95" y="61" on="0"/>
        <pt x="70" y="53" on="1"/>
        <pt x="97" y="26" on="0"/>
        <pt x="147" y="26" on="1"/>
        <pt x="170" y="26" on="0"/>
        <pt x="202" y="43" on="0"/>
        <pt x="220" y="70" on="0"/>
        <pt x="229" y="121" on="0"/>
        <pt x="231" y="168" on="0"/>
        <pt x="231" y="208" on="1"/>
        <pt x="231" y="544" on="1"/>
        <pt x="222" y="564" on="0"/>
        <pt x="168" y="564" on="1"/>
        <pt x="168" y="585" on="1"/>
        <pt x="386" y="585" on="1"/>
        <pt x="386" y="564" on="1"/>
        <pt x="332" y="564" on="0"/>
        <pt x="323" y="544" on="1"/>
      </contour>
    </TTGlyph>
    <TTGlyph name="Jcircumflex" xMin="7" yMin="-10" xMax="397" yMax="782">
      <contour>
        <pt x="303" y="782" on="1"/>
        <pt x="397" y="620" on="1"/>
        <pt x="371" y="620" on="1"/>
        <pt x="278" y="707" on="1"/>
        <pt x="185" y="620" on="1"/>
        <pt x="159" y="620" on="1"/>
        <pt x="253" y="782" on="1"/>
      </contour>
      <contour>
        <pt x="323" y="172" on="1"/>
        <pt x="323" y="137" on="0"/>
        <pt x="307" y="77" on="0"/>
        <pt x="272" y="22" on="0"/>
        <pt x="204" y="-10" on="0"/>
        <pt x="157" y="-10" on="1"/>
        <pt x="86" y="-10" on="0"/>
        <pt x="7" y="47" on="0"/>
        <pt x="7" y="80" on="1"/>
        <pt x="7" y="103" on="0"/>
        <pt x="31" y="130" on="0"/>
        <pt x="50" y="130" on="1"/>
        <pt x="68" y="130" on="0"/>
        <pt x="95" y="112" on="0"/>
        <pt x="95" y="95" on="1"/>
        <pt x="95" y="61" on="0"/>
        <pt x="70" y="53" on="1"/>
        <pt x="97" y="26" on="0"/>
        <pt x="147" y="26" on="1"/>
        <pt x="170" y="26" on="0"/>
        <pt x="202" y="43" on="0"/>
        <pt x="220" y="70" on="0"/>
        <pt x="229" y="121" on="0"/>
        <pt x="231" y="168" on="0"/>
        <pt x="231" y="208" on="1"/>
        <pt x="231" y="544" on="1"/>
        <pt x="222" y="564" on="0"/>
        <pt x="168" y="564" on="1"/>
        <pt x="168" y="585" on="1"/>
        <pt x="386" y="585" on="1"/>
        <pt x="386" y="564" on="1"/>
        <pt x="332" y="564" on="0"/>
        <pt x="323" y="544" on="1"/>
      </contour>
    </TTGlyph>
    <TTGlyph name="K" xMin="42" yMin="0" xMax="586" yMax="585">
      <contour>
        <pt x="42" y="0" on="1"/>
        <pt x="42" y="21" on="1"/>
        <pt x="96" y="21" on="0"/>
        <pt x="105" y="41" on="1"/>
        <pt x="105" y="544" on="1"/>
        <pt x="96" y="564" on="0"/>
        <pt x="42" y="564" on="1"/>
        <pt x="42" y="585" on="1"/>
        <pt x="258" y="585" on="1"/>
        <pt x="258" y="564" on="1"/>
        <pt x="204" y="564" on="0"/>
        <pt x="195" y="544" on="1"/>
        <pt x="195" y="41" on="1"/>
        <pt x="204" y="21" on="0"/>
        <pt x="258" y="21" on="1"/>
        <pt x="258" y="0" on="1"/>
      </contour>
      <contour>
        <pt x="391" y="0" on="1"/>
        <pt x="391" y="21" on="1"/>
        <pt x="414" y="21" on="0"/>
        <pt x="428" y="24" on="1"/>
        <pt x="200" y="314" on="1"/>
        <pt x="445" y="557" on="1"/>
        <pt x="431" y="564" on="0"/>
        <pt x="394" y="564" on="1"/>
        <pt x="394" y="585" on="1"/>
        <pt x="551" y="585" on="1"/>
        <pt x="551" y="564" on="1"/>
        <pt x="509" y="564" on="0"/>
        <pt x="489" y="541" on="1"/>
        <pt x="288" y="342" on="1"/>
        <pt x="523" y="37" on="1"/>
        <pt x="539" y="21" on="0"/>
        <pt x="586" y="21" on="1"/>
        <pt x="586" y="0" on="1"/>
      </contour>
    </TTGlyph>
    <TTGlyph name="Kcommaaccent" xMin="41" yMin="-248" xMax="585" yMax="585">
      <contour>
        <pt x="315" y="-125" on="1"/>
        <pt x="264" y="-125" on="0"/>
        <pt x="264" y="-81" on="1"/>
        <pt x="264" y="-63" on="0"/>
        <pt x="285" y="-42" on="0"/>
        <pt x="303" y="-38" on="0"/>
        <pt x="310" y="-38" on="1"/>
        <pt x="348" y="-38" on="0"/>
        <pt x="402" y="-85" on="0"/>
        <pt x="402" y="-125" on="1"/>
        <pt x="402" y="-209" on="0"/>
        <pt x="278" y="-248" on="1"/>
        <pt x="278" y="-220" on="1"/>
        <pt x="303" y="-217" on="0"/>
        <pt x="356" y="-168" on="0"/>
        <pt x="356" y="-137" on="1"/>
        <pt x="356" y="-119" on="0"/>
        <pt x="352" y="-112" on="0"/>
        <pt x="346" y="-112" on="1"/>
        <pt x="343" y="-112" on="0"/>
        <pt x="326" y="-125" on="0"/>
      </contour>
      <contour>
        <pt x="41" y="0" on="1"/>
        <pt x="41" y="21" on="1"/>
        <pt x="95" y="21" on="0"/>
        <pt x="104" y="41" on="1"/>
        <pt x="104" y="544" on="1"/>
        <pt x="95" y="564" on="0"/>
        <pt x="41" y="564" on="1"/>
        <pt x="41" y="585" on="1"/>
        <pt x="257" y="585" on="1"/>
        <pt x="257" y="564" on="1"/>
        <pt x="203" y="564" on="0"/>
        <pt x="194" y="544" on="1"/>
        <pt x="194" y="41" on="1"/>
        <pt x="203" y="21" on="0"/>
        <pt x="257" y="21" on="1"/>
        <pt x="257" y="0" on="1"/>
      </contour>
      <contour>
        <pt x="390" y="0" on="1"/>
        <pt x="390" y="21" on="1"/>
        <pt x="414" y="21" on="0"/>
        <pt x="427" y="24" on="1"/>
        <pt x="199" y="314" on="1"/>
        <pt x="444" y="557" on="1"/>
        <pt x="430" y="564" on="0"/>
        <pt x="393" y="564" on="1"/>
        <pt x="393" y="585" on="1"/>
        <pt x="550" y="585" on="1"/>
        <pt x="550" y="564" on="1"/>
        <pt x="508" y="564" on="0"/>
        <pt x="488" y="541" on="1"/>
        <pt x="287" y="342" on="1"/>
        <pt x="522" y="37" on="1"/>
        <pt x="538" y="21" on="0"/>
        <pt x="585" y="21" on="1"/>
        <pt x="585" y="0" on="1"/>
      </contour>
    </TTGlyph>
    <TTGlyph name="L" xMin="42" yMin="0" xMax="490" yMax="585">
      <contour>
        <pt x="42" y="0" on="1"/>
        <pt x="42" y="21" on="1"/>
        <pt x="96" y="21" on="0"/>
        <pt x="105" y="41" on="1"/>
        <pt x="105" y="544" on="1"/>
        <pt x="96" y="564" on="0"/>
        <pt x="42" y="564" on="1"/>
        <pt x="42" y="585" on="1"/>
        <pt x="260" y="585" on="1"/>
        <pt x="260" y="564" on="1"/>
        <pt x="206" y="564" on="0"/>
        <pt x="197" y="544" on="1"/>
        <pt x="197" y="34" on="1"/>
        <pt x="425" y="34" on="1"/>
        <pt x="450" y="45" on="0"/>
        <pt x="470" y="97" on="1"/>
        <pt x="490" y="97" on="1"/>
        <pt x="466" y="0" on="1"/>
      </contour>
    </TTGlyph>
    <TTGlyph name="Lacute" xMin="42" yMin="0" xMax="490" yMax="782">
      <contour>
        <pt x="212" y="782" on="1"/>
        <pt x="318" y="782" on="1"/>
        <pt x="164" y="620" on="1"/>
        <pt x="138" y="620" on="1"/>
      </contour>
      <contour>
        <pt x="42" y="0" on="1"/>
        <pt x="42" y="21" on="1"/>
        <pt x="96" y="21" on="0"/>
        <pt x="105" y="41" on="1"/>
        <pt x="105" y="544" on="1"/>
        <pt x="96" y="564" on="0"/>
        <pt x="42" y="564" on="1"/>
        <pt x="42" y="585" on="1"/>
        <pt x="260" y="585" on="1"/>
        <pt x="260" y="564" on="1"/>
        <pt x="206" y="564" on="0"/>
        <pt x="197" y="544" on="1"/>
        <pt x="197" y="34" on="1"/>
        <pt x="425" y="34" on="1"/>
        <pt x="450" y="45" on="0"/>
        <pt x="470" y="97" on="1"/>
        <pt x="490" y="97" on="1"/>
        <pt x="466" y="0" on="1"/>
      </contour>
    </TTGlyph>
    <TTGlyph name="Lcaron" xMin="42" yMin="0" xMax="490" yMax="595">
      <contour>
        <pt x="347" y="508" on="1"/>
        <pt x="296" y="508" on="0"/>
        <pt x="296" y="552" on="1"/>
        <pt x="296" y="570" on="0"/>
        <pt x="317" y="591" on="0"/>
        <pt x="335" y="595" on="0"/>
        <pt x="342" y="595" on="1"/>
        <pt x="380" y="595" on="0"/>
        <pt x="434" y="548" on="0"/>
        <pt x="434" y="508" on="1"/>
        <pt x="434" y="424" on="0"/>
        <pt x="310" y="385" on="1"/>
        <pt x="310" y="413" on="1"/>
        <pt x="335" y="416" on="0"/>
        <pt x="388" y="465" on="0"/>
        <pt x="388" y="496" on="1"/>
        <pt x="388" y="514" on="0"/>
        <pt x="384" y="521" on="0"/>
        <pt x="378" y="521" on="1"/>
        <pt x="375" y="521" on="0"/>
        <pt x="358" y="508" on="0"/>
      </contour>
      <contour>
        <pt x="42" y="0" on="1"/>
        <pt x="42" y="21" on="1"/>
        <pt x="96" y="21" on="0"/>
        <pt x="105" y="41" on="1"/>
        <pt x="105" y="544" on="1"/>
        <pt x="96" y="564" on="0"/>
        <pt x="42" y="564" on="1"/>
        <pt x="42" y="585" on="1"/>
        <pt x="260" y="585" on="1"/>
        <pt x="260" y="564" on="1"/>
        <pt x="206" y="564" on="0"/>
        <pt x="197" y="544" on="1"/>
        <pt x="197" y="34" on="1"/>
        <pt x="425" y="34" on="1"/>
        <pt x="450" y="45" on="0"/>
        <pt x="470" y="97" on="1"/>
        <pt x="490" y="97" on="1"/>
        <pt x="466" y="0" on="1"/>
      </contour>
    </TTGlyph>
    <TTGlyph name="Lcommaaccent" xMin="41" yMin="-248" xMax="489" yMax="585">
      <contour>
        <pt x="269" y="-125" on="1"/>
        <pt x="218" y="-125" on="0"/>
        <pt x="218" y="-81" on="1"/>
        <pt x="218" y="-63" on="0"/>
        <pt x="239" y="-42" on="0"/>
        <pt x="257" y="-38" on="0"/>
        <pt x="264" y="-38" on="1"/>
        <pt x="302" y="-38" on="0"/>
        <pt x="356" y="-85" on="0"/>
        <pt x="356" y="-125" on="1"/>
        <pt x="356" y="-209" on="0"/>
        <pt x="232" y="-248" on="1"/>
        <pt x="232" y="-220" on="1"/>
        <pt x="257" y="-217" on="0"/>
        <pt x="310" y="-168" on="0"/>
        <pt x="310" y="-137" on="1"/>
        <pt x="310" y="-119" on="0"/>
        <pt x="306" y="-112" on="0"/>
        <pt x="300" y="-112" on="1"/>
        <pt x="297" y="-112" on="0"/>
        <pt x="280" y="-125" on="0"/>
      </contour>
      <contour>
        <pt x="41" y="0" on="1"/>
        <pt x="41" y="21" on="1"/>
        <pt x="95" y="21" on="0"/>
        <pt x="104" y="41" on="1"/>
        <pt x="104" y="544" on="1"/>
        <pt x="95" y="564" on="0"/>
        <pt x="41" y="564" on="1"/>
        <pt x="41" y="585" on="1"/>
        <pt x="259" y="585" on="1"/>
        <pt x="259" y="564" on="1"/>
        <pt x="205" y="564" on="0"/>
        <pt x="196" y="544" on="1"/>
        <pt x="196" y="34" on="1"/>
        <pt x="424" y="34" on="1"/>
        <pt x="449" y="45" on="0"/>
        <pt x="469" y="97" on="1"/>
        <pt x="489" y="97" on="1"/>
        <pt x="465" y="0" on="1"/>
      </contour>
    </TTGlyph>
    <TTGlyph name="Ldot" xMin="42" yMin="0" xMax="490" yMax="585">
      <contour>
        <pt x="305" y="287" on="0"/>
        <pt x="305" y="329" on="0"/>
        <pt x="335" y="359" on="0"/>
        <pt x="377" y="359" on="0"/>
        <pt x="407" y="329" on="0"/>
        <pt x="407" y="287" on="0"/>
        <pt x="377" y="257" on="0"/>
        <pt x="335" y="257" on="0"/>
      </contour>
      <contour>
        <pt x="42" y="0" on="1"/>
        <pt x="42" y="21" on="1"/>
        <pt x="96" y="21" on="0"/>
        <pt x="105" y="41" on="1"/>
        <pt x="105" y="544" on="1"/>
        <pt x="96" y="564" on="0"/>
        <pt x="42" y="564" on="1"/>
        <pt x="42" y="585" on="1"/>
        <pt x="260" y="585" on="1"/>
        <pt x="260" y="564" on="1"/>
        <pt x="206" y="564" on="0"/>
        <pt x="197" y="544" on="1"/>
        <pt x="197" y="34" on="1"/>
        <pt x="425" y="34" on="1"/>
        <pt x="450" y="45" on="0"/>
        <pt x="470" y="97" on="1"/>
        <pt x="490" y="97" on="1"/>
        <pt x="466" y="0" on="1"/>
      </contour>
    </TTGlyph>
    <TTGlyph name="Lslash" xMin="39" yMin="0" xMax="490" yMax="585">
      <contour>
        <pt x="42" y="0" on="1"/>
        <pt x="42" y="21" on="1"/>
        <pt x="96" y="21" on="0"/>
        <pt x="105" y="41" on="1"/>
        <pt x="105" y="280" on="1"/>
        <pt x="61" y="243" on="1"/>
        <pt x="39" y="269" on="1"/>
        <pt x="105" y="325" on="1"/>
        <pt x="105" y="544" on="1"/>
        <pt x="96" y="564" on="0"/>
        <pt x="42" y="564" on="1"/>
        <pt x="42" y="585" on="1"/>
        <pt x="260" y="585" on="1"/>
        <pt x="260" y="564" on="1"/>
        <pt x="206" y="564" on="0"/>
        <pt x="197" y="544" on="1"/>
        <pt x="197" y="402" on="1"/>
        <pt x="241" y="439" on="1"/>
        <pt x="263" y="413" on="1"/>
        <pt x="197" y="357" on="1"/>
        <pt x="197" y="34" on="1"/>
        <pt x="425" y="34" on="1"/>
        <pt x="450" y="45" on="0"/>
        <pt x="470" y="97" on="1"/>
        <pt x="490" y="97" on="1"/>
        <pt x="466" y="0" on="1"/>
      </contour>
    </TTGlyph>
    <TTGlyph name="M" xMin="42" yMin="0" xMax="762" yMax="585">
      <contour>
        <pt x="42" y="0" on="1"/>
        <pt x="42" y="21" on="1"/>
        <pt x="96" y="21" on="0"/>
        <pt x="105" y="41" on="1"/>
        <pt x="105" y="544" on="1"/>
        <pt x="96" y="564" on="0"/>
        <pt x="42" y="564" on="1"/>
        <pt x="42" y="585" on="1"/>
        <pt x="188" y="585" on="1"/>
        <pt x="401" y="120" on="1"/>
        <pt x="614" y="585" on="1"/>
        <pt x="762" y="585" on="1"/>
        <pt x="762" y="564" on="1"/>
        <pt x="708" y="564" on="0"/>
        <pt x="699" y="544" on="1"/>
        <pt x="699" y="41" on="1"/>
        <pt x="708" y="21" on="0"/>
        <pt x="762" y="21" on="1"/>
        <pt x="762" y="0" on="1"/>
        <pt x="544" y="0" on="1"/>
        <pt x="544" y="21" on="1"/>
        <pt x="598" y="21" on="0"/>
        <pt x="607" y="41" on="1"/>
        <pt x="607" y="490" on="1"/>
        <pt x="383" y="0" on="1"/>
        <pt x="368" y="0" on="1"/>
        <pt x="139" y="496" on="1"/>
        <pt x="139" y="41" on="1"/>
        <pt x="148" y="21" on="0"/>
        <pt x="202" y="21" on="1"/>
        <pt x="202" y="0" on="1"/>
      </contour>
    </TTGlyph>
    <TTGlyph name="N" xMin="42" yMin="0" xMax="604" yMax="585">
      <contour>
        <pt x="42" y="0" on="1"/>
        <pt x="42" y="21" on="1"/>
        <pt x="96" y="21" on="0"/>
        <pt x="105" y="41" on="1"/>
        <pt x="105" y="544" on="1"/>
        <pt x="96" y="564" on="0"/>
        <pt x="42" y="564" on="1"/>
        <pt x="42" y="585" on="1"/>
        <pt x="176" y="585" on="1"/>
        <pt x="507" y="176" on="1"/>
        <pt x="507" y="544" on="1"/>
        <pt x="498" y="564" on="0"/>
        <pt x="444" y="564" on="1"/>
        <pt x="444" y="585" on="1"/>
        <pt x="604" y="585" on="1"/>
        <pt x="604" y="564" on="1"/>
        <pt x="550" y="564" on="0"/>
        <pt x="541" y="544" on="1"/>
        <pt x="541" y="0" on="1"/>
        <pt x="532" y="0" on="1"/>
        <pt x="139" y="497" on="1"/>
        <pt x="139" y="41" on="1"/>
        <pt x="148" y="21" on="0"/>
        <pt x="202" y="21" on="1"/>
        <pt x="202" y="0" on="1"/>
      </contour>
    </TTGlyph>
    <TTGlyph name="Nacute" xMin="42" yMin="0" xMax="604" yMax="782">
      <contour>
        <pt x="379" y="782" on="1"/>
        <pt x="485" y="782" on="1"/>
        <pt x="331" y="620" on="1"/>
        <pt x="305" y="620" on="1"/>
      </contour>
      <contour>
        <pt x="42" y="0" on="1"/>
        <pt x="42" y="21" on="1"/>
        <pt x="96" y="21" on="0"/>
        <pt x="105" y="41" on="1"/>
        <pt x="105" y="544" on="1"/>
        <pt x="96" y="564" on="0"/>
        <pt x="42" y="564" on="1"/>
        <pt x="42" y="585" on="1"/>
        <pt x="176" y="585" on="1"/>
        <pt x="507" y="176" on="1"/>
        <pt x="507" y="544" on="1"/>
        <pt x="498" y="564" on="0"/>
        <pt x="444" y="564" on="1"/>
        <pt x="444" y="585" on="1"/>
        <pt x="604" y="585" on="1"/>
        <pt x="604" y="564" on="1"/>
        <pt x="550" y="564" on="0"/>
        <pt x="541" y="544" on="1"/>
        <pt x="541" y="0" on="1"/>
        <pt x="532" y="0" on="1"/>
        <pt x="139" y="497" on="1"/>
        <pt x="139" y="41" on="1"/>
        <pt x="148" y="21" on="0"/>
        <pt x="202" y="21" on="1"/>
        <pt x="202" y="0" on="1"/>
      </contour>
    </TTGlyph>
    <TTGlyph name="Ncaron" xMin="42" yMin="0" xMax="604" yMax="782">
      <contour>
        <pt x="294" y="620" on="1"/>
        <pt x="200" y="782" on="1"/>
        <pt x="226" y="782" on="1"/>
        <pt x="319" y="695" on="1"/>
        <pt x="412" y="782" on="1"/>
        <pt x="438" y="782" on="1"/>
        <pt x="344" y="620" on="1"/>
      </contour>
      <contour>
        <pt x="42" y="0" on="1"/>
        <pt x="42" y="21" on="1"/>
        <pt x="96" y="21" on="0"/>
        <pt x="105" y="41" on="1"/>
        <pt x="105" y="544" on="1"/>
        <pt x="96" y="564" on="0"/>
        <pt x="42" y="564" on="1"/>
        <pt x="42" y="585" on="1"/>
        <pt x="176" y="585" on="1"/>
        <pt x="507" y="176" on="1"/>
        <pt x="507" y="544" on="1"/>
        <pt x="498" y="564" on="0"/>
        <pt x="444" y="564" on="1"/>
        <pt x="444" y="585" on="1"/>
        <pt x="604" y="585" on="1"/>
        <pt x="604" y="564" on="1"/>
        <pt x="550" y="564" on="0"/>
        <pt x="541" y="544" on="1"/>
        <pt x="541" y="0" on="1"/>
        <pt x="532" y="0" on="1"/>
        <pt x="139" y="497" on="1"/>
        <pt x="139" y="41" on="1"/>
        <pt x="148" y="21" on="0"/>
        <pt x="202" y="21" on="1"/>
        <pt x="202" y="0" on="1"/>
      </contour>
    </TTGlyph>
    <TTGlyph name="Ncommaaccent" xMin="41" yMin="-248" xMax="603" yMax="585">
      <contour>
        <pt x="321" y="-125" on="1"/>
        <pt x="270" y="-125" on="0"/>
        <pt x="270" y="-81" on="1"/>
        <pt x="270" y="-63" on="0"/>
        <pt x="291" y="-42" on="0"/>
        <pt x="309" y="-38" on="0"/>
        <pt x="316" y="-38" on="1"/>
        <pt x="354" y="-38" on="0"/>
        <pt x="408" y="-85" on="0"/>
        <pt x="408" y="-125" on="1"/>
        <pt x="408" y="-209" on="0"/>
        <pt x="284" y="-248" on="1"/>
        <pt x="284" y="-220" on="1"/>
        <pt x="309" y="-217" on="0"/>
        <pt x="362" y="-168" on="0"/>
        <pt x="362" y="-137" on="1"/>
        <pt x="362" y="-119" on="0"/>
        <pt x="358" y="-112" on="0"/>
        <pt x="352" y="-112" on="1"/>
        <pt x="349" y="-112" on="0"/>
        <pt x="332" y="-125" on="0"/>
      </contour>
      <contour>
        <pt x="41" y="0" on="1"/>
        <pt x="41" y="21" on="1"/>
        <pt x="95" y="21" on="0"/>
        <pt x="104" y="41" on="1"/>
        <pt x="104" y="544" on="1"/>
        <pt x="95" y="564" on="0"/>
        <pt x="41" y="564" on="1"/>
        <pt x="41" y="585" on="1"/>
        <pt x="175" y="585" on="1"/>
        <pt x="506" y="176" on="1"/>
        <pt x="506" y="544" on="1"/>
        <pt x="497" y="564" on="0"/>
        <pt x="443" y="564" on="1"/>
        <pt x="443" y="585" on="1"/>
        <pt x="603" y="585" on="1"/>
        <pt x="603" y="564" on="1"/>
        <pt x="549" y="564" on="0"/>
        <pt x="540" y="544" on="1"/>
        <pt x="540" y="0" on="1"/>
        <pt x="531" y="0" on="1"/>
        <pt x="138" y="497" on="1"/>
        <pt x="138" y="41" on="1"/>
        <pt x="147" y="21" on="0"/>
        <pt x="201" y="21" on="1"/>
        <pt x="201" y="0" on="1"/>
      </contour>
    </TTGlyph>
    <TTGlyph name="Ntilde" xMin="42" yMin="0" xMax="604" yMax="732">
      <component glyphName="tilde" x="109" y="120" flags="0x1004"/>
      <component glyphName="N" x="0" y="0" flags="0x1204"/>
    </TTGlyph>
    <TTGlyph name="O" xMin="44" yMin="-10" xMax="598" yMax="595">
      <contour>
        <pt x="144" y="300" on="1"/>
        <pt x="144" y="234" on="0"/>
        <pt x="181" y="113" on="0"/>
        <pt x="266" y="24" on="0"/>
        <pt x="384" y="24" on="0"/>
        <pt x="465" y="108" on="0"/>
        <pt x="498" y="221" on="0"/>
        <pt x="498" y="284" on="1"/>
        <pt x="498" y="349" on="0"/>
        <pt x="460" y="472" on="0"/>
        <pt x="375" y="561" on="0"/>
        <pt x="317" y="561" on="1"/>
        <pt x="272" y="561" on="0"/>
        <pt x="203" y="513" on="0"/>
        <pt x="164" y="434" on="0"/>
        <pt x="144" y="346" on="0"/>
      </contour>
      <contour>
        <pt x="44" y="292" on="1"/>
        <pt x="44" y="417" on="0"/>
        <pt x="200" y="595" on="0"/>
        <pt x="442" y="595" on="0"/>
        <pt x="598" y="417" on="0"/>
        <pt x="598" y="167" on="0"/>
        <pt x="441" y="-10" on="0"/>
        <pt x="321" y="-10" on="1"/>
        <pt x="199" y="-10" on="0"/>
        <pt x="44" y="166" on="0"/>
      </contour>
    </TTGlyph>
    <TTGlyph name="OE" xMin="44" yMin="-10" xMax="803" yMax="595">
      <contour>
        <pt x="394" y="0" on="1"/>
        <pt x="361" y="-10" on="0"/>
        <pt x="321" y="-10" on="1"/>
        <pt x="199" y="-10" on="0"/>
        <pt x="44" y="166" on="0"/>
        <pt x="44" y="292" on="1"/>
        <pt x="44" y="417" on="0"/>
        <pt x="200" y="595" on="0"/>
        <pt x="321" y="595" on="1"/>
        <pt x="362" y="595" on="0"/>
        <pt x="395" y="585" on="1"/>
        <pt x="758" y="585" on="1"/>
        <pt x="758" y="488" on="1"/>
        <pt x="737" y="488" on="1"/>
        <pt x="737" y="542" on="0"/>
        <pt x="717" y="551" on="1"/>
        <pt x="510" y="551" on="1"/>
        <pt x="510" y="321" on="1"/>
        <pt x="650" y="321" on="1"/>
        <pt x="670" y="330" on="0"/>
        <pt x="670" y="384" on="1"/>
        <pt x="691" y="384" on="1"/>
        <pt x="691" y="224" on="1"/>
        <pt x="670" y="224" on="1"/>
        <pt x="670" y="278" on="0"/>
        <pt x="650" y="287" on="1"/>
        <pt x="510" y="287" on="1"/>
        <pt x="510" y="34" on="1"/>
        <pt x="738" y="34" on="1"/>
        <pt x="763" y="45" on="0"/>
        <pt x="783" y="97" on="1"/>
        <pt x="803" y="97" on="1"/>
        <pt x="779" y="0" on="1"/>
      </contour>
      <contour>
        <pt x="418" y="59" on="1"/>
        <pt x="418" y="517" on="1"/>
        <pt x="374" y="561" on="0"/>
        <pt x="317" y="561" on="1"/>
        <pt x="272" y="561" on="0"/>
        <pt x="203" y="513" on="0"/>
        <pt x="164" y="434" on="0"/>
        <pt x="144" y="346" on="0"/>
        <pt x="144" y="300" on="1"/>
        <pt x="144" y="234" on="0"/>
        <pt x="181" y="113" on="0"/>
        <pt x="266" y="24" on="0"/>
        <pt x="325" y="24" on="1"/>
        <pt x="378" y="24" on="0"/>
      </contour>
    </TTGlyph>
    <TTGlyph name="Oacute" xMin="44" yMin="-10" xMax="598" yMax="782">
      <component glyphName="uni02CA" x="248" y="120" flags="0x1004"/>
      <component glyphName="O" x="0" y="0" flags="0x1204"/>
    </TTGlyph>
    <TTGlyph name="Obar" xMin="44" yMin="-10" xMax="598" yMax="595">
      <contour>
        <pt x="44" y="292" on="1"/>
        <pt x="44" y="417" on="0"/>
        <pt x="200" y="595" on="0"/>
        <pt x="442" y="595" on="0"/>
        <pt x="598" y="417" on="0"/>
        <pt x="598" y="167" on="0"/>
        <pt x="441" y="-10" on="0"/>
        <pt x="321" y="-10" on="1"/>
        <pt x="199" y="-10" on="0"/>
        <pt x="44" y="166" on="0"/>
      </contour>
      <contour>
        <pt x="144" y="312" on="1"/>
        <pt x="497" y="312" on="1"/>
        <pt x="490" y="411" on="0"/>
        <pt x="396" y="561" on="0"/>
        <pt x="317" y="561" on="1"/>
        <pt x="234" y="561" on="0"/>
        <pt x="147" y="411" on="0"/>
      </contour>
      <contour>
        <pt x="498" y="278" on="1"/>
        <pt x="145" y="278" on="1"/>
        <pt x="148" y="215" on="0"/>
        <pt x="187" y="104" on="0"/>
        <pt x="269" y="24" on="0"/>
        <pt x="325" y="24" on="1"/>
        <pt x="383" y="24" on="0"/>
        <pt x="464" y="106" on="0"/>
        <pt x="497" y="216" on="0"/>
      </contour>
    </TTGlyph>
    <TTGlyph name="Obreve" xMin="44" yMin="-10" xMax="598" yMax="754">
      <contour>
        <pt x="321" y="630" on="1"/>
        <pt x="260" y="630" on="0"/>
        <pt x="195" y="711" on="0"/>
        <pt x="195" y="754" on="1"/>
        <pt x="223" y="754" on="1"/>
        <pt x="223" y="734" on="0"/>
        <pt x="274" y="702" on="0"/>
        <pt x="368" y="702" on="0"/>
        <pt x="419" y="733" on="0"/>
        <pt x="419" y="754" on="1"/>
        <pt x="447" y="754" on="1"/>
        <pt x="447" y="710" on="0"/>
        <pt x="383" y="630" on="0"/>
      </contour>
      <contour>
        <pt x="144" y="300" on="1"/>
        <pt x="144" y="234" on="0"/>
        <pt x="181" y="113" on="0"/>
        <pt x="266" y="24" on="0"/>
        <pt x="384" y="24" on="0"/>
        <pt x="465" y="108" on="0"/>
        <pt x="498" y="221" on="0"/>
        <pt x="498" y="284" on="1"/>
        <pt x="498" y="349" on="0"/>
        <pt x="460" y="472" on="0"/>
        <pt x="375" y="561" on="0"/>
        <pt x="317" y="561" on="1"/>
        <pt x="272" y="561" on="0"/>
        <pt x="203" y="513" on="0"/>
        <pt x="164" y="434" on="0"/>
        <pt x="144" y="346" on="0"/>
      </contour>
      <contour>
        <pt x="44" y="292" on="1"/>
        <pt x="44" y="417" on="0"/>
        <pt x="200" y="595" on="0"/>
        <pt x="442" y="595" on="0"/>
        <pt x="598" y="417" on="0"/>
        <pt x="598" y="167" on="0"/>
        <pt x="441" y="-10" on="0"/>
        <pt x="321" y="-10" on="1"/>
        <pt x="199" y="-10" on="0"/>
        <pt x="44" y="166" on="0"/>
      </contour>
    </TTGlyph>
    <TTGlyph name="Ocircumflex" xMin="44" yMin="-10" xMax="598" yMax="782">
      <component glyphName="circumflex" x="142" y="120" flags="0x1004"/>
      <component glyphName="O" x="0" y="0" flags="0x1204"/>
    </TTGlyph>
    <TTGlyph name="Odieresis" xMin="44" yMin="-10" xMax="598" yMax="718">
      <component glyphName="dieresis" x="120" y="120" flags="0x1004"/>
      <component glyphName="O" x="0" y="0" flags="0x1204"/>
    </TTGlyph>
    <TTGlyph name="Odotbelow" xMin="44" yMin="-153" xMax="598" yMax="595">
      <contour>
        <pt x="271" y="-123" on="0"/>
        <pt x="271" y="-81" on="0"/>
        <pt x="301" y="-51" on="0"/>
        <pt x="343" y="-51" on="0"/>
        <pt x="373" y="-81" on="0"/>
        <pt x="373" y="-123" on="0"/>
        <pt x="343" y="-153" on="0"/>
        <pt x="301" y="-153" on="0"/>
      </contour>
      <contour>
        <pt x="144" y="300" on="1"/>
        <pt x="144" y="234" on="0"/>
        <pt x="181" y="113" on="0"/>
        <pt x="266" y="24" on="0"/>
        <pt x="384" y="24" on="0"/>
        <pt x="465" y="108" on="0"/>
        <pt x="498" y="221" on="0"/>
        <pt x="498" y="284" on="1"/>
        <pt x="498" y="349" on="0"/>
        <pt x="460" y="472" on="0"/>
        <pt x="375" y="561" on="0"/>
        <pt x="317" y="561" on="1"/>
        <pt x="272" y="561" on="0"/>
        <pt x="203" y="513" on="0"/>
        <pt x="164" y="434" on="0"/>
        <pt x="144" y="346" on="0"/>
      </contour>
      <contour>
        <pt x="44" y="292" on="1"/>
        <pt x="44" y="417" on="0"/>
        <pt x="200" y="595" on="0"/>
        <pt x="442" y="595" on="0"/>
        <pt x="598" y="417" on="0"/>
        <pt x="598" y="167" on="0"/>
        <pt x="441" y="-10" on="0"/>
        <pt x="321" y="-10" on="1"/>
        <pt x="199" y="-10" on="0"/>
        <pt x="44" y="166" on="0"/>
      </contour>
    </TTGlyph>
    <TTGlyph name="Ograve" xMin="44" yMin="-10" xMax="598" yMax="782">
      <component glyphName="uni02CB" x="107" y="120" flags="0x1004"/>
      <component glyphName="O" x="0" y="0" flags="0x1204"/>
    </TTGlyph>
    <TTGlyph name="Ohorn" xMin="44" yMin="-10" xMax="641" yMax="625">
      <contour>
        <pt x="44" y="292" on="1"/>
        <pt x="44" y="417" on="0"/>
        <pt x="200" y="595" on="0"/>
        <pt x="321" y="595" on="1"/>
        <pt x="393" y="595" on="0"/>
        <pt x="511" y="528" on="0"/>
        <pt x="548" y="469" on="1"/>
        <pt x="593" y="486" on="0"/>
        <pt x="593" y="531" on="1"/>
        <pt x="593" y="538" on="0"/>
        <pt x="583" y="538" on="1"/>
        <pt x="581" y="538" on="0"/>
        <pt x="571" y="536" on="0"/>
        <pt x="567" y="536" on="1"/>
        <pt x="521" y="536" on="0"/>
        <pt x="521" y="580" on="1"/>
        <pt x="521" y="599" on="0"/>
        <pt x="548" y="625" on="0"/>
        <pt x="562" y="625" on="1"/>
        <pt x="598" y="625" on="0"/>
        <pt x="641" y="578" on="0"/>
        <pt x="641" y="540" on="1"/>
        <pt x="641" y="471" on="0"/>
        <pt x="560" y="448" on="1"/>
        <pt x="598" y="375" on="0"/>
        <pt x="598" y="292" on="1"/>
        <pt x="598" y="167" on="0"/>
        <pt x="441" y="-10" on="0"/>
        <pt x="321" y="-10" on="1"/>
        <pt x="199" y="-10" on="0"/>
        <pt x="44" y="166" on="0"/>
      </contour>
      <contour>
        <pt x="144" y="300" on="1"/>
        <pt x="144" y="234" on="0"/>
        <pt x="181" y="113" on="0"/>
        <pt x="266" y="24" on="0"/>
        <pt x="384" y="24" on="0"/>
        <pt x="465" y="108" on="0"/>
        <pt x="498" y="221" on="0"/>
        <pt x="498" y="284" on="1"/>
        <pt x="498" y="349" on="0"/>
        <pt x="460" y="472" on="0"/>
        <pt x="375" y="561" on="0"/>
        <pt x="317" y="561" on="1"/>
        <pt x="272" y="561" on="0"/>
        <pt x="203" y="513" on="0"/>
        <pt x="164" y="434" on="0"/>
        <pt x="144" y="346" on="0"/>
      </contour>
    </TTGlyph>
    <TTGlyph name="Ohungarumlaut" xMin="44" yMin="-10" xMax="598" yMax="782">
      <contour>
        <pt x="456" y="782" on="1"/>
        <pt x="562" y="782" on="1"/>
        <pt x="408" y="620" on="1"/>
        <pt x="382" y="620" on="1"/>
      </contour>
      <contour>
        <pt x="296" y="782" on="1"/>
        <pt x="402" y="782" on="1"/>
        <pt x="248" y="620" on="1"/>
        <pt x="222" y="620" on="1"/>
      </contour>
      <contour>
        <pt x="144" y="300" on="1"/>
        <pt x="144" y="234" on="0"/>
        <pt x="181" y="113" on="0"/>
        <pt x="266" y="24" on="0"/>
        <pt x="384" y="24" on="0"/>
        <pt x="465" y="108" on="0"/>
        <pt x="498" y="221" on="0"/>
        <pt x="498" y="284" on="1"/>
        <pt x="498" y="349" on="0"/>
        <pt x="460" y="472" on="0"/>
        <pt x="375" y="561" on="0"/>
        <pt x="317" y="561" on="1"/>
        <pt x="272" y="561" on="0"/>
        <pt x="203" y="513" on="0"/>
        <pt x="164" y="434" on="0"/>
        <pt x="144" y="346" on="0"/>
      </contour>
      <contour>
        <pt x="44" y="292" on="1"/>
        <pt x="44" y="417" on="0"/>
        <pt x="200" y="595" on="0"/>
        <pt x="442" y="595" on="0"/>
        <pt x="598" y="417" on="0"/>
        <pt x="598" y="167" on="0"/>
        <pt x="441" y="-10" on="0"/>
        <pt x="321" y="-10" on="1"/>
        <pt x="199" y="-10" on="0"/>
        <pt x="44" y="166" on="0"/>
      </contour>
    </TTGlyph>
    <TTGlyph name="Omacron" xMin="44" yMin="-10" xMax="598" yMax="678">
      <contour>
        <pt x="190" y="678" on="1"/>
        <pt x="454" y="678" on="1"/>
        <pt x="454" y="634" on="1"/>
        <pt x="190" y="634" on="1"/>
      </contour>
      <contour>
        <pt x="144" y="300" on="1"/>
        <pt x="144" y="234" on="0"/>
        <pt x="181" y="113" on="0"/>
        <pt x="266" y="24" on="0"/>
        <pt x="384" y="24" on="0"/>
        <pt x="465" y="108" on="0"/>
        <pt x="498" y="221" on="0"/>
        <pt x="498" y="284" on="1"/>
        <pt x="498" y="349" on="0"/>
        <pt x="460" y="472" on="0"/>
        <pt x="375" y="561" on="0"/>
        <pt x="317" y="561" on="1"/>
        <pt x="272" y="561" on="0"/>
        <pt x="203" y="513" on="0"/>
        <pt x="164" y="434" on="0"/>
        <pt x="144" y="346" on="0"/>
      </contour>
      <contour>
        <pt x="44" y="292" on="1"/>
        <pt x="44" y="417" on="0"/>
        <pt x="200" y="595" on="0"/>
        <pt x="442" y="595" on="0"/>
        <pt x="598" y="417" on="0"/>
        <pt x="598" y="167" on="0"/>
        <pt x="441" y="-10" on="0"/>
        <pt x="321" y="-10" on="1"/>
        <pt x="199" y="-10" on="0"/>
        <pt x="44" y="166" on="0"/>
      </contour>
    </TTGlyph>
    <TTGlyph name="Oopen" xMin="41" yMin="-10" xMax="536" yMax="595">
      <contour>
        <pt x="239" y="20" on="1"/>
        <pt x="318" y="20" on="0"/>
        <pt x="439" y="154" on="0"/>
        <pt x="439" y="279" on="1"/>
        <pt x="439" y="351" on="0"/>
        <pt x="398" y="465" on="0"/>
        <pt x="334" y="529" on="0"/>
        <pt x="266" y="561" on="0"/>
        <pt x="234" y="561" on="1"/>
        <pt x="182" y="561" on="0"/>
        <pt x="89" y="501" on="0"/>
        <pt x="65" y="454" on="1"/>
        <pt x="41" y="466" on="1"/>
        <pt x="66" y="522" on="0"/>
        <pt x="168" y="595" on="0"/>
        <pt x="247" y="595" on="1"/>
        <pt x="278" y="595" on="0"/>
        <pt x="348" y="579" on="0"/>
        <pt x="429" y="536" on="0"/>
        <pt x="493" y="473" on="0"/>
        <pt x="536" y="367" on="0"/>
        <pt x="536" y="301" on="1"/>
        <pt x="536" y="159" on="0"/>
        <pt x="368" y="-10" on="0"/>
        <pt x="257" y="-10" on="1"/>
        <pt x="150" y="-10" on="0"/>
        <pt x="41" y="68" on="0"/>
        <pt x="41" y="125" on="1"/>
        <pt x="41" y="148" on="0"/>
        <pt x="65" y="175" on="0"/>
        <pt x="84" y="175" on="1"/>
        <pt x="102" y="175" on="0"/>
        <pt x="129" y="157" on="0"/>
        <pt x="129" y="140" on="1"/>
        <pt x="129" y="119" on="0"/>
        <pt x="108" y="99" on="0"/>
        <pt x="94" y="99" on="1"/>
        <pt x="102" y="68" on="0"/>
        <pt x="184" y="20" on="0"/>
      </contour>
    </TTGlyph>
    <TTGlyph name="Oslash" xMin="44" yMin="-28" xMax="598" yMax="612">
      <contour>
        <pt x="432" y="501" on="1"/>
        <pt x="384" y="561" on="0"/>
        <pt x="317" y="561" on="1"/>
        <pt x="272" y="561" on="0"/>
        <pt x="203" y="513" on="0"/>
        <pt x="164" y="434" on="0"/>
        <pt x="144" y="346" on="0"/>
        <pt x="144" y="300" on="1"/>
        <pt x="144" y="191" on="0"/>
        <pt x="189" y="113" on="1"/>
      </contour>
      <contour>
        <pt x="453" y="470" on="1"/>
        <pt x="210" y="82" on="1"/>
        <pt x="256" y="24" on="0"/>
        <pt x="325" y="24" on="1"/>
        <pt x="384" y="24" on="0"/>
        <pt x="465" y="108" on="0"/>
        <pt x="498" y="221" on="0"/>
        <pt x="498" y="284" on="1"/>
        <pt x="498" y="392" on="0"/>
      </contour>
      <contour>
        <pt x="44" y="292" on="1"/>
        <pt x="44" y="417" on="0"/>
        <pt x="200" y="595" on="0"/>
        <pt x="321" y="595" on="1"/>
        <pt x="400" y="595" on="0"/>
        <pt x="465" y="554" on="1"/>
        <pt x="501" y="612" on="1"/>
        <pt x="530" y="594" on="1"/>
        <pt x="492" y="533" on="1"/>
        <pt x="542" y="491" on="0"/>
        <pt x="598" y="365" on="0"/>
        <pt x="598" y="292" on="1"/>
        <pt x="598" y="167" on="0"/>
        <pt x="441" y="-10" on="0"/>
        <pt x="321" y="-10" on="1"/>
        <pt x="241" y="-10" on="0"/>
        <pt x="178" y="30" on="1"/>
        <pt x="141" y="-28" on="1"/>
        <pt x="112" y="-10" on="1"/>
        <pt x="150" y="51" on="1"/>
        <pt x="100" y="93" on="0"/>
        <pt x="44" y="219" on="0"/>
      </contour>
    </TTGlyph>
    <TTGlyph name="Oslashacute" xMin="44" yMin="-28" xMax="598" yMax="782">
      <contour>
        <pt x="382" y="782" on="1"/>
        <pt x="488" y="782" on="1"/>
        <pt x="334" y="620" on="1"/>
        <pt x="308" y="620" on="1"/>
      </contour>
      <contour>
        <pt x="432" y="501" on="1"/>
        <pt x="384" y="561" on="0"/>
        <pt x="317" y="561" on="1"/>
        <pt x="272" y="561" on="0"/>
        <pt x="203" y="513" on="0"/>
        <pt x="164" y="434" on="0"/>
        <pt x="144" y="346" on="0"/>
        <pt x="144" y="300" on="1"/>
        <pt x="144" y="191" on="0"/>
        <pt x="189" y="113" on="1"/>
      </contour>
      <contour>
        <pt x="453" y="470" on="1"/>
        <pt x="210" y="82" on="1"/>
        <pt x="256" y="24" on="0"/>
        <pt x="325" y="24" on="1"/>
        <pt x="384" y="24" on="0"/>
        <pt x="465" y="108" on="0"/>
        <pt x="498" y="221" on="0"/>
        <pt x="498" y="284" on="1"/>
        <pt x="498" y="392" on="0"/>
      </contour>
      <contour>
        <pt x="44" y="292" on="1"/>
        <pt x="44" y="417" on="0"/>
        <pt x="200" y="595" on="0"/>
        <pt x="321" y="595" on="1"/>
        <pt x="400" y="595" on="0"/>
        <pt x="465" y="554" on="1"/>
        <pt x="501" y="612" on="1"/>
        <pt x="530" y="594" on="1"/>
        <pt x="492" y="533" on="1"/>
        <pt x="542" y="491" on="0"/>
        <pt x="598" y="365" on="0"/>
        <pt x="598" y="292" on="1"/>
        <pt x="598" y="167" on="0"/>
        <pt x="441" y="-10" on="0"/>
        <pt x="321" y="-10" on="1"/>
        <pt x="241" y="-10" on="0"/>
        <pt x="178" y="30" on="1"/>
        <pt x="141" y="-28" on="1"/>
        <pt x="112" y="-10" on="1"/>
        <pt x="150" y="51" on="1"/>
        <pt x="100" y="93" on="0"/>
        <pt x="44" y="219" on="0"/>
      </contour>
    </TTGlyph>
    <TTGlyph name="Otilde" xMin="44" yMin="-10" xMax="598" yMax="732">
      <component glyphName="tilde" x="112" y="120" flags="0x1004"/>
      <component glyphName="O" x="0" y="0" flags="0x1204"/>
    </TTGlyph>
    <TTGlyph name="P" xMin="42" yMin="0" xMax="520" yMax="585">
      <contour>
        <pt x="42" y="0" on="1"/>
        <pt x="42" y="21" on="1"/>
        <pt x="96" y="21" on="0"/>
        <pt x="105" y="41" on="1"/>
        <pt x="105" y="544" on="1"/>
        <pt x="96" y="564" on="0"/>
        <pt x="42" y="564" on="1"/>
        <pt x="42" y="585" on="1"/>
        <pt x="268" y="585" on="1"/>
        <pt x="391" y="585" on="0"/>
        <pt x="520" y="491" on="0"/>
        <pt x="520" y="433" on="1"/>
        <pt x="520" y="358" on="0"/>
        <pt x="400" y="266" on="0"/>
        <pt x="280" y="266" on="1"/>
        <pt x="197" y="266" on="1"/>
        <pt x="197" y="41" on="1"/>
        <pt x="206" y="21" on="0"/>
        <pt x="260" y="21" on="1"/>
        <pt x="260" y="0" on="1"/>
      </contour>
      <contour>
        <pt x="197" y="551" on="1"/>
        <pt x="197" y="300" on="1"/>
        <pt x="280" y="300" on="1"/>
        <pt x="357" y="300" on="0"/>
        <pt x="420" y="361" on="0"/>
        <pt x="420" y="432" on="1"/>
        <pt x="420" y="551" on="0"/>
        <pt x="268" y="551" on="1"/>
      </contour>
    </TTGlyph>
    <TTGlyph name="Q" xMin="44" yMin="-102" xMax="669" yMax="595">
      <contour>
        <pt x="44" y="292" on="1"/>
        <pt x="44" y="417" on="0"/>
        <pt x="200" y="595" on="0"/>
        <pt x="442" y="595" on="0"/>
        <pt x="598" y="417" on="0"/>
        <pt x="598" y="292" on="1"/>
        <pt x="598" y="215" on="0"/>
        <pt x="535" y="82" on="0"/>
        <pt x="479" y="41" on="1"/>
        <pt x="483" y="33" on="0"/>
        <pt x="502" y="-3" on="0"/>
        <pt x="511" y="-19" on="0"/>
        <pt x="529" y="-45" on="0"/>
        <pt x="543" y="-56" on="0"/>
        <pt x="563" y="-66" on="0"/>
        <pt x="574" y="-66" on="1"/>
        <pt x="598" y="-66" on="0"/>
        <pt x="638" y="-43" on="0"/>
        <pt x="646" y="-32" on="1"/>
        <pt x="654" y="-20" on="1"/>
        <pt x="669" y="-31" on="1"/>
        <pt x="668" y="-34" on="0"/>
        <pt x="663" y="-43" on="0"/>
        <pt x="646" y="-68" on="0"/>
        <pt x="626" y="-87" on="0"/>
        <pt x="592" y="-102" on="0"/>
        <pt x="574" y="-102" on="1"/>
        <pt x="508" y="-102" on="0"/>
        <pt x="433" y="-45" on="0"/>
        <pt x="407" y="4" on="1"/>
        <pt x="365" y="-10" on="0"/>
        <pt x="321" y="-10" on="1"/>
        <pt x="199" y="-10" on="0"/>
        <pt x="44" y="166" on="0"/>
      </contour>
      <contour>
        <pt x="231" y="61" on="1"/>
        <pt x="271" y="24" on="0"/>
        <pt x="325" y="24" on="1"/>
        <pt x="362" y="24" on="0"/>
        <pt x="390" y="39" on="1"/>
        <pt x="375" y="71" on="0"/>
        <pt x="347" y="102" on="0"/>
        <pt x="326" y="102" on="1"/>
        <pt x="270" y="102" on="0"/>
      </contour>
      <contour>
        <pt x="446" y="91" on="1"/>
        <pt x="498" y="166" on="0"/>
        <pt x="498" y="284" on="1"/>
        <pt x="498" y="349" on="0"/>
        <pt x="460" y="472" on="0"/>
        <pt x="375" y="561" on="0"/>
        <pt x="317" y="561" on="1"/>
        <pt x="272" y="561" on="0"/>
        <pt x="203" y="513" on="0"/>
        <pt x="164" y="434" on="0"/>
        <pt x="144" y="346" on="0"/>
        <pt x="144" y="300" on="1"/>
        <pt x="144" y="160" on="0"/>
        <pt x="214" y="78" on="1"/>
        <pt x="259" y="146" on="0"/>
        <pt x="332" y="146" on="1"/>
        <pt x="401" y="146" on="0"/>
      </contour>
    </TTGlyph>
    <TTGlyph name="R" xMin="42" yMin="0" xMax="588" yMax="585">
      <contour>
        <pt x="42" y="0" on="1"/>
        <pt x="42" y="21" on="1"/>
        <pt x="96" y="21" on="0"/>
        <pt x="105" y="41" on="1"/>
        <pt x="105" y="544" on="1"/>
        <pt x="96" y="564" on="0"/>
        <pt x="42" y="564" on="1"/>
        <pt x="42" y="585" on="1"/>
        <pt x="268" y="585" on="1"/>
        <pt x="392" y="585" on="0"/>
        <pt x="520" y="495" on="0"/>
        <pt x="520" y="437" on="1"/>
        <pt x="520" y="382" on="0"/>
        <pt x="454" y="299" on="0"/>
        <pt x="389" y="280" on="1"/>
        <pt x="522" y="42" on="1"/>
        <pt x="532" y="21" on="0"/>
        <pt x="588" y="21" on="1"/>
        <pt x="588" y="0" on="1"/>
        <pt x="545" y="0" on="1"/>
        <pt x="475" y="0" on="0"/>
        <pt x="433" y="16" on="0"/>
        <pt x="412" y="52" on="1"/>
        <pt x="291" y="266" on="1"/>
        <pt x="197" y="266" on="1"/>
        <pt x="197" y="41" on="1"/>
        <pt x="206" y="21" on="0"/>
        <pt x="260" y="21" on="1"/>
        <pt x="260" y="0" on="1"/>
      </contour>
      <contour>
        <pt x="197" y="551" on="1"/>
        <pt x="197" y="300" on="1"/>
        <pt x="280" y="300" on="1"/>
        <pt x="360" y="300" on="0"/>
        <pt x="420" y="362" on="0"/>
        <pt x="420" y="436" on="1"/>
        <pt x="420" y="491" on="0"/>
        <pt x="353" y="551" on="0"/>
        <pt x="268" y="551" on="1"/>
      </contour>
    </TTGlyph>
    <TTGlyph name="Racute" xMin="42" yMin="0" xMax="588" yMax="782">
      <contour>
        <pt x="345" y="782" on="1"/>
        <pt x="451" y="782" on="1"/>
        <pt x="297" y="620" on="1"/>
        <pt x="271" y="620" on="1"/>
      </contour>
      <contour>
        <pt x="42" y="0" on="1"/>
        <pt x="42" y="21" on="1"/>
        <pt x="96" y="21" on="0"/>
        <pt x="105" y="41" on="1"/>
        <pt x="105" y="544" on="1"/>
        <pt x="96" y="564" on="0"/>
        <pt x="42" y="564" on="1"/>
        <pt x="42" y="585" on="1"/>
        <pt x="268" y="585" on="1"/>
        <pt x="392" y="585" on="0"/>
        <pt x="520" y="495" on="0"/>
        <pt x="520" y="437" on="1"/>
        <pt x="520" y="382" on="0"/>
        <pt x="454" y="299" on="0"/>
        <pt x="389" y="280" on="1"/>
        <pt x="522" y="42" on="1"/>
        <pt x="532" y="21" on="0"/>
        <pt x="588" y="21" on="1"/>
        <pt x="588" y="0" on="1"/>
        <pt x="545" y="0" on="1"/>
        <pt x="475" y="0" on="0"/>
        <pt x="433" y="16" on="0"/>
        <pt x="412" y="52" on="1"/>
        <pt x="291" y="266" on="1"/>
        <pt x="197" y="266" on="1"/>
        <pt x="197" y="41" on="1"/>
        <pt x="206" y="21" on="0"/>
        <pt x="260" y="21" on="1"/>
        <pt x="260" y="0" on="1"/>
      </contour>
      <contour>
        <pt x="197" y="551" on="1"/>
        <pt x="197" y="300" on="1"/>
        <pt x="280" y="300" on="1"/>
        <pt x="360" y="300" on="0"/>
        <pt x="420" y="362" on="0"/>
        <pt x="420" y="436" on="1"/>
        <pt x="420" y="491" on="0"/>
        <pt x="353" y="551" on="0"/>
        <pt x="268" y="551" on="1"/>
      </contour>
    </TTGlyph>
    <TTGlyph name="Rcaron" xMin="42" yMin="0" xMax="588" yMax="782">
      <contour>
        <pt x="260" y="620" on="1"/>
        <pt x="166" y="782" on="1"/>
        <pt x="192" y="782" on="1"/>
        <pt x="285" y="695" on="1"/>
        <pt x="378" y="782" on="1"/>
        <pt x="404" y="782" on="1"/>
        <pt x="310" y="620" on="1"/>
      </contour>
      <contour>
        <pt x="42" y="0" on="1"/>
        <pt x="42" y="21" on="1"/>
        <pt x="96" y="21" on="0"/>
        <pt x="105" y="41" on="1"/>
        <pt x="105" y="544" on="1"/>
        <pt x="96" y="564" on="0"/>
        <pt x="42" y="564" on="1"/>
        <pt x="42" y="585" on="1"/>
        <pt x="268" y="585" on="1"/>
        <pt x="392" y="585" on="0"/>
        <pt x="520" y="495" on="0"/>
        <pt x="520" y="437" on="1"/>
        <pt x="520" y="382" on="0"/>
        <pt x="454" y="299" on="0"/>
        <pt x="389" y="280" on="1"/>
        <pt x="522" y="42" on="1"/>
        <pt x="532" y="21" on="0"/>
        <pt x="588" y="21" on="1"/>
        <pt x="588" y="0" on="1"/>
        <pt x="545" y="0" on="1"/>
        <pt x="475" y="0" on="0"/>
        <pt x="433" y="16" on="0"/>
        <pt x="412" y="52" on="1"/>
        <pt x="291" y="266" on="1"/>
        <pt x="197" y="266" on="1"/>
        <pt x="197" y="41" on="1"/>
        <pt x="206" y="21" on="0"/>
        <pt x="260" y="21" on="1"/>
        <pt x="260" y="0" on="1"/>
      </contour>
      <contour>
        <pt x="197" y="551" on="1"/>
        <pt x="197" y="300" on="1"/>
        <pt x="280" y="300" on="1"/>
        <pt x="360" y="300" on="0"/>
        <pt x="420" y="362" on="0"/>
        <pt x="420" y="436" on="1"/>
        <pt x="420" y="491" on="0"/>
        <pt x="353" y="551" on="0"/>
        <pt x="268" y="551" on="1"/>
      </contour>
    </TTGlyph>
    <TTGlyph name="Rcommaaccent" xMin="41" yMin="-248" xMax="587" yMax="585">
      <contour>
        <pt x="325" y="-125" on="1"/>
        <pt x="274" y="-125" on="0"/>
        <pt x="274" y="-81" on="1"/>
        <pt x="274" y="-63" on="0"/>
        <pt x="295" y="-42" on="0"/>
        <pt x="313" y="-38" on="0"/>
        <pt x="320" y="-38" on="1"/>
        <pt x="358" y="-38" on="0"/>
        <pt x="412" y="-85" on="0"/>
        <pt x="412" y="-125" on="1"/>
        <pt x="412" y="-209" on="0"/>
        <pt x="288" y="-248" on="1"/>
        <pt x="288" y="-220" on="1"/>
        <pt x="313" y="-217" on="0"/>
        <pt x="366" y="-168" on="0"/>
        <pt x="366" y="-137" on="1"/>
        <pt x="366" y="-119" on="0"/>
        <pt x="362" y="-112" on="0"/>
        <pt x="356" y="-112" on="1"/>
        <pt x="353" y="-112" on="0"/>
        <pt x="336" y="-125" on="0"/>
      </contour>
      <contour>
        <pt x="41" y="0" on="1"/>
        <pt x="41" y="21" on="1"/>
        <pt x="95" y="21" on="0"/>
        <pt x="104" y="41" on="1"/>
        <pt x="104" y="544" on="1"/>
        <pt x="95" y="564" on="0"/>
        <pt x="41" y="564" on="1"/>
        <pt x="41" y="585" on="1"/>
        <pt x="267" y="585" on="1"/>
        <pt x="391" y="585" on="0"/>
        <pt x="519" y="495" on="0"/>
        <pt x="519" y="437" on="1"/>
        <pt x="519" y="382" on="0"/>
        <pt x="453" y="299" on="0"/>
        <pt x="388" y="280" on="1"/>
        <pt x="521" y="42" on="1"/>
        <pt x="532" y="21" on="0"/>
        <pt x="587" y="21" on="1"/>
        <pt x="587" y="0" on="1"/>
        <pt x="544" y="0" on="1"/>
        <pt x="474" y="0" on="0"/>
        <pt x="432" y="16" on="0"/>
        <pt x="411" y="52" on="1"/>
        <pt x="290" y="266" on="1"/>
        <pt x="196" y="266" on="1"/>
        <pt x="196" y="41" on="1"/>
        <pt x="205" y="21" on="0"/>
        <pt x="259" y="21" on="1"/>
        <pt x="259" y="0" on="1"/>
      </contour>
      <contour>
        <pt x="196" y="551" on="1"/>
        <pt x="196" y="300" on="1"/>
        <pt x="279" y="300" on="1"/>
        <pt x="359" y="300" on="0"/>
        <pt x="419" y="362" on="0"/>
        <pt x="419" y="436" on="1"/>
        <pt x="419" y="491" on="0"/>
        <pt x="352" y="551" on="0"/>
        <pt x="267" y="551" on="1"/>
      </contour>
    </TTGlyph>
    <TTGlyph name="S" xMin="51" yMin="-10" xMax="446" yMax="595">
      <contour>
        <pt x="249" y="-10" on="1"/>
        <pt x="200" y="-10" on="0"/>
        <pt x="98" y="20" on="0"/>
        <pt x="96" y="20" on="1"/>
        <pt x="90" y="20" on="0"/>
        <pt x="74" y="8" on="0"/>
        <pt x="74" y="0" on="1"/>
        <pt x="51" y="0" on="1"/>
        <pt x="51" y="139" on="1"/>
        <pt x="73" y="139" on="1"/>
        <pt x="84" y="79" on="0"/>
        <pt x="181" y="24" on="0"/>
        <pt x="243" y="24" on="1"/>
        <pt x="296" y="24" on="0"/>
        <pt x="364" y="72" on="0"/>
        <pt x="364" y="120" on="1"/>
        <pt x="364" y="142" on="0"/>
        <pt x="345" y="178" on="0"/>
        <pt x="306" y="209" on="0"/>
        <pt x="270" y="230" on="0"/>
        <pt x="213" y="261" on="0"/>
        <pt x="198" y="270" on="1"/>
        <pt x="163" y="292" on="0"/>
        <pt x="129" y="315" on="0"/>
        <pt x="76" y="361" on="0"/>
        <pt x="52" y="411" on="0"/>
        <pt x="52" y="440" on="1"/>
        <pt x="52" y="499" on="0"/>
        <pt x="160" y="595" on="0"/>
        <pt x="227" y="595" on="1"/>
        <pt x="256" y="595" on="0"/>
        <pt x="342" y="565" on="0"/>
        <pt x="348" y="565" on="1"/>
        <pt x="360" y="565" on="0"/>
        <pt x="360" y="585" on="1"/>
        <pt x="383" y="585" on="1"/>
        <pt x="393" y="458" on="1"/>
        <pt x="371" y="458" on="1"/>
        <pt x="365" y="502" on="0"/>
        <pt x="289" y="561" on="0"/>
        <pt x="228" y="561" on="1"/>
        <pt x="182" y="561" on="0"/>
        <pt x="127" y="502" on="0"/>
        <pt x="127" y="472" on="1"/>
        <pt x="127" y="453" on="0"/>
        <pt x="145" y="420" on="0"/>
        <pt x="183" y="392" on="0"/>
        <pt x="217" y="371" on="0"/>
        <pt x="274" y="341" on="0"/>
        <pt x="289" y="332" on="1"/>
        <pt x="330" y="307" on="0"/>
        <pt x="366" y="283" on="0"/>
        <pt x="423" y="233" on="0"/>
        <pt x="446" y="180" on="0"/>
        <pt x="446" y="148" on="1"/>
        <pt x="446" y="74" on="0"/>
        <pt x="326" y="-10" on="0"/>
      </contour>
    </TTGlyph>
    <TTGlyph name="Sacute" xMin="51" yMin="-10" xMax="446" yMax="782">
      <contour>
        <pt x="288" y="782" on="1"/>
        <pt x="394" y="782" on="1"/>
        <pt x="240" y="620" on="1"/>
        <pt x="214" y="620" on="1"/>
      </contour>
      <contour>
        <pt x="249" y="-10" on="1"/>
        <pt x="200" y="-10" on="0"/>
        <pt x="98" y="20" on="0"/>
        <pt x="96" y="20" on="1"/>
        <pt x="90" y="20" on="0"/>
        <pt x="74" y="8" on="0"/>
        <pt x="74" y="0" on="1"/>
        <pt x="51" y="0" on="1"/>
        <pt x="51" y="139" on="1"/>
        <pt x="73" y="139" on="1"/>
        <pt x="84" y="79" on="0"/>
        <pt x="181" y="24" on="0"/>
        <pt x="243" y="24" on="1"/>
        <pt x="296" y="24" on="0"/>
        <pt x="364" y="72" on="0"/>
        <pt x="364" y="120" on="1"/>
        <pt x="364" y="142" on="0"/>
        <pt x="345" y="178" on="0"/>
        <pt x="306" y="209" on="0"/>
        <pt x="270" y="230" on="0"/>
        <pt x="213" y="261" on="0"/>
        <pt x="198" y="270" on="1"/>
        <pt x="163" y="292" on="0"/>
        <pt x="129" y="315" on="0"/>
        <pt x="76" y="361" on="0"/>
        <pt x="52" y="411" on="0"/>
        <pt x="52" y="440" on="1"/>
        <pt x="52" y="499" on="0"/>
        <pt x="160" y="595" on="0"/>
        <pt x="227" y="595" on="1"/>
        <pt x="256" y="595" on="0"/>
        <pt x="342" y="565" on="0"/>
        <pt x="348" y="565" on="1"/>
        <pt x="360" y="565" on="0"/>
        <pt x="360" y="585" on="1"/>
        <pt x="383" y="585" on="1"/>
        <pt x="393" y="458" on="1"/>
        <pt x="371" y="458" on="1"/>
        <pt x="365" y="502" on="0"/>
        <pt x="289" y="561" on="0"/>
        <pt x="228" y="561" on="1"/>
        <pt x="182" y="561" on="0"/>
        <pt x="127" y="502" on="0"/>
        <pt x="127" y="472" on="1"/>
        <pt x="127" y="453" on="0"/>
        <pt x="145" y="420" on="0"/>
        <pt x="183" y="392" on="0"/>
        <pt x="217" y="371" on="0"/>
        <pt x="274" y="341" on="0"/>
        <pt x="289" y="332" on="1"/>
        <pt x="330" y="307" on="0"/>
        <pt x="366" y="283" on="0"/>
        <pt x="423" y="233" on="0"/>
        <pt x="446" y="180" on="0"/>
        <pt x="446" y="148" on="1"/>
        <pt x="446" y="74" on="0"/>
        <pt x="326" y="-10" on="0"/>
      </contour>
    </TTGlyph>
    <TTGlyph name="Scaron" xMin="51" yMin="-10" xMax="446" yMax="782">
      <contour>
        <pt x="203" y="620" on="1"/>
        <pt x="109" y="782" on="1"/>
        <pt x="135" y="782" on="1"/>
        <pt x="228" y="695" on="1"/>
        <pt x="321" y="782" on="1"/>
        <pt x="347" y="782" on="1"/>
        <pt x="253" y="620" on="1"/>
      </contour>
      <contour>
        <pt x="249" y="-10" on="1"/>
        <pt x="200" y="-10" on="0"/>
        <pt x="98" y="20" on="0"/>
        <pt x="96" y="20" on="1"/>
        <pt x="90" y="20" on="0"/>
        <pt x="74" y="8" on="0"/>
        <pt x="74" y="0" on="1"/>
        <pt x="51" y="0" on="1"/>
        <pt x="51" y="139" on="1"/>
        <pt x="73" y="139" on="1"/>
        <pt x="84" y="79" on="0"/>
        <pt x="181" y="24" on="0"/>
        <pt x="243" y="24" on="1"/>
        <pt x="296" y="24" on="0"/>
        <pt x="364" y="72" on="0"/>
        <pt x="364" y="120" on="1"/>
        <pt x="364" y="142" on="0"/>
        <pt x="345" y="178" on="0"/>
        <pt x="306" y="209" on="0"/>
        <pt x="270" y="230" on="0"/>
        <pt x="213" y="261" on="0"/>
        <pt x="198" y="270" on="1"/>
        <pt x="163" y="292" on="0"/>
        <pt x="129" y="315" on="0"/>
        <pt x="76" y="361" on="0"/>
        <pt x="52" y="411" on="0"/>
        <pt x="52" y="440" on="1"/>
        <pt x="52" y="499" on="0"/>
        <pt x="160" y="595" on="0"/>
        <pt x="227" y="595" on="1"/>
        <pt x="256" y="595" on="0"/>
        <pt x="342" y="565" on="0"/>
        <pt x="348" y="565" on="1"/>
        <pt x="360" y="565" on="0"/>
        <pt x="360" y="585" on="1"/>
        <pt x="383" y="585" on="1"/>
        <pt x="393" y="458" on="1"/>
        <pt x="371" y="458" on="1"/>
        <pt x="365" y="502" on="0"/>
        <pt x="289" y="561" on="0"/>
        <pt x="228" y="561" on="1"/>
        <pt x="182" y="561" on="0"/>
        <pt x="127" y="502" on="0"/>
        <pt x="127" y="472" on="1"/>
        <pt x="127" y="453" on="0"/>
        <pt x="145" y="420" on="0"/>
        <pt x="183" y="392" on="0"/>
        <pt x="217" y="371" on="0"/>
        <pt x="274" y="341" on="0"/>
        <pt x="289" y="332" on="1"/>
        <pt x="330" y="307" on="0"/>
        <pt x="366" y="283" on="0"/>
        <pt x="423" y="233" on="0"/>
        <pt x="446" y="180" on="0"/>
        <pt x="446" y="148" on="1"/>
        <pt x="446" y="74" on="0"/>
        <pt x="326" y="-10" on="0"/>
      </contour>
    </TTGlyph>
    <TTGlyph name="Scedilla" xMin="51" yMin="-199" xMax="446" yMax="595">
      <contour>
        <pt x="255" y="-10" on="1"/>
        <pt x="243" y="-55" on="1"/>
        <pt x="275" y="-55" on="0"/>
        <pt x="343" y="-88" on="0"/>
        <pt x="343" y="-122" on="1"/>
        <pt x="343" y="-199" on="0"/>
        <pt x="233" y="-199" on="1"/>
        <pt x="200" y="-199" on="0"/>
        <pt x="159" y="-192" on="1"/>
        <pt x="159" y="-175" on="1"/>
        <pt x="177" y="-177" on="0"/>
        <pt x="184" y="-177" on="1"/>
        <pt x="222" y="-177" on="0"/>
        <pt x="256" y="-148" on="0"/>
        <pt x="256" y="-130" on="1"/>
        <pt x="256" y="-86" on="0"/>
        <pt x="195" y="-86" on="1"/>
        <pt x="217" y="-8" on="1"/>
        <pt x="180" y="-5" on="0"/>
        <pt x="100" y="20" on="0"/>
        <pt x="96" y="20" on="1"/>
        <pt x="90" y="20" on="0"/>
        <pt x="74" y="8" on="0"/>
        <pt x="74" y="0" on="1"/>
        <pt x="51" y="0" on="1"/>
        <pt x="51" y="139" on="1"/>
        <pt x="73" y="139" on="1"/>
        <pt x="84" y="79" on="0"/>
        <pt x="181" y="24" on="0"/>
        <pt x="243" y="24" on="1"/>
        <pt x="296" y="24" on="0"/>
        <pt x="364" y="72" on="0"/>
        <pt x="364" y="120" on="1"/>
        <pt x="364" y="142" on="0"/>
        <pt x="345" y="178" on="0"/>
        <pt x="306" y="209" on="0"/>
        <pt x="270" y="230" on="0"/>
        <pt x="213" y="261" on="0"/>
        <pt x="198" y="270" on="1"/>
        <pt x="163" y="292" on="0"/>
        <pt x="129" y="315" on="0"/>
        <pt x="76" y="361" on="0"/>
        <pt x="52" y="411" on="0"/>
        <pt x="52" y="440" on="1"/>
        <pt x="52" y="499" on="0"/>
        <pt x="160" y="595" on="0"/>
        <pt x="227" y="595" on="1"/>
        <pt x="256" y="595" on="0"/>
        <pt x="342" y="565" on="0"/>
        <pt x="348" y="565" on="1"/>
        <pt x="360" y="565" on="0"/>
        <pt x="360" y="585" on="1"/>
        <pt x="383" y="585" on="1"/>
        <pt x="393" y="458" on="1"/>
        <pt x="371" y="458" on="1"/>
        <pt x="365" y="502" on="0"/>
        <pt x="289" y="561" on="0"/>
        <pt x="228" y="561" on="1"/>
        <pt x="182" y="561" on="0"/>
        <pt x="127" y="502" on="0"/>
        <pt x="127" y="472" on="1"/>
        <pt x="127" y="453" on="0"/>
        <pt x="145" y="420" on="0"/>
        <pt x="183" y="392" on="0"/>
        <pt x="217" y="371" on="0"/>
        <pt x="274" y="341" on="0"/>
        <pt x="289" y="332" on="1"/>
        <pt x="330" y="307" on="0"/>
        <pt x="366" y="283" on="0"/>
        <pt x="423" y="233" on="0"/>
        <pt x="446" y="180" on="0"/>
        <pt x="446" y="148" on="1"/>
        <pt x="446" y="75" on="0"/>
        <pt x="330" y="-8" on="0"/>
      </contour>
    </TTGlyph>
    <TTGlyph name="Schwa" xMin="28" yMin="-10" xMax="577" yMax="595">
      <contour>
        <pt x="472" y="246" on="1"/>
        <pt x="135" y="246" on="1"/>
        <pt x="145" y="147" on="0"/>
        <pt x="231" y="24" on="0"/>
        <pt x="289" y="24" on="1"/>
        <pt x="368" y="24" on="0"/>
        <pt x="465" y="144" on="0"/>
      </contour>
      <contour>
        <pt x="473" y="280" on="1"/>
        <pt x="473" y="412" on="0"/>
        <pt x="353" y="561" on="0"/>
        <pt x="269" y="561" on="1"/>
        <pt x="219" y="561" on="0"/>
        <pt x="121" y="492" on="0"/>
        <pt x="107" y="453" on="1"/>
        <pt x="83" y="465" on="1"/>
        <pt x="106" y="520" on="0"/>
        <pt x="205" y="595" on="0"/>
        <pt x="289" y="595" on="1"/>
        <pt x="422" y="595" on="0"/>
        <pt x="577" y="422" on="0"/>
        <pt x="577" y="301" on="1"/>
        <pt x="577" y="160" on="0"/>
        <pt x="412" y="-10" on="0"/>
        <pt x="290" y="-10" on="1"/>
        <pt x="179" y="-10" on="0"/>
        <pt x="28" y="153" on="0"/>
        <pt x="28" y="280" on="1"/>
      </contour>
    </TTGlyph>
    <TTGlyph name="Scircumflex" xMin="51" yMin="-10" xMax="446" yMax="782">
      <contour>
        <pt x="252" y="782" on="1"/>
        <pt x="346" y="620" on="1"/>
        <pt x="320" y="620" on="1"/>
        <pt x="227" y="707" on="1"/>
        <pt x="134" y="620" on="1"/>
        <pt x="108" y="620" on="1"/>
        <pt x="202" y="782" on="1"/>
      </contour>
      <contour>
        <pt x="249" y="-10" on="1"/>
        <pt x="200" y="-10" on="0"/>
        <pt x="98" y="20" on="0"/>
        <pt x="96" y="20" on="1"/>
        <pt x="90" y="20" on="0"/>
        <pt x="74" y="8" on="0"/>
        <pt x="74" y="0" on="1"/>
        <pt x="51" y="0" on="1"/>
        <pt x="51" y="139" on="1"/>
        <pt x="73" y="139" on="1"/>
        <pt x="84" y="79" on="0"/>
        <pt x="181" y="24" on="0"/>
        <pt x="243" y="24" on="1"/>
        <pt x="296" y="24" on="0"/>
        <pt x="364" y="72" on="0"/>
        <pt x="364" y="120" on="1"/>
        <pt x="364" y="142" on="0"/>
        <pt x="345" y="178" on="0"/>
        <pt x="306" y="209" on="0"/>
        <pt x="270" y="230" on="0"/>
        <pt x="213" y="261" on="0"/>
        <pt x="198" y="270" on="1"/>
        <pt x="163" y="292" on="0"/>
        <pt x="129" y="315" on="0"/>
        <pt x="76" y="361" on="0"/>
        <pt x="52" y="411" on="0"/>
        <pt x="52" y="440" on="1"/>
        <pt x="52" y="499" on="0"/>
        <pt x="160" y="595" on="0"/>
        <pt x="227" y="595" on="1"/>
        <pt x="256" y="595" on="0"/>
        <pt x="342" y="565" on="0"/>
        <pt x="348" y="565" on="1"/>
        <pt x="360" y="565" on="0"/>
        <pt x="360" y="585" on="1"/>
        <pt x="383" y="585" on="1"/>
        <pt x="393" y="458" on="1"/>
        <pt x="371" y="458" on="1"/>
        <pt x="365" y="502" on="0"/>
        <pt x="289" y="561" on="0"/>
        <pt x="228" y="561" on="1"/>
        <pt x="182" y="561" on="0"/>
        <pt x="127" y="502" on="0"/>
        <pt x="127" y="472" on="1"/>
        <pt x="127" y="453" on="0"/>
        <pt x="145" y="420" on="0"/>
        <pt x="183" y="392" on="0"/>
        <pt x="217" y="371" on="0"/>
        <pt x="274" y="341" on="0"/>
        <pt x="289" y="332" on="1"/>
        <pt x="330" y="307" on="0"/>
        <pt x="366" y="283" on="0"/>
        <pt x="423" y="233" on="0"/>
        <pt x="446" y="180" on="0"/>
        <pt x="446" y="148" on="1"/>
        <pt x="446" y="74" on="0"/>
        <pt x="326" y="-10" on="0"/>
      </contour>
    </TTGlyph>
    <TTGlyph name="Scommaaccent" xMin="51" yMin="-248" xMax="446" yMax="595">
      <contour>
        <pt x="243" y="-125" on="1"/>
        <pt x="192" y="-125" on="0"/>
        <pt x="192" y="-81" on="1"/>
        <pt x="192" y="-63" on="0"/>
        <pt x="213" y="-42" on="0"/>
        <pt x="231" y="-38" on="0"/>
        <pt x="238" y="-38" on="1"/>
        <pt x="276" y="-38" on="0"/>
        <pt x="330" y="-85" on="0"/>
        <pt x="330" y="-125" on="1"/>
        <pt x="330" y="-209" on="0"/>
        <pt x="206" y="-248" on="1"/>
        <pt x="206" y="-220" on="1"/>
        <pt x="231" y="-217" on="0"/>
        <pt x="284" y="-168" on="0"/>
        <pt x="284" y="-137" on="1"/>
        <pt x="284" y="-119" on="0"/>
        <pt x="280" y="-112" on="0"/>
        <pt x="274" y="-112" on="1"/>
        <pt x="271" y="-112" on="0"/>
        <pt x="254" y="-125" on="0"/>
      </contour>
      <contour>
        <pt x="249" y="-10" on="1"/>
        <pt x="200" y="-10" on="0"/>
        <pt x="98" y="20" on="0"/>
        <pt x="96" y="20" on="1"/>
        <pt x="90" y="20" on="0"/>
        <pt x="74" y="8" on="0"/>
        <pt x="74" y="0" on="1"/>
        <pt x="51" y="0" on="1"/>
        <pt x="51" y="139" on="1"/>
        <pt x="73" y="139" on="1"/>
        <pt x="84" y="79" on="0"/>
        <pt x="181" y="24" on="0"/>
        <pt x="243" y="24" on="1"/>
        <pt x="296" y="24" on="0"/>
        <pt x="364" y="72" on="0"/>
        <pt x="364" y="120" on="1"/>
        <pt x="364" y="142" on="0"/>
        <pt x="345" y="178" on="0"/>
        <pt x="306" y="209" on="0"/>
        <pt x="270" y="230" on="0"/>
        <pt x="213" y="261" on="0"/>
        <pt x="198" y="270" on="1"/>
        <pt x="163" y="292" on="0"/>
        <pt x="129" y="315" on="0"/>
        <pt x="76" y="361" on="0"/>
        <pt x="52" y="411" on="0"/>
        <pt x="52" y="440" on="1"/>
        <pt x="52" y="499" on="0"/>
        <pt x="160" y="595" on="0"/>
        <pt x="227" y="595" on="1"/>
        <pt x="256" y="595" on="0"/>
        <pt x="342" y="565" on="0"/>
        <pt x="348" y="565" on="1"/>
        <pt x="360" y="565" on="0"/>
        <pt x="360" y="585" on="1"/>
        <pt x="383" y="585" on="1"/>
        <pt x="393" y="458" on="1"/>
        <pt x="371" y="458" on="1"/>
        <pt x="365" y="502" on="0"/>
        <pt x="289" y="561" on="0"/>
        <pt x="228" y="561" on="1"/>
        <pt x="182" y="561" on="0"/>
        <pt x="127" y="502" on="0"/>
        <pt x="127" y="472" on="1"/>
        <pt x="127" y="453" on="0"/>
        <pt x="145" y="420" on="0"/>
        <pt x="183" y="392" on="0"/>
        <pt x="217" y="371" on="0"/>
        <pt x="274" y="341" on="0"/>
        <pt x="289" y="332" on="1"/>
        <pt x="330" y="307" on="0"/>
        <pt x="366" y="283" on="0"/>
        <pt x="423" y="233" on="0"/>
        <pt x="446" y="180" on="0"/>
        <pt x="446" y="148" on="1"/>
        <pt x="446" y="74" on="0"/>
        <pt x="326" y="-10" on="0"/>
      </contour>
    </TTGlyph>
    <TTGlyph name="T" xMin="18" yMin="0" xMax="520" yMax="585">
      <contour>
        <pt x="18" y="585" on="1"/>
        <pt x="520" y="585" on="1"/>
        <pt x="520" y="488" on="1"/>
        <pt x="499" y="488" on="1"/>
        <pt x="499" y="542" on="0"/>
        <pt x="479" y="551" on="1"/>
        <pt x="315" y="551" on="1"/>
        <pt x="315" y="41" on="1"/>
        <pt x="324" y="21" on="0"/>
        <pt x="378" y="21" on="1"/>
        <pt x="378" y="0" on="1"/>
        <pt x="160" y="0" on="1"/>
        <pt x="160" y="21" on="1"/>
        <pt x="214" y="21" on="0"/>
        <pt x="223" y="41" on="1"/>
        <pt x="223" y="551" on="1"/>
        <pt x="59" y="551" on="1"/>
        <pt x="39" y="542" on="0"/>
        <pt x="39" y="488" on="1"/>
        <pt x="18" y="488" on="1"/>
      </contour>
    </TTGlyph>
    <TTGlyph name="Tbar" xMin="18" yMin="0" xMax="520" yMax="585">
      <contour>
        <pt x="18" y="585" on="1"/>
        <pt x="520" y="585" on="1"/>
        <pt x="520" y="488" on="1"/>
        <pt x="499" y="488" on="1"/>
        <pt x="499" y="542" on="0"/>
        <pt x="479" y="551" on="1"/>
        <pt x="315" y="551" on="1"/>
        <pt x="315" y="333" on="1"/>
        <pt x="394" y="333" on="1"/>
        <pt x="394" y="299" on="1"/>
        <pt x="315" y="299" on="1"/>
        <pt x="315" y="41" on="1"/>
        <pt x="324" y="21" on="0"/>
        <pt x="378" y="21" on="1"/>
        <pt x="378" y="0" on="1"/>
        <pt x="160" y="0" on="1"/>
        <pt x="160" y="21" on="1"/>
        <pt x="214" y="21" on="0"/>
        <pt x="223" y="41" on="1"/>
        <pt x="223" y="299" on="1"/>
        <pt x="130" y="299" on="1"/>
        <pt x="130" y="333" on="1"/>
        <pt x="223" y="333" on="1"/>
        <pt x="223" y="551" on="1"/>
        <pt x="59" y="551" on="1"/>
        <pt x="39" y="542" on="0"/>
        <pt x="39" y="488" on="1"/>
        <pt x="18" y="488" on="1"/>
      </contour>
    </TTGlyph>
    <TTGlyph name="Tcaron" xMin="18" yMin="0" xMax="520" yMax="817">
      <contour>
        <pt x="18" y="585" on="1"/>
        <pt x="520" y="585" on="1"/>
        <pt x="520" y="488" on="1"/>
        <pt x="499" y="488" on="1"/>
        <pt x="499" y="542" on="0"/>
        <pt x="479" y="551" on="1"/>
        <pt x="315" y="551" on="1"/>
        <pt x="315" y="41" on="1"/>
        <pt x="324" y="21" on="0"/>
        <pt x="378" y="21" on="1"/>
        <pt x="378" y="0" on="1"/>
        <pt x="160" y="0" on="1"/>
        <pt x="160" y="21" on="1"/>
        <pt x="214" y="21" on="0"/>
        <pt x="223" y="41" on="1"/>
        <pt x="223" y="551" on="1"/>
        <pt x="59" y="551" on="1"/>
        <pt x="39" y="542" on="0"/>
        <pt x="39" y="488" on="1"/>
        <pt x="18" y="488" on="1"/>
      </contour>
      <contour>
        <pt x="244" y="655" on="1"/>
        <pt x="150" y="817" on="1"/>
        <pt x="176" y="817" on="1"/>
        <pt x="269" y="730" on="1"/>
        <pt x="362" y="817" on="1"/>
        <pt x="388" y="817" on="1"/>
        <pt x="294" y="655" on="1"/>
      </contour>
    </TTGlyph>
    <TTGlyph name="Tcommaaccent" xMin="18" yMin="-199" xMax="520" yMax="585">
      <contour>
        <pt x="18" y="585" on="1"/>
        <pt x="520" y="585" on="1"/>
        <pt x="520" y="488" on="1"/>
        <pt x="499" y="488" on="1"/>
        <pt x="499" y="542" on="0"/>
        <pt x="479" y="551" on="1"/>
        <pt x="315" y="551" on="1"/>
        <pt x="315" y="41" on="1"/>
        <pt x="324" y="21" on="0"/>
        <pt x="378" y="21" on="1"/>
        <pt x="378" y="0" on="1"/>
        <pt x="289" y="0" on="1"/>
        <pt x="274" y="-55" on="1"/>
        <pt x="306" y="-55" on="0"/>
        <pt x="374" y="-88" on="0"/>
        <pt x="374" y="-122" on="1"/>
        <pt x="374" y="-199" on="0"/>
        <pt x="264" y="-199" on="1"/>
        <pt x="231" y="-199" on="0"/>
        <pt x="190" y="-192" on="1"/>
        <pt x="190" y="-175" on="1"/>
        <pt x="208" y="-177" on="0"/>
        <pt x="215" y="-177" on="1"/>
        <pt x="253" y="-177" on="0"/>
        <pt x="287" y="-148" on="0"/>
        <pt x="287" y="-130" on="1"/>
        <pt x="287" y="-86" on="0"/>
        <pt x="226" y="-86" on="1"/>
        <pt x="251" y="0" on="1"/>
        <pt x="160" y="0" on="1"/>
        <pt x="160" y="21" on="1"/>
        <pt x="214" y="21" on="0"/>
        <pt x="223" y="41" on="1"/>
        <pt x="223" y="551" on="1"/>
        <pt x="59" y="551" on="1"/>
        <pt x="39" y="542" on="0"/>
        <pt x="39" y="488" on="1"/>
        <pt x="18" y="488" on="1"/>
      </contour>
    </TTGlyph>
    <TTGlyph name="Thorn" xMin="42" yMin="0" xMax="501" yMax="585">
      <contour>
        <pt x="42" y="0" on="1"/>
        <pt x="42" y="21" on="1"/>
        <pt x="96" y="21" on="0"/>
        <pt x="105" y="41" on="1"/>
        <pt x="105" y="544" on="1"/>
        <pt x="96" y="564" on="0"/>
        <pt x="42" y="564" on="1"/>
        <pt x="42" y="585" on="1"/>
        <pt x="260" y="585" on="1"/>
        <pt x="260" y="564" on="1"/>
        <pt x="206" y="564" on="0"/>
        <pt x="197" y="544" on="1"/>
        <pt x="197" y="460" on="1"/>
        <pt x="249" y="460" on="1"/>
        <pt x="376" y="460" on="0"/>
        <pt x="501" y="374" on="0"/>
        <pt x="501" y="308" on="1"/>
        <pt x="501" y="233" on="0"/>
        <pt x="381" y="141" on="0"/>
        <pt x="261" y="141" on="1"/>
        <pt x="197" y="141" on="1"/>
        <pt x="197" y="41" on="1"/>
        <pt x="206" y="21" on="0"/>
        <pt x="260" y="21" on="1"/>
        <pt x="260" y="0" on="1"/>
      </contour>
      <contour>
        <pt x="197" y="426" on="1"/>
        <pt x="197" y="175" on="1"/>
        <pt x="261" y="175" on="1"/>
        <pt x="338" y="175" on="0"/>
        <pt x="401" y="236" on="0"/>
        <pt x="401" y="307" on="1"/>
        <pt x="401" y="366" on="0"/>
        <pt x="335" y="426" on="0"/>
        <pt x="249" y="426" on="1"/>
      </contour>
    </TTGlyph>
    <TTGlyph name="U" xMin="25" yMin="-10" xMax="593" yMax="585">
      <contour>
        <pt x="338" y="24" on="1"/>
        <pt x="405" y="24" on="0"/>
        <pt x="496" y="136" on="0"/>
        <pt x="496" y="228" on="1"/>
        <pt x="496" y="544" on="1"/>
        <pt x="487" y="564" on="0"/>
        <pt x="433" y="564" on="1"/>
        <pt x="433" y="585" on="1"/>
        <pt x="593" y="585" on="1"/>
        <pt x="593" y="564" on="1"/>
        <pt x="539" y="564" on="0"/>
        <pt x="530" y="544" on="1"/>
        <pt x="530" y="248" on="1"/>
        <pt x="530" y="118" on="0"/>
        <pt x="415" y="-10" on="0"/>
        <pt x="328" y="-10" on="1"/>
        <pt x="88" y="-10" on="0"/>
        <pt x="88" y="248" on="1"/>
        <pt x="88" y="544" on="1"/>
        <pt x="79" y="564" on="0"/>
        <pt x="25" y="564" on="1"/>
        <pt x="25" y="585" on="1"/>
        <pt x="243" y="585" on="1"/>
        <pt x="243" y="564" on="1"/>
        <pt x="189" y="564" on="0"/>
        <pt x="180" y="544" on="1"/>
        <pt x="180" y="234" on="1"/>
        <pt x="180" y="135" on="0"/>
        <pt x="268" y="24" on="0"/>
      </contour>
    </TTGlyph>
    <TTGlyph name="Uacute" xMin="25" yMin="-10" xMax="593" yMax="782">
      <component glyphName="uni02CA" x="263" y="120" flags="0x1004"/>
      <component glyphName="U" x="0" y="0" flags="0x1204"/>
    </TTGlyph>
    <TTGlyph name="Ubar" xMin="25" yMin="-10" xMax="593" yMax="585">
      <contour>
        <pt x="180" y="356" on="1"/>
        <pt x="496" y="356" on="1"/>
        <pt x="496" y="544" on="1"/>
        <pt x="487" y="564" on="0"/>
        <pt x="433" y="564" on="1"/>
        <pt x="433" y="585" on="1"/>
        <pt x="593" y="585" on="1"/>
        <pt x="593" y="564" on="1"/>
        <pt x="539" y="564" on="0"/>
        <pt x="530" y="544" on="1"/>
        <pt x="530" y="356" on="1"/>
        <pt x="566" y="356" on="1"/>
        <pt x="566" y="322" on="1"/>
        <pt x="530" y="322" on="1"/>
        <pt x="530" y="248" on="1"/>
        <pt x="530" y="118" on="0"/>
        <pt x="415" y="-10" on="0"/>
        <pt x="328" y="-10" on="1"/>
        <pt x="88" y="-10" on="0"/>
        <pt x="88" y="248" on="1"/>
        <pt x="88" y="322" on="1"/>
        <pt x="58" y="322" on="1"/>
        <pt x="58" y="356" on="1"/>
        <pt x="88" y="356" on="1"/>
        <pt x="88" y="544" on="1"/>
        <pt x="79" y="564" on="0"/>
        <pt x="25" y="564" on="1"/>
        <pt x="25" y="585" on="1"/>
        <pt x="243" y="585" on="1"/>
        <pt x="243" y="564" on="1"/>
        <pt x="189" y="564" on="0"/>
        <pt x="180" y="544" on="1"/>
      </contour>
      <contour>
        <pt x="338" y="24" on="1"/>
        <pt x="405" y="24" on="0"/>
        <pt x="496" y="136" on="0"/>
        <pt x="496" y="228" on="1"/>
        <pt x="496" y="322" on="1"/>
        <pt x="180" y="322" on="1"/>
        <pt x="180" y="234" on="1"/>
        <pt x="180" y="135" on="0"/>
        <pt x="268" y="24" on="0"/>
      </contour>
    </TTGlyph>
    <TTGlyph name="Ubreve" xMin="25" yMin="-10" xMax="593" yMax="754">
      <contour>
        <pt x="336" y="630" on="1"/>
        <pt x="275" y="630" on="0"/>
        <pt x="210" y="711" on="0"/>
        <pt x="210" y="754" on="1"/>
        <pt x="238" y="754" on="1"/>
        <pt x="238" y="734" on="0"/>
        <pt x="289" y="702" on="0"/>
        <pt x="383" y="702" on="0"/>
        <pt x="434" y="733" on="0"/>
        <pt x="434" y="754" on="1"/>
        <pt x="462" y="754" on="1"/>
        <pt x="462" y="710" on="0"/>
        <pt x="398" y="630" on="0"/>
      </contour>
      <contour>
        <pt x="338" y="24" on="1"/>
        <pt x="405" y="24" on="0"/>
        <pt x="496" y="136" on="0"/>
        <pt x="496" y="228" on="1"/>
        <pt x="496" y="544" on="1"/>
        <pt x="487" y="564" on="0"/>
        <pt x="433" y="564" on="1"/>
        <pt x="433" y="585" on="1"/>
        <pt x="593" y="585" on="1"/>
        <pt x="593" y="564" on="1"/>
        <pt x="539" y="564" on="0"/>
        <pt x="530" y="544" on="1"/>
        <pt x="530" y="248" on="1"/>
        <pt x="530" y="118" on="0"/>
        <pt x="415" y="-10" on="0"/>
        <pt x="328" y="-10" on="1"/>
        <pt x="88" y="-10" on="0"/>
        <pt x="88" y="248" on="1"/>
        <pt x="88" y="544" on="1"/>
        <pt x="79" y="564" on="0"/>
        <pt x="25" y="564" on="1"/>
        <pt x="25" y="585" on="1"/>
        <pt x="243" y="585" on="1"/>
        <pt x="243" y="564" on="1"/>
        <pt x="189" y="564" on="0"/>
        <pt x="180" y="544" on="1"/>
        <pt x="180" y="234" on="1"/>
        <pt x="180" y="135" on="0"/>
        <pt x="268" y="24" on="0"/>
      </contour>
    </TTGlyph>
    <TTGlyph name="Ucircumflex" xMin="25" yMin="-10" xMax="593" yMax="782">
      <component glyphName="circumflex" x="157" y="120" flags="0x1004"/>
      <component glyphName="U" x="0" y="0" flags="0x1204"/>
    </TTGlyph>
    <TTGlyph name="Udieresis" xMin="25" yMin="-10" xMax="593" yMax="718">
      <component glyphName="dieresis" x="135" y="120" flags="0x1004"/>
      <component glyphName="U" x="0" y="0" flags="0x1204"/>
    </TTGlyph>
    <TTGlyph name="Udotbelow" xMin="25" yMin="-153" xMax="593" yMax="585">
      <contour>
        <pt x="279" y="-123" on="0"/>
        <pt x="279" y="-81" on="0"/>
        <pt x="309" y="-51" on="0"/>
        <pt x="351" y="-51" on="0"/>
        <pt x="381" y="-81" on="0"/>
        <pt x="381" y="-123" on="0"/>
        <pt x="351" y="-153" on="0"/>
        <pt x="309" y="-153" on="0"/>
      </contour>
      <contour>
        <pt x="338" y="24" on="1"/>
        <pt x="405" y="24" on="0"/>
        <pt x="496" y="136" on="0"/>
        <pt x="496" y="228" on="1"/>
        <pt x="496" y="544" on="1"/>
        <pt x="487" y="564" on="0"/>
        <pt x="433" y="564" on="1"/>
        <pt x="433" y="585" on="1"/>
        <pt x="593" y="585" on="1"/>
        <pt x="593" y="564" on="1"/>
        <pt x="539" y="564" on="0"/>
        <pt x="530" y="544" on="1"/>
        <pt x="530" y="248" on="1"/>
        <pt x="530" y="118" on="0"/>
        <pt x="415" y="-10" on="0"/>
        <pt x="328" y="-10" on="1"/>
        <pt x="88" y="-10" on="0"/>
        <pt x="88" y="248" on="1"/>
        <pt x="88" y="544" on="1"/>
        <pt x="79" y="564" on="0"/>
        <pt x="25" y="564" on="1"/>
        <pt x="25" y="585" on="1"/>
        <pt x="243" y="585" on="1"/>
        <pt x="243" y="564" on="1"/>
        <pt x="189" y="564" on="0"/>
        <pt x="180" y="544" on="1"/>
        <pt x="180" y="234" on="1"/>
        <pt x="180" y="135" on="0"/>
        <pt x="268" y="24" on="0"/>
      </contour>
    </TTGlyph>
    <TTGlyph name="Ugrave" xMin="25" yMin="-10" xMax="593" yMax="782">
      <component glyphName="uni02CB" x="122" y="120" flags="0x1004"/>
      <component glyphName="U" x="0" y="0" flags="0x1204"/>
    </TTGlyph>
    <TTGlyph name="Uhorn" xMin="25" yMin="-10" xMax="670" yMax="749">
      <contour>
        <pt x="530" y="564" on="1"/>
        <pt x="530" y="248" on="1"/>
        <pt x="530" y="118" on="0"/>
        <pt x="415" y="-10" on="0"/>
        <pt x="328" y="-10" on="1"/>
        <pt x="88" y="-10" on="0"/>
        <pt x="88" y="248" on="1"/>
        <pt x="88" y="544" on="1"/>
        <pt x="79" y="564" on="0"/>
        <pt x="25" y="564" on="1"/>
        <pt x="25" y="585" on="1"/>
        <pt x="243" y="585" on="1"/>
        <pt x="243" y="564" on="1"/>
        <pt x="189" y="564" on="0"/>
        <pt x="180" y="544" on="1"/>
        <pt x="180" y="234" on="1"/>
        <pt x="180" y="135" on="0"/>
        <pt x="268" y="24" on="0"/>
        <pt x="338" y="24" on="1"/>
        <pt x="405" y="24" on="0"/>
        <pt x="496" y="136" on="0"/>
        <pt x="496" y="228" on="1"/>
        <pt x="496" y="544" on="1"/>
        <pt x="487" y="564" on="0"/>
        <pt x="433" y="564" on="1"/>
        <pt x="433" y="585" on="1"/>
        <pt x="530" y="585" on="1"/>
        <pt x="573" y="585" on="0"/>
        <pt x="622" y="623" on="0"/>
        <pt x="622" y="655" on="1"/>
        <pt x="622" y="662" on="0"/>
        <pt x="612" y="662" on="1"/>
        <pt x="610" y="662" on="0"/>
        <pt x="600" y="660" on="0"/>
        <pt x="596" y="660" on="1"/>
        <pt x="550" y="660" on="0"/>
        <pt x="550" y="704" on="1"/>
        <pt x="550" y="723" on="0"/>
        <pt x="577" y="749" on="0"/>
        <pt x="591" y="749" on="1"/>
        <pt x="627" y="749" on="0"/>
        <pt x="670" y="702" on="0"/>
        <pt x="670" y="664" on="1"/>
        <pt x="670" y="611" on="0"/>
        <pt x="584" y="564" on="0"/>
      </contour>
    </TTGlyph>
    <TTGlyph name="Uhungarumlaut" xMin="25" yMin="-10" xMax="593" yMax="782">
      <contour>
        <pt x="471" y="782" on="1"/>
        <pt x="577" y="782" on="1"/>
        <pt x="423" y="620" on="1"/>
        <pt x="397" y="620" on="1"/>
      </contour>
      <contour>
        <pt x="311" y="782" on="1"/>
        <pt x="417" y="782" on="1"/>
        <pt x="263" y="620" on="1"/>
        <pt x="237" y="620" on="1"/>
      </contour>
      <contour>
        <pt x="338" y="24" on="1"/>
        <pt x="405" y="24" on="0"/>
        <pt x="496" y="136" on="0"/>
        <pt x="496" y="228" on="1"/>
        <pt x="496" y="544" on="1"/>
        <pt x="487" y="564" on="0"/>
        <pt x="433" y="564" on="1"/>
        <pt x="433" y="585" on="1"/>
        <pt x="593" y="585" on="1"/>
        <pt x="593" y="564" on="1"/>
        <pt x="539" y="564" on="0"/>
        <pt x="530" y="544" on="1"/>
        <pt x="530" y="248" on="1"/>
        <pt x="530" y="118" on="0"/>
        <pt x="415" y="-10" on="0"/>
        <pt x="328" y="-10" on="1"/>
        <pt x="88" y="-10" on="0"/>
        <pt x="88" y="248" on="1"/>
        <pt x="88" y="544" on="1"/>
        <pt x="79" y="564" on="0"/>
        <pt x="25" y="564" on="1"/>
        <pt x="25" y="585" on="1"/>
        <pt x="243" y="585" on="1"/>
        <pt x="243" y="564" on="1"/>
        <pt x="189" y="564" on="0"/>
        <pt x="180" y="544" on="1"/>
        <pt x="180" y="234" on="1"/>
        <pt x="180" y="135" on="0"/>
        <pt x="268" y="24" on="0"/>
      </contour>
    </TTGlyph>
    <TTGlyph name="Umacron" xMin="25" yMin="-10" xMax="593" yMax="678">
      <contour>
        <pt x="198" y="678" on="1"/>
        <pt x="462" y="678" on="1"/>
        <pt x="462" y="634" on="1"/>
        <pt x="198" y="634" on="1"/>
      </contour>
      <contour>
        <pt x="338" y="24" on="1"/>
        <pt x="405" y="24" on="0"/>
        <pt x="496" y="136" on="0"/>
        <pt x="496" y="228" on="1"/>
        <pt x="496" y="544" on="1"/>
        <pt x="487" y="564" on="0"/>
        <pt x="433" y="564" on="1"/>
        <pt x="433" y="585" on="1"/>
        <pt x="593" y="585" on="1"/>
        <pt x="593" y="564" on="1"/>
        <pt x="539" y="564" on="0"/>
        <pt x="530" y="544" on="1"/>
        <pt x="530" y="248" on="1"/>
        <pt x="530" y="118" on="0"/>
        <pt x="415" y="-10" on="0"/>
        <pt x="328" y="-10" on="1"/>
        <pt x="88" y="-10" on="0"/>
        <pt x="88" y="248" on="1"/>
        <pt x="88" y="544" on="1"/>
        <pt x="79" y="564" on="0"/>
        <pt x="25" y="564" on="1"/>
        <pt x="25" y="585" on="1"/>
        <pt x="243" y="585" on="1"/>
        <pt x="243" y="564" on="1"/>
        <pt x="189" y="564" on="0"/>
        <pt x="180" y="544" on="1"/>
        <pt x="180" y="234" on="1"/>
        <pt x="180" y="135" on="0"/>
        <pt x="268" y="24" on="0"/>
      </contour>
    </TTGlyph>
    <TTGlyph name="Uogonek" xMin="26" yMin="-201" xMax="594" yMax="585">
      <contour>
        <pt x="339" y="24" on="1"/>
        <pt x="339" y="23" on="1"/>
        <pt x="406" y="23" on="0"/>
        <pt x="497" y="135" on="0"/>
        <pt x="497" y="227" on="1"/>
        <pt x="497" y="543" on="1"/>
        <pt x="488" y="563" on="0"/>
        <pt x="434" y="563" on="1"/>
        <pt x="434" y="584" on="1"/>
        <pt x="594" y="584" on="1"/>
        <pt x="594" y="563" on="1"/>
        <pt x="540" y="563" on="0"/>
        <pt x="531" y="543" on="1"/>
        <pt x="531" y="247" on="1"/>
        <pt x="531" y="120" on="0"/>
        <pt x="421" y="-9" on="0"/>
        <pt x="336" y="-11" on="1"/>
        <pt x="316" y="-39" on="0"/>
        <pt x="316" y="-60" on="1"/>
        <pt x="316" y="-109" on="0"/>
        <pt x="370" y="-167" on="0"/>
        <pt x="404" y="-167" on="1"/>
        <pt x="410" y="-167" on="0"/>
        <pt x="426" y="-159" on="0"/>
        <pt x="430" y="-155" on="1"/>
        <pt x="435" y="-151" on="1"/>
        <pt x="446" y="-169" on="1"/>
        <pt x="444" y="-173" on="0"/>
        <pt x="434" y="-183" on="0"/>
        <pt x="393" y="-201" on="0"/>
        <pt x="367" y="-201" on="1"/>
        <pt x="318" y="-201" on="0"/>
        <pt x="267" y="-150" on="0"/>
        <pt x="267" y="-104" on="1"/>
        <pt x="267" y="-51" on="0"/>
        <pt x="306" y="-10" on="1"/>
        <pt x="89" y="2" on="0"/>
        <pt x="89" y="248" on="1"/>
        <pt x="89" y="544" on="1"/>
        <pt x="80" y="564" on="0"/>
        <pt x="26" y="564" on="1"/>
        <pt x="26" y="585" on="1"/>
        <pt x="244" y="585" on="1"/>
        <pt x="244" y="564" on="1"/>
        <pt x="190" y="564" on="0"/>
        <pt x="181" y="544" on="1"/>
        <pt x="181" y="234" on="1"/>
        <pt x="181" y="135" on="0"/>
        <pt x="269" y="24" on="0"/>
      </contour>
    </TTGlyph>
    <TTGlyph name="Uring" xMin="25" yMin="-10" xMax="593" yMax="779">
      <contour>
        <pt x="289" y="708" on="0"/>
        <pt x="289" y="670" on="0"/>
        <pt x="316" y="642" on="0"/>
        <pt x="356" y="642" on="0"/>
        <pt x="383" y="670" on="0"/>
        <pt x="383" y="708" on="0"/>
        <pt x="356" y="736" on="0"/>
        <pt x="316" y="736" on="0"/>
      </contour>
      <contour>
        <pt x="246" y="651" on="0"/>
        <pt x="246" y="727" on="0"/>
        <pt x="298" y="779" on="0"/>
        <pt x="374" y="779" on="0"/>
        <pt x="426" y="727" on="0"/>
        <pt x="426" y="651" on="0"/>
        <pt x="374" y="599" on="0"/>
        <pt x="298" y="599" on="0"/>
      </contour>
      <contour>
        <pt x="338" y="24" on="1"/>
        <pt x="405" y="24" on="0"/>
        <pt x="496" y="136" on="0"/>
        <pt x="496" y="228" on="1"/>
        <pt x="496" y="544" on="1"/>
        <pt x="487" y="564" on="0"/>
        <pt x="433" y="564" on="1"/>
        <pt x="433" y="585" on="1"/>
        <pt x="593" y="585" on="1"/>
        <pt x="593" y="564" on="1"/>
        <pt x="539" y="564" on="0"/>
        <pt x="530" y="544" on="1"/>
        <pt x="530" y="248" on="1"/>
        <pt x="530" y="118" on="0"/>
        <pt x="415" y="-10" on="0"/>
        <pt x="328" y="-10" on="1"/>
        <pt x="88" y="-10" on="0"/>
        <pt x="88" y="248" on="1"/>
        <pt x="88" y="544" on="1"/>
        <pt x="79" y="564" on="0"/>
        <pt x="25" y="564" on="1"/>
        <pt x="25" y="585" on="1"/>
        <pt x="243" y="585" on="1"/>
        <pt x="243" y="564" on="1"/>
        <pt x="189" y="564" on="0"/>
        <pt x="180" y="544" on="1"/>
        <pt x="180" y="234" on="1"/>
        <pt x="180" y="135" on="0"/>
        <pt x="268" y="24" on="0"/>
      </contour>
    </TTGlyph>
    <TTGlyph name="Utilde" xMin="25" yMin="-10" xMax="593" yMax="732">
      <contour>
        <pt x="411" y="620" on="1"/>
        <pt x="389" y="620" on="0"/>
        <pt x="270" y="679" on="0"/>
        <pt x="256" y="679" on="1"/>
        <pt x="228" y="679" on="0"/>
        <pt x="206" y="650" on="0"/>
        <pt x="206" y="620" on="1"/>
        <pt x="187" y="620" on="1"/>
        <pt x="187" y="732" on="0"/>
        <pt x="263" y="732" on="1"/>
        <pt x="285" y="732" on="0"/>
        <pt x="405" y="673" on="0"/>
        <pt x="419" y="673" on="1"/>
        <pt x="447" y="673" on="0"/>
        <pt x="469" y="702" on="0"/>
        <pt x="469" y="732" on="1"/>
        <pt x="488" y="732" on="1"/>
        <pt x="488" y="620" on="0"/>
      </contour>
      <contour>
        <pt x="338" y="24" on="1"/>
        <pt x="405" y="24" on="0"/>
        <pt x="496" y="136" on="0"/>
        <pt x="496" y="228" on="1"/>
        <pt x="496" y="544" on="1"/>
        <pt x="487" y="564" on="0"/>
        <pt x="433" y="564" on="1"/>
        <pt x="433" y="585" on="1"/>
        <pt x="593" y="585" on="1"/>
        <pt x="593" y="564" on="1"/>
        <pt x="539" y="564" on="0"/>
        <pt x="530" y="544" on="1"/>
        <pt x="530" y="248" on="1"/>
        <pt x="530" y="118" on="0"/>
        <pt x="415" y="-10" on="0"/>
        <pt x="328" y="-10" on="1"/>
        <pt x="88" y="-10" on="0"/>
        <pt x="88" y="248" on="1"/>
        <pt x="88" y="544" on="1"/>
        <pt x="79" y="564" on="0"/>
        <pt x="25" y="564" on="1"/>
        <pt x="25" y="585" on="1"/>
        <pt x="243" y="585" on="1"/>
        <pt x="243" y="564" on="1"/>
        <pt x="189" y="564" on="0"/>
        <pt x="180" y="544" on="1"/>
        <pt x="180" y="234" on="1"/>
        <pt x="180" y="135" on="0"/>
        <pt x="268" y="24" on="0"/>
      </contour>
    </TTGlyph>
    <TTGlyph name="V" xMin="-10" yMin="0" xMax="553" yMax="585">
      <contour>
        <pt x="209" y="585" on="1"/>
        <pt x="209" y="564" on="1"/>
        <pt x="163" y="564" on="0"/>
        <pt x="151" y="552" on="1"/>
        <pt x="304" y="133" on="1"/>
        <pt x="451" y="546" on="1"/>
        <pt x="441" y="564" on="0"/>
        <pt x="389" y="564" on="1"/>
        <pt x="389" y="585" on="1"/>
        <pt x="553" y="585" on="1"/>
        <pt x="553" y="564" on="1"/>
        <pt x="497" y="564" on="0"/>
        <pt x="492" y="548" on="1"/>
        <pt x="296" y="0" on="1"/>
        <pt x="248" y="0" on="1"/>
        <pt x="54" y="543" on="1"/>
        <pt x="46" y="564" on="0"/>
        <pt x="-10" y="564" on="1"/>
        <pt x="-10" y="585" on="1"/>
      </contour>
    </TTGlyph>
    <TTGlyph name="Vhook" xMin="25" yMin="-10" xMax="547" yMax="595">
      <contour>
        <pt x="407" y="556" on="1"/>
        <pt x="391" y="556" on="0"/>
        <pt x="379" y="548" on="1"/>
        <pt x="389" y="538" on="0"/>
        <pt x="389" y="524" on="1"/>
        <pt x="389" y="512" on="0"/>
        <pt x="366" y="485" on="0"/>
        <pt x="352" y="485" on="1"/>
        <pt x="335" y="485" on="0"/>
        <pt x="305" y="513" on="0"/>
        <pt x="305" y="530" on="1"/>
        <pt x="305" y="557" on="0"/>
        <pt x="360" y="595" on="0"/>
        <pt x="387" y="595" on="1"/>
        <pt x="451" y="595" on="0"/>
        <pt x="547" y="445" on="0"/>
        <pt x="547" y="358" on="1"/>
        <pt x="547" y="190" on="0"/>
        <pt x="426" y="-10" on="0"/>
        <pt x="303" y="-10" on="1"/>
        <pt x="257" y="-10" on="0"/>
        <pt x="189" y="9" on="0"/>
        <pt x="123" y="61" on="0"/>
        <pt x="88" y="170" on="0"/>
        <pt x="88" y="252" on="1"/>
        <pt x="88" y="544" on="1"/>
        <pt x="79" y="564" on="0"/>
        <pt x="25" y="564" on="1"/>
        <pt x="25" y="585" on="1"/>
        <pt x="243" y="585" on="1"/>
        <pt x="243" y="564" on="1"/>
        <pt x="189" y="564" on="0"/>
        <pt x="180" y="544" on="1"/>
        <pt x="180" y="222" on="1"/>
        <pt x="180" y="121" on="0"/>
        <pt x="251" y="24" on="0"/>
        <pt x="297" y="24" on="1"/>
        <pt x="408" y="24" on="0"/>
        <pt x="511" y="207" on="0"/>
        <pt x="511" y="362" on="1"/>
        <pt x="511" y="430" on="0"/>
        <pt x="448" y="556" on="0"/>
      </contour>
    </TTGlyph>
    <TTGlyph name="Vturn" xMin="-8" yMin="0" xMax="555" yMax="585">
      <contour>
        <pt x="336" y="0" on="1"/>
        <pt x="336" y="21" on="1"/>
        <pt x="382" y="21" on="0"/>
        <pt x="394" y="33" on="1"/>
        <pt x="241" y="452" on="1"/>
        <pt x="94" y="39" on="1"/>
        <pt x="104" y="21" on="0"/>
        <pt x="156" y="21" on="1"/>
        <pt x="156" y="0" on="1"/>
        <pt x="-8" y="0" on="1"/>
        <pt x="-8" y="21" on="1"/>
        <pt x="48" y="21" on="0"/>
        <pt x="53" y="37" on="1"/>
        <pt x="249" y="585" on="1"/>
        <pt x="297" y="585" on="1"/>
        <pt x="491" y="42" on="1"/>
        <pt x="498" y="21" on="0"/>
        <pt x="555" y="21" on="1"/>
        <pt x="555" y="0" on="1"/>
      </contour>
    </TTGlyph>
    <TTGlyph name="W" xMin="-10" yMin="0" xMax="850" yMax="585">
      <contour>
        <pt x="506" y="585" on="1"/>
        <pt x="506" y="564" on="1"/>
        <pt x="460" y="564" on="0"/>
        <pt x="448" y="552" on="1"/>
        <pt x="601" y="133" on="1"/>
        <pt x="748" y="546" on="1"/>
        <pt x="738" y="564" on="0"/>
        <pt x="686" y="564" on="1"/>
        <pt x="686" y="585" on="1"/>
        <pt x="850" y="585" on="1"/>
        <pt x="850" y="564" on="1"/>
        <pt x="794" y="564" on="0"/>
        <pt x="787" y="543" on="1"/>
        <pt x="593" y="0" on="1"/>
        <pt x="545" y="0" on="1"/>
        <pt x="420" y="349" on="1"/>
        <pt x="296" y="0" on="1"/>
        <pt x="248" y="0" on="1"/>
        <pt x="54" y="543" on="1"/>
        <pt x="46" y="564" on="0"/>
        <pt x="-10" y="564" on="1"/>
        <pt x="-10" y="585" on="1"/>
        <pt x="209" y="585" on="1"/>
        <pt x="209" y="564" on="1"/>
        <pt x="163" y="564" on="0"/>
        <pt x="151" y="552" on="1"/>
        <pt x="304" y="134" on="1"/>
        <pt x="400" y="405" on="1"/>
        <pt x="351" y="543" on="1"/>
        <pt x="344" y="564" on="0"/>
        <pt x="287" y="564" on="1"/>
        <pt x="287" y="585" on="1"/>
      </contour>
    </TTGlyph>
    <TTGlyph name="Wacute" xMin="-10" yMin="0" xMax="850" yMax="782">
      <contour>
        <pt x="461" y="782" on="1"/>
        <pt x="567" y="782" on="1"/>
        <pt x="413" y="620" on="1"/>
        <pt x="387" y="620" on="1"/>
      </contour>
      <contour>
        <pt x="506" y="585" on="1"/>
        <pt x="506" y="564" on="1"/>
        <pt x="460" y="564" on="0"/>
        <pt x="448" y="552" on="1"/>
        <pt x="601" y="133" on="1"/>
        <pt x="748" y="546" on="1"/>
        <pt x="738" y="564" on="0"/>
        <pt x="686" y="564" on="1"/>
        <pt x="686" y="585" on="1"/>
        <pt x="850" y="585" on="1"/>
        <pt x="850" y="564" on="1"/>
        <pt x="794" y="564" on="0"/>
        <pt x="787" y="543" on="1"/>
        <pt x="593" y="0" on="1"/>
        <pt x="545" y="0" on="1"/>
        <pt x="420" y="349" on="1"/>
        <pt x="296" y="0" on="1"/>
        <pt x="248" y="0" on="1"/>
        <pt x="54" y="543" on="1"/>
        <pt x="46" y="564" on="0"/>
        <pt x="-10" y="564" on="1"/>
        <pt x="-10" y="585" on="1"/>
        <pt x="209" y="585" on="1"/>
        <pt x="209" y="564" on="1"/>
        <pt x="163" y="564" on="0"/>
        <pt x="151" y="552" on="1"/>
        <pt x="304" y="134" on="1"/>
        <pt x="400" y="405" on="1"/>
        <pt x="351" y="543" on="1"/>
        <pt x="344" y="564" on="0"/>
        <pt x="287" y="564" on="1"/>
        <pt x="287" y="585" on="1"/>
      </contour>
    </TTGlyph>
    <TTGlyph name="Wcircumflex" xMin="-10" yMin="0" xMax="850" yMax="782">
      <contour>
        <pt x="425" y="782" on="1"/>
        <pt x="519" y="620" on="1"/>
        <pt x="493" y="620" on="1"/>
        <pt x="400" y="707" on="1"/>
        <pt x="307" y="620" on="1"/>
        <pt x="281" y="620" on="1"/>
        <pt x="375" y="782" on="1"/>
      </contour>
      <contour>
        <pt x="506" y="585" on="1"/>
        <pt x="506" y="564" on="1"/>
        <pt x="460" y="564" on="0"/>
        <pt x="448" y="552" on="1"/>
        <pt x="601" y="133" on="1"/>
        <pt x="748" y="546" on="1"/>
        <pt x="738" y="564" on="0"/>
        <pt x="686" y="564" on="1"/>
        <pt x="686" y="585" on="1"/>
        <pt x="850" y="585" on="1"/>
        <pt x="850" y="564" on="1"/>
        <pt x="794" y="564" on="0"/>
        <pt x="787" y="543" on="1"/>
        <pt x="593" y="0" on="1"/>
        <pt x="545" y="0" on="1"/>
        <pt x="420" y="349" on="1"/>
        <pt x="296" y="0" on="1"/>
        <pt x="248" y="0" on="1"/>
        <pt x="54" y="543" on="1"/>
        <pt x="46" y="564" on="0"/>
        <pt x="-10" y="564" on="1"/>
        <pt x="-10" y="585" on="1"/>
        <pt x="209" y="585" on="1"/>
        <pt x="209" y="564" on="1"/>
        <pt x="163" y="564" on="0"/>
        <pt x="151" y="552" on="1"/>
        <pt x="304" y="134" on="1"/>
        <pt x="400" y="405" on="1"/>
        <pt x="351" y="543" on="1"/>
        <pt x="344" y="564" on="0"/>
        <pt x="287" y="564" on="1"/>
        <pt x="287" y="585" on="1"/>
      </contour>
    </TTGlyph>
    <TTGlyph name="Wdieresis" xMin="-10" yMin="0" xMax="850" yMax="718">
      <contour>
        <pt x="443" y="649" on="0"/>
        <pt x="443" y="689" on="0"/>
        <pt x="472" y="718" on="0"/>
        <pt x="512" y="718" on="0"/>
        <pt x="541" y="689" on="0"/>
        <pt x="541" y="649" on="0"/>
        <pt x="512" y="620" on="0"/>
        <pt x="472" y="620" on="0"/>
      </contour>
      <contour>
        <pt x="259" y="649" on="0"/>
        <pt x="259" y="689" on="0"/>
        <pt x="288" y="718" on="0"/>
        <pt x="328" y="718" on="0"/>
        <pt x="357" y="689" on="0"/>
        <pt x="357" y="649" on="0"/>
        <pt x="328" y="620" on="0"/>
        <pt x="288" y="620" on="0"/>
      </contour>
      <contour>
        <pt x="506" y="585" on="1"/>
        <pt x="506" y="564" on="1"/>
        <pt x="460" y="564" on="0"/>
        <pt x="448" y="552" on="1"/>
        <pt x="601" y="133" on="1"/>
        <pt x="748" y="546" on="1"/>
        <pt x="738" y="564" on="0"/>
        <pt x="686" y="564" on="1"/>
        <pt x="686" y="585" on="1"/>
        <pt x="850" y="585" on="1"/>
        <pt x="850" y="564" on="1"/>
        <pt x="794" y="564" on="0"/>
        <pt x="787" y="543" on="1"/>
        <pt x="593" y="0" on="1"/>
        <pt x="545" y="0" on="1"/>
        <pt x="420" y="349" on="1"/>
        <pt x="296" y="0" on="1"/>
        <pt x="248" y="0" on="1"/>
        <pt x="54" y="543" on="1"/>
        <pt x="46" y="564" on="0"/>
        <pt x="-10" y="564" on="1"/>
        <pt x="-10" y="585" on="1"/>
        <pt x="209" y="585" on="1"/>
        <pt x="209" y="564" on="1"/>
        <pt x="163" y="564" on="0"/>
        <pt x="151" y="552" on="1"/>
        <pt x="304" y="134" on="1"/>
        <pt x="400" y="405" on="1"/>
        <pt x="351" y="543" on="1"/>
        <pt x="344" y="564" on="0"/>
        <pt x="287" y="564" on="1"/>
        <pt x="287" y="585" on="1"/>
      </contour>
    </TTGlyph>
    <TTGlyph name="Wgrave" xMin="-10" yMin="0" xMax="850" yMax="782">
      <contour>
        <pt x="352" y="782" on="1"/>
        <pt x="426" y="620" on="1"/>
        <pt x="400" y="620" on="1"/>
        <pt x="246" y="782" on="1"/>
      </contour>
      <contour>
        <pt x="506" y="585" on="1"/>
        <pt x="506" y="564" on="1"/>
        <pt x="460" y="564" on="0"/>
        <pt x="448" y="552" on="1"/>
        <pt x="601" y="133" on="1"/>
        <pt x="748" y="546" on="1"/>
        <pt x="738" y="564" on="0"/>
        <pt x="686" y="564" on="1"/>
        <pt x="686" y="585" on="1"/>
        <pt x="850" y="585" on="1"/>
        <pt x="850" y="564" on="1"/>
        <pt x="794" y="564" on="0"/>
        <pt x="787" y="543" on="1"/>
        <pt x="593" y="0" on="1"/>
        <pt x="545" y="0" on="1"/>
        <pt x="420" y="349" on="1"/>
        <pt x="296" y="0" on="1"/>
        <pt x="248" y="0" on="1"/>
        <pt x="54" y="543" on="1"/>
        <pt x="46" y="564" on="0"/>
        <pt x="-10" y="564" on="1"/>
        <pt x="-10" y="585" on="1"/>
        <pt x="209" y="585" on="1"/>
        <pt x="209" y="564" on="1"/>
        <pt x="163" y="564" on="0"/>
        <pt x="151" y="552" on="1"/>
        <pt x="304" y="134" on="1"/>
        <pt x="400" y="405" on="1"/>
        <pt x="351" y="543" on="1"/>
        <pt x="344" y="564" on="0"/>
        <pt x="287" y="564" on="1"/>
        <pt x="287" y="585" on="1"/>
      </contour>
    </TTGlyph>
    <TTGlyph name="X" xMin="6" yMin="0" xMax="523" yMax="585">
      <contour>
        <pt x="225" y="585" on="1"/>
        <pt x="225" y="564" on="1"/>
        <pt x="178" y="564" on="0"/>
        <pt x="167" y="552" on="1"/>
        <pt x="276" y="361" on="1"/>
        <pt x="395" y="548" on="1"/>
        <pt x="385" y="564" on="0"/>
        <pt x="334" y="564" on="1"/>
        <pt x="334" y="585" on="1"/>
        <pt x="498" y="585" on="1"/>
        <pt x="498" y="564" on="1"/>
        <pt x="449" y="564" on="0"/>
        <pt x="438" y="547" on="1"/>
        <pt x="296" y="326" on="1"/>
        <pt x="459" y="42" on="1"/>
        <pt x="470" y="21" on="0"/>
        <pt x="523" y="21" on="1"/>
        <pt x="523" y="0" on="1"/>
        <pt x="304" y="0" on="1"/>
        <pt x="304" y="21" on="1"/>
        <pt x="351" y="21" on="0"/>
        <pt x="362" y="33" on="1"/>
        <pt x="243" y="242" on="1"/>
        <pt x="111" y="37" on="1"/>
        <pt x="121" y="21" on="0"/>
        <pt x="172" y="21" on="1"/>
        <pt x="172" y="0" on="1"/>
        <pt x="8" y="0" on="1"/>
        <pt x="8" y="21" on="1"/>
        <pt x="58" y="21" on="0"/>
        <pt x="72" y="43" on="1"/>
        <pt x="222" y="277" on="1"/>
        <pt x="70" y="544" on="1"/>
        <pt x="59" y="564" on="0"/>
        <pt x="6" y="564" on="1"/>
        <pt x="6" y="585" on="1"/>
      </contour>
    </TTGlyph>
    <TTGlyph name="Y" xMin="-9" yMin="0" xMax="569" yMax="585">
      <contour>
        <pt x="210" y="585" on="1"/>
        <pt x="210" y="564" on="1"/>
        <pt x="163" y="564" on="0"/>
        <pt x="152" y="552" on="1"/>
        <pt x="307" y="281" on="1"/>
        <pt x="467" y="546" on="1"/>
        <pt x="456" y="564" on="0"/>
        <pt x="405" y="564" on="1"/>
        <pt x="405" y="585" on="1"/>
        <pt x="569" y="585" on="1"/>
        <pt x="569" y="564" on="1"/>
        <pt x="527" y="564" on="0"/>
        <pt x="512" y="551" on="1"/>
        <pt x="332" y="252" on="1"/>
        <pt x="332" y="41" on="1"/>
        <pt x="341" y="21" on="0"/>
        <pt x="395" y="21" on="1"/>
        <pt x="395" y="0" on="1"/>
        <pt x="177" y="0" on="1"/>
        <pt x="177" y="21" on="1"/>
        <pt x="231" y="21" on="0"/>
        <pt x="240" y="41" on="1"/>
        <pt x="240" y="220" on="1"/>
        <pt x="55" y="544" on="1"/>
        <pt x="41" y="564" on="0"/>
        <pt x="-9" y="564" on="1"/>
        <pt x="-9" y="585" on="1"/>
      </contour>
    </TTGlyph>
    <TTGlyph name="Yacute" xMin="-9" yMin="0" xMax="569" yMax="782">
      <component glyphName="uni02CA" x="235" y="120" flags="0x1004"/>
      <component glyphName="Y" x="0" y="0" flags="0x1204"/>
    </TTGlyph>
    <TTGlyph name="Ycircumflex" xMin="-9" yMin="0" xMax="569" yMax="782">
      <contour>
        <pt x="333" y="782" on="1"/>
        <pt x="427" y="620" on="1"/>
        <pt x="401" y="620" on="1"/>
        <pt x="308" y="707" on="1"/>
        <pt x="215" y="620" on="1"/>
        <pt x="189" y="620" on="1"/>
        <pt x="283" y="782" on="1"/>
      </contour>
      <contour>
        <pt x="210" y="585" on="1"/>
        <pt x="210" y="564" on="1"/>
        <pt x="163" y="564" on="0"/>
        <pt x="152" y="552" on="1"/>
        <pt x="307" y="281" on="1"/>
        <pt x="467" y="546" on="1"/>
        <pt x="456" y="564" on="0"/>
        <pt x="405" y="564" on="1"/>
        <pt x="405" y="585" on="1"/>
        <pt x="569" y="585" on="1"/>
        <pt x="569" y="564" on="1"/>
        <pt x="527" y="564" on="0"/>
        <pt x="512" y="551" on="1"/>
        <pt x="332" y="252" on="1"/>
        <pt x="332" y="41" on="1"/>
        <pt x="341" y="21" on="0"/>
        <pt x="395" y="21" on="1"/>
        <pt x="395" y="0" on="1"/>
        <pt x="177" y="0" on="1"/>
        <pt x="177" y="21" on="1"/>
        <pt x="231" y="21" on="0"/>
        <pt x="240" y="41" on="1"/>
        <pt x="240" y="220" on="1"/>
        <pt x="55" y="544" on="1"/>
        <pt x="41" y="564" on="0"/>
        <pt x="-9" y="564" on="1"/>
        <pt x="-9" y="585" on="1"/>
      </contour>
    </TTGlyph>
    <TTGlyph name="Ydieresis" xMin="-9" yMin="0" xMax="569" yMax="718">
      <component glyphName="dieresis" x="107" y="120" flags="0x1004"/>
      <component glyphName="Y" x="0" y="0" flags="0x1204"/>
    </TTGlyph>
    <TTGlyph name="Ygrave" xMin="-9" yMin="0" xMax="569" yMax="782">
      <contour>
        <pt x="260" y="782" on="1"/>
        <pt x="334" y="620" on="1"/>
        <pt x="308" y="620" on="1"/>
        <pt x="154" y="782" on="1"/>
      </contour>
      <contour>
        <pt x="210" y="585" on="1"/>
        <pt x="210" y="564" on="1"/>
        <pt x="163" y="564" on="0"/>
        <pt x="152" y="552" on="1"/>
        <pt x="307" y="281" on="1"/>
        <pt x="467" y="546" on="1"/>
        <pt x="456" y="564" on="0"/>
        <pt x="405" y="564" on="1"/>
        <pt x="405" y="585" on="1"/>
        <pt x="569" y="585" on="1"/>
        <pt x="569" y="564" on="1"/>
        <pt x="527" y="564" on="0"/>
        <pt x="512" y="551" on="1"/>
        <pt x="332" y="252" on="1"/>
        <pt x="332" y="41" on="1"/>
        <pt x="341" y="21" on="0"/>
        <pt x="395" y="21" on="1"/>
        <pt x="395" y="0" on="1"/>
        <pt x="177" y="0" on="1"/>
        <pt x="177" y="21" on="1"/>
        <pt x="231" y="21" on="0"/>
        <pt x="240" y="41" on="1"/>
        <pt x="240" y="220" on="1"/>
        <pt x="55" y="544" on="1"/>
        <pt x="41" y="564" on="0"/>
        <pt x="-9" y="564" on="1"/>
        <pt x="-9" y="585" on="1"/>
      </contour>
    </TTGlyph>
    <TTGlyph name="Z" xMin="17" yMin="0" xMax="475" yMax="585">
      <contour>
        <pt x="449" y="0" on="1"/>
        <pt x="17" y="0" on="1"/>
        <pt x="335" y="555" on="1"/>
        <pt x="92" y="555" on="1"/>
        <pt x="72" y="546" on="0"/>
        <pt x="72" y="492" on="1"/>
        <pt x="51" y="492" on="1"/>
        <pt x="51" y="585" on="1"/>
        <pt x="454" y="585" on="1"/>
        <pt x="136" y="30" on="1"/>
        <pt x="408" y="30" on="1"/>
        <pt x="439" y="43" on="0"/>
        <pt x="454" y="96" on="1"/>
        <pt x="475" y="96" on="1"/>
      </contour>
    </TTGlyph>
    <TTGlyph name="Zacute" xMin="17" yMin="0" xMax="475" yMax="782">
      <contour>
        <pt x="308" y="782" on="1"/>
        <pt x="414" y="782" on="1"/>
        <pt x="260" y="620" on="1"/>
        <pt x="234" y="620" on="1"/>
      </contour>
      <contour>
        <pt x="449" y="0" on="1"/>
        <pt x="17" y="0" on="1"/>
        <pt x="335" y="555" on="1"/>
        <pt x="92" y="555" on="1"/>
        <pt x="72" y="546" on="0"/>
        <pt x="72" y="492" on="1"/>
        <pt x="51" y="492" on="1"/>
        <pt x="51" y="585" on="1"/>
        <pt x="454" y="585" on="1"/>
        <pt x="136" y="30" on="1"/>
        <pt x="408" y="30" on="1"/>
        <pt x="439" y="43" on="0"/>
        <pt x="454" y="96" on="1"/>
        <pt x="475" y="96" on="1"/>
      </contour>
    </TTGlyph>
    <TTGlyph name="Zcaron" xMin="17" yMin="0" xMax="475" yMax="817">
      <contour>
        <pt x="228" y="655" on="1"/>
        <pt x="134" y="817" on="1"/>
        <pt x="160" y="817" on="1"/>
        <pt x="253" y="730" on="1"/>
        <pt x="346" y="817" on="1"/>
        <pt x="372" y="817" on="1"/>
        <pt x="278" y="655" on="1"/>
      </contour>
      <contour>
        <pt x="449" y="0" on="1"/>
        <pt x="17" y="0" on="1"/>
        <pt x="335" y="555" on="1"/>
        <pt x="92" y="555" on="1"/>
        <pt x="72" y="546" on="0"/>
        <pt x="72" y="492" on="1"/>
        <pt x="51" y="492" on="1"/>
        <pt x="51" y="585" on="1"/>
        <pt x="454" y="585" on="1"/>
        <pt x="136" y="30" on="1"/>
        <pt x="408" y="30" on="1"/>
        <pt x="439" y="43" on="0"/>
        <pt x="454" y="96" on="1"/>
        <pt x="475" y="96" on="1"/>
      </contour>
    </TTGlyph>
    <TTGlyph name="Zdotaccent" xMin="17" yMin="0" xMax="475" yMax="723">
      <contour>
        <pt x="196" y="651" on="0"/>
        <pt x="196" y="693" on="0"/>
        <pt x="226" y="723" on="0"/>
        <pt x="268" y="723" on="0"/>
        <pt x="298" y="693" on="0"/>
        <pt x="298" y="651" on="0"/>
        <pt x="268" y="621" on="0"/>
        <pt x="226" y="621" on="0"/>
      </contour>
      <contour>
        <pt x="449" y="0" on="1"/>
        <pt x="17" y="0" on="1"/>
        <pt x="335" y="555" on="1"/>
        <pt x="92" y="555" on="1"/>
        <pt x="72" y="546" on="0"/>
        <pt x="72" y="492" on="1"/>
        <pt x="51" y="492" on="1"/>
        <pt x="51" y="585" on="1"/>
        <pt x="454" y="585" on="1"/>
        <pt x="136" y="30" on="1"/>
        <pt x="408" y="30" on="1"/>
        <pt x="439" y="43" on="0"/>
        <pt x="454" y="96" on="1"/>
        <pt x="475" y="96" on="1"/>
      </contour>
    </TTGlyph>
    <TTGlyph name="a" xMin="32" yMin="-10" xMax="492" yMax="450">
      <contour>
        <pt x="112" y="366" on="1"/>
        <pt x="126" y="366" on="0"/>
        <pt x="147" y="346" on="0"/>
        <pt x="147" y="325" on="1"/>
        <pt x="147" y="308" on="0"/>
        <pt x="120" y="290" on="0"/>
        <pt x="102" y="290" on="1"/>
        <pt x="83" y="290" on="0"/>
        <pt x="59" y="317" on="0"/>
        <pt x="59" y="340" on="1"/>
        <pt x="59" y="392" on="0"/>
        <pt x="145" y="450" on="0"/>
        <pt x="224" y="450" on="1"/>
        <pt x="317" y="450" on="0"/>
        <pt x="404" y="358" on="0"/>
        <pt x="404" y="282" on="1"/>
        <pt x="404" y="84" on="1"/>
        <pt x="404" y="52" on="0"/>
        <pt x="425" y="22" on="0"/>
        <pt x="440" y="22" on="1"/>
        <pt x="453" y="22" on="0"/>
        <pt x="474" y="36" on="0"/>
        <pt x="474" y="46" on="1"/>
        <pt x="492" y="46" on="1"/>
        <pt x="492" y="18" on="0"/>
        <pt x="451" y="-8" on="0"/>
        <pt x="400" y="-8" on="1"/>
        <pt x="350" y="-8" on="0"/>
        <pt x="329" y="33" on="1"/>
        <pt x="270" y="-10" on="0"/>
        <pt x="182" y="-10" on="1"/>
        <pt x="32" y="-10" on="0"/>
        <pt x="32" y="112" on="1"/>
        <pt x="32" y="138" on="0"/>
        <pt x="69" y="180" on="0"/>
        <pt x="139" y="208" on="0"/>
        <pt x="201" y="225" on="0"/>
        <pt x="294" y="246" on="0"/>
        <pt x="314" y="252" on="1"/>
        <pt x="314" y="336" on="0"/>
        <pt x="270" y="414" on="0"/>
        <pt x="214" y="414" on="1"/>
        <pt x="124" y="414" on="0"/>
      </contour>
      <contour>
        <pt x="320" y="58" on="1"/>
        <pt x="314" y="80" on="0"/>
        <pt x="314" y="112" on="1"/>
        <pt x="314" y="230" on="1"/>
        <pt x="303" y="226" on="0"/>
        <pt x="250" y="212" on="0"/>
        <pt x="217" y="202" on="0"/>
        <pt x="171" y="182" on="0"/>
        <pt x="145" y="162" on="0"/>
        <pt x="125" y="129" on="0"/>
        <pt x="125" y="110" on="1"/>
        <pt x="125" y="62" on="0"/>
        <pt x="162" y="24" on="0"/>
        <pt x="199" y="24" on="1"/>
        <pt x="265" y="24" on="0"/>
      </contour>
    </TTGlyph>
    <TTGlyph name="aacute" xMin="32" yMin="-10" xMax="492" yMax="677">
      <component glyphName="uni02CA" x="149" y="15" flags="0x1004"/>
      <component glyphName="a" x="0" y="0" flags="0x1204"/>
    </TTGlyph>
    <TTGlyph name="abreve" xMin="32" yMin="-10" xMax="492" yMax="649">
      <contour>
        <pt x="222" y="525" on="1"/>
        <pt x="161" y="525" on="0"/>
        <pt x="96" y="606" on="0"/>
        <pt x="96" y="649" on="1"/>
        <pt x="124" y="649" on="1"/>
        <pt x="124" y="629" on="0"/>
        <pt x="175" y="597" on="0"/>
        <pt x="269" y="597" on="0"/>
        <pt x="320" y="628" on="0"/>
        <pt x="320" y="649" on="1"/>
        <pt x="348" y="649" on="1"/>
        <pt x="348" y="605" on="0"/>
        <pt x="284" y="525" on="0"/>
      </contour>
      <contour>
        <pt x="112" y="366" on="1"/>
        <pt x="126" y="366" on="0"/>
        <pt x="147" y="346" on="0"/>
        <pt x="147" y="325" on="1"/>
        <pt x="147" y="308" on="0"/>
        <pt x="120" y="290" on="0"/>
        <pt x="102" y="290" on="1"/>
        <pt x="83" y="290" on="0"/>
        <pt x="59" y="317" on="0"/>
        <pt x="59" y="340" on="1"/>
        <pt x="59" y="392" on="0"/>
        <pt x="145" y="450" on="0"/>
        <pt x="224" y="450" on="1"/>
        <pt x="317" y="450" on="0"/>
        <pt x="404" y="358" on="0"/>
        <pt x="404" y="282" on="1"/>
        <pt x="404" y="84" on="1"/>
        <pt x="404" y="52" on="0"/>
        <pt x="425" y="22" on="0"/>
        <pt x="440" y="22" on="1"/>
        <pt x="453" y="22" on="0"/>
        <pt x="474" y="36" on="0"/>
        <pt x="474" y="46" on="1"/>
        <pt x="492" y="46" on="1"/>
        <pt x="492" y="18" on="0"/>
        <pt x="451" y="-8" on="0"/>
        <pt x="400" y="-8" on="1"/>
        <pt x="350" y="-8" on="0"/>
        <pt x="329" y="33" on="1"/>
        <pt x="270" y="-10" on="0"/>
        <pt x="182" y="-10" on="1"/>
        <pt x="32" y="-10" on="0"/>
        <pt x="32" y="112" on="1"/>
        <pt x="32" y="138" on="0"/>
        <pt x="69" y="180" on="0"/>
        <pt x="139" y="208" on="0"/>
        <pt x="201" y="225" on="0"/>
        <pt x="294" y="246" on="0"/>
        <pt x="314" y="252" on="1"/>
        <pt x="314" y="336" on="0"/>
        <pt x="270" y="414" on="0"/>
        <pt x="214" y="414" on="1"/>
        <pt x="124" y="414" on="0"/>
      </contour>
      <contour>
        <pt x="320" y="58" on="1"/>
        <pt x="314" y="80" on="0"/>
        <pt x="314" y="112" on="1"/>
        <pt x="314" y="230" on="1"/>
        <pt x="303" y="226" on="0"/>
        <pt x="250" y="212" on="0"/>
        <pt x="217" y="202" on="0"/>
        <pt x="171" y="182" on="0"/>
        <pt x="145" y="162" on="0"/>
        <pt x="125" y="129" on="0"/>
        <pt x="125" y="110" on="1"/>
        <pt x="125" y="62" on="0"/>
        <pt x="162" y="24" on="0"/>
        <pt x="199" y="24" on="1"/>
        <pt x="265" y="24" on="0"/>
      </contour>
    </TTGlyph>
    <TTGlyph name="acircumflex" xMin="32" yMin="-10" xMax="492" yMax="677">
      <component glyphName="circumflex" x="43" y="15" flags="0x1004"/>
      <component glyphName="a" x="0" y="0" flags="0x1204"/>
    </TTGlyph>
    <TTGlyph name="acute" xMin="60" yMin="500" xMax="240" yMax="662">
      <contour>
        <pt x="134" y="662" on="1"/>
        <pt x="240" y="662" on="1"/>
        <pt x="86" y="500" on="1"/>
        <pt x="60" y="500" on="1"/>
      </contour>
    </TTGlyph>
    <TTGlyph name="acutebelowcomb" xMin="-336" yMin="-212" xMax="-156" yMax="-50">
      <component glyphName="acutecomb" x="-69" y="-712" flags="0x1004"/>
    </TTGlyph>
    <TTGlyph name="acutecomb" xMin="-267" yMin="500" xMax="-87" yMax="662">
      <contour>
        <pt x="-193" y="662" on="1"/>
        <pt x="-87" y="662" on="1"/>
        <pt x="-241" y="500" on="1"/>
        <pt x="-267" y="500" on="1"/>
      </contour>
    </TTGlyph>
    <TTGlyph name="acutemacroncomb" xMin="-466" yMin="452" xMax="-128" yMax="614">
      <contour>
        <pt x="-328" y="570" on="1"/>
        <pt x="-440" y="452" on="1"/>
        <pt x="-466" y="452" on="1"/>
        <pt x="-392" y="614" on="1"/>
        <pt x="-128" y="614" on="1"/>
        <pt x="-128" y="570" on="1"/>
      </contour>
    </TTGlyph>
    <TTGlyph name="adieresis" xMin="32" yMin="-10" xMax="492" yMax="613">
      <component glyphName="dieresis" x="21" y="15" flags="0x1004"/>
      <component glyphName="a" x="0" y="0" flags="0x1204"/>
    </TTGlyph>
    <TTGlyph name="adotbelow" xMin="32" yMin="-153" xMax="492" yMax="450">
      <contour>
        <pt x="186" y="-123" on="0"/>
        <pt x="186" y="-81" on="0"/>
        <pt x="216" y="-51" on="0"/>
        <pt x="258" y="-51" on="0"/>
        <pt x="288" y="-81" on="0"/>
        <pt x="288" y="-123" on="0"/>
        <pt x="258" y="-153" on="0"/>
        <pt x="216" y="-153" on="0"/>
      </contour>
      <contour>
        <pt x="112" y="366" on="1"/>
        <pt x="126" y="366" on="0"/>
        <pt x="147" y="346" on="0"/>
        <pt x="147" y="325" on="1"/>
        <pt x="147" y="308" on="0"/>
        <pt x="120" y="290" on="0"/>
        <pt x="102" y="290" on="1"/>
        <pt x="83" y="290" on="0"/>
        <pt x="59" y="317" on="0"/>
        <pt x="59" y="340" on="1"/>
        <pt x="59" y="392" on="0"/>
        <pt x="145" y="450" on="0"/>
        <pt x="224" y="450" on="1"/>
        <pt x="317" y="450" on="0"/>
        <pt x="404" y="358" on="0"/>
        <pt x="404" y="282" on="1"/>
        <pt x="404" y="84" on="1"/>
        <pt x="404" y="52" on="0"/>
        <pt x="425" y="22" on="0"/>
        <pt x="440" y="22" on="1"/>
        <pt x="453" y="22" on="0"/>
        <pt x="474" y="36" on="0"/>
        <pt x="474" y="46" on="1"/>
        <pt x="492" y="46" on="1"/>
        <pt x="492" y="18" on="0"/>
        <pt x="451" y="-8" on="0"/>
        <pt x="400" y="-8" on="1"/>
        <pt x="350" y="-8" on="0"/>
        <pt x="329" y="33" on="1"/>
        <pt x="270" y="-10" on="0"/>
        <pt x="182" y="-10" on="1"/>
        <pt x="32" y="-10" on="0"/>
        <pt x="32" y="112" on="1"/>
        <pt x="32" y="138" on="0"/>
        <pt x="69" y="180" on="0"/>
        <pt x="139" y="208" on="0"/>
        <pt x="201" y="225" on="0"/>
        <pt x="294" y="246" on="0"/>
        <pt x="314" y="252" on="1"/>
        <pt x="314" y="336" on="0"/>
        <pt x="270" y="414" on="0"/>
        <pt x="214" y="414" on="1"/>
        <pt x="124" y="414" on="0"/>
      </contour>
      <contour>
        <pt x="320" y="58" on="1"/>
        <pt x="314" y="80" on="0"/>
        <pt x="314" y="112" on="1"/>
        <pt x="314" y="230" on="1"/>
        <pt x="303" y="226" on="0"/>
        <pt x="250" y="212" on="0"/>
        <pt x="217" y="202" on="0"/>
        <pt x="171" y="182" on="0"/>
        <pt x="145" y="162" on="0"/>
        <pt x="125" y="129" on="0"/>
        <pt x="125" y="110" on="1"/>
        <pt x="125" y="62" on="0"/>
        <pt x="162" y="24" on="0"/>
        <pt x="199" y="24" on="1"/>
        <pt x="265" y="24" on="0"/>
      </contour>
    </TTGlyph>
</ttFont>
